NotoSerifBengali-ExtraCondensedExtraLight.ufo
<glyph name="exclam" format="2">
  <advance width="228.3030303030303"/>
  <unicode hex="0021"/>
  <outline>
    <contour>
      <point x="101.18181818181817" y="175.6969696969697" type="line"/>
      <point x="130.06060606060606" y="175.6969696969697" type="line"/>
      <point x="137.57575757575756" y="714.0" type="line"/>
      <point x="93.66666666666667" y="714.0" type="line"/>
    </contour>
    <contour>
      <point x="114.93939393939392" y="-5.424242424242424" type="curve" smooth="yes"/>
      <point x="131.6969696969697" y="-5.424242424242424"/>
      <point x="147.8181818181818" y="5.636363636363637"/>
      <point x="147.8181818181818" y="38.45454545454545" type="curve" smooth="yes"/>
      <point x="147.8181818181818" y="72.06060606060606"/>
      <point x="131.6969696969697" y="83.12121212121211"/>
      <point x="114.93939393939392" y="83.12121212121211" type="curve" smooth="yes"/>
      <point x="95.39393939393939" y="83.12121212121211"/>
      <point x="80.48484848484848" y="72.06060606060606"/>
      <point x="80.48484848484848" y="38.45454545454545" type="curve" smooth="yes"/>
      <point x="80.48484848484848" y="5.636363636363637"/>
      <point x="95.39393939393939" y="-5.424242424242424"/>
    </contour>
  </outline>
</glyph>
<glyph name="quotedbl" format="2">
  <advance width="258.1212121212121"/>
  <unicode hex="0022"/>
  <outline>
    <contour>
      <point x="180.93939393939394" y="495.6060606060606" type="line"/>
      <point x="204.3939393939394" y="495.6060606060606" type="line"/>
      <point x="219.57575757575756" y="714.0" type="line"/>
      <point x="165.75757575757575" y="714.0" type="line"/>
    </contour>
    <contour>
      <point x="53.72727272727273" y="495.6060606060606" type="line"/>
      <point x="77.18181818181819" y="495.6060606060606" type="line"/>
      <point x="92.36363636363637" y="714.0" type="line"/>
      <point x="38.54545454545455" y="714.0" type="line"/>
    </contour>
  </outline>
</glyph>
<glyph name="numbersign" format="2">
  <advance width="428.8181818181818"/>
  <unicode hex="0023"/>
  <outline>
    <contour>
      <point x="40.84848484848486" y="0.0" type="line"/>
      <point x="74.57575757575758" y="0.0" type="line"/>
      <point x="115.15151515151514" y="216.66666666666666" type="line"/>
      <point x="252.24242424242422" y="216.66666666666666" type="line"/>
      <point x="211.66666666666666" y="0.0" type="line"/>
      <point x="245.39393939393943" y="0.0" type="line"/>
      <point x="285.969696969697" y="216.66666666666666" type="line"/>
      <point x="391.969696969697" y="216.66666666666666" type="line"/>
      <point x="391.969696969697" y="247.1818181818182" type="line"/>
      <point x="292.030303030303" y="247.1818181818182" type="line"/>
      <point x="333.969696969697" y="472.6060606060606" type="line"/>
      <point x="423.969696969697" y="472.6060606060606" type="line"/>
      <point x="423.969696969697" y="503.54545454545456" type="line"/>
      <point x="340.030303030303" y="503.54545454545456" type="line"/>
      <point x="379.60606060606057" y="714.0" type="line"/>
      <point x="345.6666666666667" y="714.0" type="line"/>
      <point x="306.3030303030303" y="503.54545454545456" type="line"/>
      <point x="169.21212121212122" y="503.54545454545456" type="line"/>
      <point x="208.78787878787878" y="714.0" type="line"/>
      <point x="174.84848484848484" y="714.0" type="line"/>
      <point x="135.48484848484847" y="503.54545454545456" type="line"/>
      <point x="34.27272727272727" y="503.54545454545456" type="line"/>
      <point x="34.27272727272727" y="472.6060606060606" type="line"/>
      <point x="129.21212121212122" y="472.6060606060606" type="line"/>
      <point x="87.48484848484847" y="247.1818181818182" type="line"/>
      <point x="2.2727272727272743" y="247.1818181818182" type="line"/>
      <point x="2.2727272727272743" y="216.66666666666666" type="line"/>
      <point x="81.42424242424241" y="216.66666666666666" type="line"/>
    </contour>
    <contour>
      <point x="121.21212121212122" y="247.1818181818182" type="line"/>
      <point x="163.15151515151516" y="472.6060606060606" type="line"/>
      <point x="300.24242424242425" y="472.6060606060606" type="line"/>
      <point x="258.3030303030303" y="247.1818181818182" type="line"/>
    </contour>
  </outline>
</glyph>
<glyph name="percent" format="2">
  <advance width="680.2727272727274"/>
  <unicode hex="0025"/>
  <outline>
    <contour>
      <point x="176.75757575757575" y="0.0" type="line"/>
      <point x="212.06060606060606" y="0.0" type="line"/>
      <point x="499.7272727272727" y="714.0" type="line"/>
      <point x="464.6363636363637" y="714.0" type="line"/>
    </contour>
    <contour>
      <point x="157.33333333333334" y="280.0" type="curve" smooth="yes"/>
      <point x="237.8787878787879" y="280.0"/>
      <point x="275.57575757575756" y="361.1212121212121"/>
      <point x="275.57575757575756" y="503.0" type="curve"/>
      <point x="275.57575757575756" y="646.4545454545455"/>
      <point x="238.66666666666669" y="724.0"/>
      <point x="158.33333333333334" y="724.0" type="curve" smooth="yes"/>
      <point x="76.72727272727273" y="724.0"/>
      <point x="40.878787878787875" y="644.8787878787879"/>
      <point x="40.878787878787875" y="503.0" type="curve" smooth="yes"/>
      <point x="40.878787878787875" y="357.1818181818182"/>
      <point x="77.51515151515152" y="280.0"/>
    </contour>
    <contour>
      <point x="157.33333333333334" y="307.33333333333337" type="curve" smooth="yes"/>
      <point x="96.72727272727273" y="307.33333333333337"/>
      <point x="77.57575757575758" y="377.48484848484844"/>
      <point x="77.57575757575758" y="503.0" type="curve"/>
      <point x="77.57575757575758" y="627.3030303030304"/>
      <point x="96.72727272727272" y="696.4545454545455"/>
      <point x="157.54545454545456" y="696.4545454545455" type="curve" smooth="yes"/>
      <point x="220.51515151515153" y="696.4545454545455"/>
      <point x="238.66666666666666" y="627.3030303030303"/>
      <point x="238.66666666666666" y="503.0" type="curve" smooth="yes"/>
      <point x="238.66666666666666" y="377.4848484848485"/>
      <point x="220.51515151515153" y="307.33333333333337"/>
    </contour>
    <contour>
      <point x="521.9393939393939" y="-10.0" type="curve" smooth="yes"/>
      <point x="602.4848484848485" y="-10.0"/>
      <point x="640.1818181818181" y="71.12121212121212"/>
      <point x="640.1818181818181" y="213.0" type="curve" smooth="yes"/>
      <point x="640.1818181818181" y="356.45454545454544"/>
      <point x="603.2727272727273" y="434.0"/>
      <point x="522.9393939393939" y="434.0" type="curve" smooth="yes"/>
      <point x="441.5454545454545" y="434.0"/>
      <point x="405.4848484848485" y="354.8787878787879"/>
      <point x="405.4848484848485" y="213.0" type="curve" smooth="yes"/>
      <point x="405.4848484848485" y="67.18181818181817"/>
      <point x="442.3333333333333" y="-10.0"/>
    </contour>
    <contour>
      <point x="521.939393939394" y="17.333333333333332" type="curve" smooth="yes"/>
      <point x="461.3333333333333" y="17.333333333333332"/>
      <point x="442.18181818181813" y="87.48484848484848"/>
      <point x="442.18181818181813" y="213.0" type="curve" smooth="yes"/>
      <point x="442.18181818181813" y="337.3030303030303"/>
      <point x="461.3333333333333" y="406.45454545454544"/>
      <point x="521.939393939394" y="406.45454545454544" type="curve" smooth="yes"/>
      <point x="585.1212121212121" y="406.45454545454544"/>
      <point x="603.2727272727273" y="337.30303030303025"/>
      <point x="603.2727272727273" y="213.0" type="curve" smooth="yes"/>
      <point x="603.2727272727273" y="87.48484848484848"/>
      <point x="585.1212121212121" y="17.333333333333332"/>
    </contour>
  </outline>
</glyph>
<glyph name="quotesingle" format="2">
  <advance width="130.9090909090909"/>
  <unicode hex="0027"/>
  <outline>
    <contour>
      <point x="53.72727272727273" y="516.0909090909091" type="line"/>
      <point x="77.18181818181819" y="516.0909090909091" type="line"/>
      <point x="92.36363636363637" y="714.0" type="line"/>
      <point x="38.54545454545455" y="714.0" type="line"/>
    </contour>
  </outline>
</glyph>
<glyph name="parenright" format="2">
  <advance width="234.36363636363635"/>
  <unicode hex="0029"/>
  <outline>
    <contour>
      <point x="23.42424242424242" y="-117.54545454545455" type="line"/>
      <point x="127.0" y="-68.39393939393939"/>
      <point x="190.36363636363635" y="64.33333333333334"/>
      <point x="190.36363636363635" y="315.42424242424244" type="curve" smooth="yes"/>
      <point x="190.36363636363635" y="563.9393939393939"/>
      <point x="127.0" y="699.0303030303031"/>
      <point x="23.42424242424242" y="747.7575757575758" type="curve"/>
      <point x="23.42424242424242" y="716.7878787878788" type="line"/>
      <point x="100.27272727272727" y="672.1818181818181"/>
      <point x="148.36363636363637" y="521.6969696969697"/>
      <point x="148.36363636363637" y="315.42424242424244" type="curve" smooth="yes"/>
      <point x="148.36363636363637" y="109.15151515151516"/>
      <point x="100.27272727272725" y="-41.75757575757576"/>
      <point x="23.42424242424242" y="-86.15151515151516" type="curve"/>
    </contour>
  </outline>
</glyph>
<glyph name="asterisk" format="2">
  <advance width="350.0"/>
  <unicode hex="002A"/>
  <outline>
    <contour>
      <point x="149.84848484848487" y="380.3030303030303" type="line"/>
      <point x="197.99999999999997" y="380.3030303030303" type="line"/>
      <point x="182.87878787878788" y="548.0909090909091" type="line"/>
      <point x="293.1515151515151" y="459.96969696969694" type="line"/>
      <point x="311.90909090909093" y="510.4848484848485" type="line"/>
      <point x="188.9090909090909" y="570.1515151515151" type="line"/>
      <point x="311.90909090909093" y="629.8181818181819" type="line"/>
      <point x="293.1515151515151" y="680.3333333333334" type="line"/>
      <point x="182.87878787878788" y="592.4242424242424" type="line"/>
      <point x="198.00000000000003" y="760.0" type="line"/>
      <point x="149.84848484848487" y="760.0" type="line"/>
      <point x="163.75757575757575" y="593.0" type="line"/>
      <point x="53.696969696969695" y="682.3333333333333" type="line"/>
      <point x="34.15151515151515" y="630.8181818181819" type="line"/>
      <point x="157.15151515151516" y="570.1515151515151" type="line"/>
      <point x="34.15151515151515" y="509.4848484848485" type="line"/>
      <point x="53.696969696969695" y="457.96969696969694" type="line"/>
      <point x="163.75757575757575" y="547.3030303030304" type="line"/>
    </contour>
  </outline>
</glyph>
<glyph name="plus" format="2">
  <advance width="425.0"/>
  <unicode hex="002B"/>
  <outline>
    <contour>
      <point x="194.6060606060606" y="143.0" type="line"/>
      <point x="230.75757575757578" y="143.0" type="line"/>
      <point x="230.75757575757578" y="340.8181818181818" type="line"/>
      <point x="376.4848484848485" y="340.8181818181818" type="line"/>
      <point x="376.4848484848485" y="374.969696969697" type="line"/>
      <point x="230.75757575757578" y="374.969696969697" type="line"/>
      <point x="230.75757575757578" y="572.0" type="line"/>
      <point x="194.6060606060606" y="572.0" type="line"/>
      <point x="194.6060606060606" y="374.969696969697" type="line"/>
      <point x="48.51515151515151" y="374.969696969697" type="line"/>
      <point x="48.51515151515151" y="340.8181818181818" type="line"/>
      <point x="194.6060606060606" y="340.8181818181818" type="line"/>
    </contour>
  </outline>
</glyph>
<glyph name="comma" format="2">
  <advance width="167.6060606060606"/>
  <unicode hex="002C"/>
  <outline>
    <contour>
      <point x="22.54545454545455" y="-154.0" type="line"/>
      <point x="97.57575757575759" y="-123.57575757575758"/>
      <point x="126.06060606060606" y="-56.72727272727272"/>
      <point x="126.06060606060606" y="5.515151515151516" type="curve" smooth="yes"/>
      <point x="126.06060606060606" y="61.939393939393945"/>
      <point x="102.06060606060608" y="82.33333333333333"/>
      <point x="77.0909090909091" y="82.33333333333333" type="curve" smooth="yes"/>
      <point x="57.96969696969697" y="82.33333333333333"/>
      <point x="43.272727272727266" y="69.42424242424242"/>
      <point x="43.272727272727266" y="50.60606060606061" type="curve" smooth="yes"/>
      <point x="43.272727272727266" y="14.727272727272728"/>
      <point x="88.75757575757575" y="11.0"/>
      <point x="88.75757575757575" y="-26.0" type="curve" smooth="yes"/>
      <point x="88.75757575757575" y="-61.0"/>
      <point x="69.12121212121212" y="-107.24242424242424"/>
      <point x="22.54545454545455" y="-125.45454545454547" type="curve"/>
    </contour>
  </outline>
</glyph>
<glyph name="period" format="2">
  <advance width="167.6060606060606"/>
  <unicode hex="002E"/>
  <outline>
    <contour>
      <point x="85.09090909090908" y="-6.212121212121212" type="curve" smooth="yes"/>
      <point x="101.84848484848484" y="-6.212121212121212"/>
      <point x="117.18181818181819" y="4.848484848484849"/>
      <point x="117.18181818181819" y="37.66666666666667" type="curve" smooth="yes"/>
      <point x="117.18181818181819" y="71.27272727272728"/>
      <point x="101.84848484848484" y="82.33333333333333"/>
      <point x="85.09090909090908" y="82.33333333333333" type="curve" smooth="yes"/>
      <point x="65.54545454545453" y="82.33333333333333"/>
      <point x="50.42424242424242" y="71.27272727272728"/>
      <point x="50.42424242424242" y="37.66666666666667" type="curve" smooth="yes"/>
      <point x="50.42424242424242" y="4.848484848484849"/>
      <point x="65.54545454545453" y="-6.212121212121212"/>
    </contour>
  </outline>
</glyph>
<glyph name="zero" format="2">
  <advance width="428.6060606060606"/>
  <unicode hex="0030"/>
  <outline>
    <contour>
      <point x="213.9090909090909" y="-10.0" type="curve" smooth="yes"/>
      <point x="326.0" y="-10.0"/>
      <point x="386.72727272727275" y="109.24242424242425"/>
      <point x="386.72727272727275" y="358.0" type="curve" smooth="yes"/>
      <point x="386.72727272727275" y="598.7272727272726"/>
      <point x="331.3636363636364" y="724.0"/>
      <point x="214.9090909090909" y="724.0" type="curve" smooth="yes"/>
      <point x="89.66666666666667" y="724.0"/>
      <point x="40.87878787878788" y="589.5757575757575"/>
      <point x="40.87878787878788" y="359.0" type="curve" smooth="yes"/>
      <point x="40.87878787878788" y="115.48484848484848"/>
      <point x="95.81818181818181" y="-10.0"/>
    </contour>
    <contour>
      <point x="213.90909090909088" y="20.303030303030305" type="curve" smooth="yes"/>
      <point x="119.42424242424242" y="20.303030303030305"/>
      <point x="82.24242424242425" y="144.3939393939394"/>
      <point x="82.24242424242425" y="358.0" type="curve" smooth="yes"/>
      <point x="82.24242424242425" y="571.6060606060606"/>
      <point x="119.42424242424244" y="693.6969696969697"/>
      <point x="214.90909090909088" y="693.6969696969697" type="curve" smooth="yes"/>
      <point x="308.3939393939394" y="693.6969696969697"/>
      <point x="345.7878787878788" y="571.6060606060606"/>
      <point x="345.7878787878788" y="358.0" type="curve" smooth="yes"/>
      <point x="345.7878787878788" y="144.39393939393938"/>
      <point x="308.3939393939394" y="20.303030303030305"/>
    </contour>
  </outline>
</glyph>
<glyph name="one" format="2">
  <advance width="428.6060606060606"/>
  <unicode hex="0031"/>
  <outline>
    <contour>
      <point x="84.51515151515152" y="0.0" type="line"/>
      <point x="365.75757575757575" y="0.0" type="line"/>
      <point x="365.75757575757575" y="24.454545454545453" type="line"/>
      <point x="307.33333333333337" y="24.454545454545453" type="line" smooth="yes"/>
      <point x="261.03030303030306" y="24.454545454545453"/>
      <point x="248.99999999999997" y="34.45454545454545"/>
      <point x="248.99999999999997" y="106.6969696969697" type="curve" smooth="yes"/>
      <point x="248.99999999999997" y="718.0" type="line"/>
      <point x="223.15151515151516" y="718.0" type="line"/>
      <point x="176.8181818181818" y="666.2121212121212" type="line" smooth="yes"/>
      <point x="129.33333333333334" y="612.6969696969697"/>
      <point x="93.18181818181819" y="597.8484848484849"/>
      <point x="59.6060606060606" y="587.8484848484849" type="curve"/>
      <point x="59.6060606060606" y="573.3939393939394"/>
      <point x="73.45454545454545" y="564.6363636363636"/>
      <point x="88.0" y="564.6363636363636" type="curve" smooth="yes"/>
      <point x="129.24242424242422" y="564.6363636363636"/>
      <point x="164.3939393939394" y="605.8484848484848"/>
      <point x="208.90909090909093" y="662.0606060606061" type="curve"/>
      <point x="208.90909090909093" y="106.6969696969697" type="line" smooth="yes"/>
      <point x="208.90909090909093" y="33.81818181818182"/>
      <point x="196.87878787878785" y="24.454545454545453"/>
      <point x="150.5757575757576" y="24.454545454545453" type="curve" smooth="yes"/>
      <point x="84.51515151515152" y="24.454545454545453" type="line"/>
    </contour>
  </outline>
</glyph>
<glyph name="two" format="2">
  <advance width="428.6060606060606"/>
  <unicode hex="0032"/>
  <outline>
    <contour>
      <point x="44.09090909090909" y="0.0" type="line"/>
      <point x="365.06060606060606" y="0.0" type="line"/>
      <point x="367.2727272727273" y="139.27272727272725" type="line"/>
      <point x="343.24242424242425" y="139.27272727272725" type="line"/>
      <point x="341.6060606060606" y="107.66666666666666" type="line" smooth="yes"/>
      <point x="338.90909090909093" y="57.515151515151516"/>
      <point x="331.2121212121212" y="38.3939393939394"/>
      <point x="280.1212121212121" y="38.3939393939394" type="curve" smooth="yes"/>
      <point x="83.72727272727273" y="38.3939393939394" type="line"/>
      <point x="233.9090909090909" y="277.9090909090909" type="line" smooth="yes"/>
      <point x="299.57575757575756" y="379.75757575757575"/>
      <point x="345.3333333333333" y="456.66666666666663"/>
      <point x="345.3333333333333" y="557.1515151515151" type="curve" smooth="yes"/>
      <point x="345.3333333333333" y="653.4242424242425"/>
      <point x="294.72727272727275" y="724.0"/>
      <point x="201.12121212121215" y="724.0" type="curve" smooth="yes"/>
      <point x="103.15151515151517" y="724.0"/>
      <point x="60.757575757575765" y="653.3939393939394"/>
      <point x="60.757575757575765" y="600.5151515151515" type="curve" smooth="yes"/>
      <point x="60.757575757575765" y="567.8484848484849"/>
      <point x="75.6969696969697" y="556.0"/>
      <point x="94.78787878787878" y="556.0" type="curve"/>
      <point x="94.78787878787878" y="632.0"/>
      <point x="123.60606060606062" y="693.909090909091"/>
      <point x="201.12121212121215" y="693.909090909091" type="curve" smooth="yes"/>
      <point x="274.030303030303" y="693.909090909091"/>
      <point x="303.96969696969694" y="635.8181818181819"/>
      <point x="303.96969696969694" y="551.3030303030304" type="curve" smooth="yes"/>
      <point x="303.96969696969694" y="466.030303030303"/>
      <point x="271.45454545454544" y="394.969696969697"/>
      <point x="196.27272727272728" y="275.75757575757575" type="curve" smooth="yes"/>
      <point x="44.09090909090909" y="31.545454545454547" type="line"/>
    </contour>
  </outline>
</glyph>
<glyph name="three" format="2">
  <advance width="428.6060606060606"/>
  <unicode hex="0033"/>
  <outline>
    <contour>
      <point x="198.1212121212121" y="-9.212121212121213" type="curve" smooth="yes"/>
      <point x="290.75757575757575" y="-9.212121212121213"/>
      <point x="370.27272727272725" y="58.75757575757576"/>
      <point x="370.27272727272725" y="191.27272727272728" type="curve" smooth="yes"/>
      <point x="370.27272727272725" y="323.0"/>
      <point x="299.6363636363636" y="370.3636363636364"/>
      <point x="222.3939393939394" y="376.42424242424244" type="curve"/>
      <point x="300.06060606060606" y="391.90909090909093"/>
      <point x="351.06060606060606" y="470.5757575757576"/>
      <point x="351.06060606060606" y="560.5757575757575" type="curve" smooth="yes"/>
      <point x="351.06060606060606" y="662.6363636363636"/>
      <point x="295.09090909090907" y="724.0"/>
      <point x="210.6969696969697" y="724.0" type="curve" smooth="yes"/>
      <point x="123.75757575757575" y="724.0"/>
      <point x="70.9090909090909" y="667.1515151515152"/>
      <point x="70.9090909090909" y="592.5757575757575" type="curve" smooth="yes"/>
      <point x="70.9090909090909" y="559.6060606060606"/>
      <point x="86.57575757575756" y="548.5454545454545"/>
      <point x="102.51515151515152" y="548.5454545454545" type="curve"/>
      <point x="102.5151515151515" y="633.060606060606"/>
      <point x="129.45454545454547" y="693.909090909091"/>
      <point x="209.21212121212125" y="693.909090909091" type="curve" smooth="yes"/>
      <point x="276.60606060606057" y="693.909090909091"/>
      <point x="309.90909090909093" y="644.7575757575758"/>
      <point x="309.90909090909093" y="557.8787878787879" type="curve" smooth="yes"/>
      <point x="309.90909090909093" y="451.6363636363636"/>
      <point x="248.84848484848484" y="388.6969696969697"/>
      <point x="171.75757575757578" y="388.6969696969697" type="curve"/>
      <point x="147.72727272727272" y="388.6969696969697" type="line"/>
      <point x="147.72727272727272" y="359.03030303030306" type="line"/>
      <point x="171.54545454545453" y="359.03030303030306" type="line" smooth="yes"/>
      <point x="278.45454545454544" y="359.03030303030306"/>
      <point x="329.1212121212121" y="299.6666666666667"/>
      <point x="329.1212121212121" y="192.27272727272728" type="curve" smooth="yes"/>
      <point x="329.1212121212121" y="85.78787878787878"/>
      <point x="276.96969696969694" y="21.515151515151516"/>
      <point x="197.9090909090909" y="21.515151515151516" type="curve" smooth="yes"/>
      <point x="122.45454545454544" y="21.515151515151516"/>
      <point x="81.72727272727272" y="65.27272727272727"/>
      <point x="81.72727272727272" y="142.15151515151516" type="curve"/>
      <point x="61.84848484848485" y="142.15151515151516"/>
      <point x="51.18181818181817" y="123.66666666666666"/>
      <point x="51.18181818181817" y="98.84848484848484" type="curve" smooth="yes"/>
      <point x="51.18181818181817" y="41.78787878787879"/>
      <point x="101.75757575757576" y="-9.212121212121213"/>
    </contour>
  </outline>
</glyph>
<glyph name="four" format="2">
  <advance width="428.6060606060606"/>
  <unicode hex="0034"/>
  <outline>
    <contour>
      <point x="187.06060606060603" y="0.0" type="line"/>
      <point x="387.57575757575756" y="0.0" type="line"/>
      <point x="387.57575757575756" y="24.454545454545457" type="line"/>
      <point x="375.2121212121212" y="24.454545454545457" type="line" smooth="yes"/>
      <point x="324.8181818181818" y="24.454545454545457"/>
      <point x="312.3636363636364" y="33.45454545454545"/>
      <point x="312.3636363636364" y="103.54545454545456" type="curve" smooth="yes"/>
      <point x="312.3636363636364" y="205.66666666666666" type="line"/>
      <point x="417.96969696969694" y="205.66666666666666" type="line"/>
      <point x="417.96969696969694" y="237.03030303030303" type="line"/>
      <point x="312.3636363636364" y="237.03030303030303" type="line"/>
      <point x="312.3636363636364" y="714.0" type="line"/>
      <point x="272.060606060606" y="714.0" type="line"/>
      <point x="16.151515151515152" y="228.12121212121212" type="line"/>
      <point x="16.151515151515152" y="205.66666666666666" type="line"/>
      <point x="273.2727272727273" y="205.66666666666666" type="line"/>
      <point x="273.2727272727273" y="103.54545454545456" type="line" smooth="yes"/>
      <point x="273.2727272727273" y="33.45454545454545"/>
      <point x="261.030303030303" y="24.454545454545457"/>
      <point x="211.2121212121212" y="24.454545454545457" type="curve" smooth="yes"/>
      <point x="187.06060606060603" y="24.454545454545457" type="line"/>
    </contour>
    <contour>
      <point x="52.878787878787875" y="237.03030303030303" type="line"/>
      <point x="194.45454545454544" y="505.6969696969697" type="line" smooth="yes"/>
      <point x="217.03030303030303" y="547.9090909090909"/>
      <point x="267.06060606060606" y="647.0909090909091"/>
      <point x="275.90909090909093" y="670.4242424242424" type="curve"/>
      <point x="273.4848484848485" y="606.8484848484848"/>
      <point x="273.2727272727273" y="502.1515151515151"/>
      <point x="273.2727272727273" y="444.1515151515151" type="curve" smooth="yes"/>
      <point x="273.2727272727273" y="237.03030303030303" type="line"/>
    </contour>
  </outline>
</glyph>
<glyph name="five" format="2">
  <advance width="428.6060606060606"/>
  <unicode hex="0035"/>
  <outline>
    <contour>
      <point x="194.5757575757576" y="-10.0" type="curve" smooth="yes"/>
      <point x="295.1818181818182" y="-10.0"/>
      <point x="367.5151515151515" y="66.87878787878788"/>
      <point x="367.5151515151515" y="216.42424242424244" type="curve" smooth="yes"/>
      <point x="367.5151515151515" y="353.27272727272725"/>
      <point x="295.81818181818187" y="424.27272727272725"/>
      <point x="195.84848484848482" y="424.27272727272725" type="curve" smooth="yes"/>
      <point x="157.9090909090909" y="424.27272727272725"/>
      <point x="127.63636363636364" y="413.6969696969697"/>
      <point x="105.27272727272728" y="402.33333333333337" type="curve"/>
      <point x="124.63636363636363" y="675.6060606060606" type="line"/>
      <point x="266.8181818181818" y="675.6060606060606" type="line" smooth="yes"/>
      <point x="308.2727272727273" y="675.6060606060606"/>
      <point x="313.7878787878788" y="668.3333333333334"/>
      <point x="317.27272727272725" y="619.3030303030304" type="curve" smooth="yes"/>
      <point x="319.1212121212121" y="595.1515151515151" type="line"/>
      <point x="343.1515151515151" y="595.1515151515151" type="line"/>
      <point x="340.1515151515152" y="714.0" type="line"/>
      <point x="98.87878787878788" y="714.0" type="line"/>
      <point x="74.24242424242424" y="364.93939393939394" type="line"/>
      <point x="88.51515151515152" y="359.66666666666663" type="line"/>
      <point x="110.30303030303031" y="377.18181818181813"/>
      <point x="145.0909090909091" y="393.75757575757575"/>
      <point x="193.24242424242422" y="393.75757575757575" type="curve" smooth="yes"/>
      <point x="276.42424242424244" y="393.75757575757575"/>
      <point x="326.1515151515151" y="332.45454545454544"/>
      <point x="326.1515151515151" y="216.42424242424244" type="curve" smooth="yes"/>
      <point x="326.1515151515151" y="77.9090909090909"/>
      <point x="271.2727272727273" y="20.515151515151516"/>
      <point x="193.3030303030303" y="20.515151515151516" type="curve" smooth="yes"/>
      <point x="110.39393939393939" y="20.515151515151516"/>
      <point x="77.24242424242424" y="72.93939393939394"/>
      <point x="77.24242424242424" y="132.15151515151516" type="curve"/>
      <point x="58.63636363636364" y="132.15151515151516"/>
      <point x="47.878787878787875" y="118.18181818181819"/>
      <point x="47.878787878787875" y="89.27272727272728" type="curve" smooth="yes"/>
      <point x="47.878787878787875" y="55.72727272727273"/>
      <point x="86.03030303030302" y="-10.0"/>
    </contour>
  </outline>
</glyph>
<glyph name="six" format="2">
  <advance width="428.6060606060606"/>
  <unicode hex="0036"/>
  <outline>
    <contour>
      <point x="228.06060606060606" y="-10.0" type="curve" smooth="yes"/>
      <point x="305.7575757575758" y="-10.0"/>
      <point x="379.7878787878788" y="52.54545454545455"/>
      <point x="379.7878787878788" y="218.75757575757575" type="curve" smooth="yes"/>
      <point x="379.7878787878788" y="354.42424242424244"/>
      <point x="326.24242424242425" y="429.8484848484849"/>
      <point x="230.87878787878788" y="429.8484848484849" type="curve" smooth="yes"/>
      <point x="162.4848484848485" y="429.8484848484849"/>
      <point x="117.81818181818183" y="387.6666666666667"/>
      <point x="96.18181818181819" y="359.3030303030303" type="curve"/>
      <point x="96.03030303030303" y="601.0"/>
      <point x="145.06060606060606" y="694.3333333333334"/>
      <point x="240.90909090909088" y="694.3333333333334" type="curve" smooth="yes"/>
      <point x="307.09090909090907" y="694.3333333333334"/>
      <point x="332.24242424242425" y="654.6363636363636"/>
      <point x="332.24242424242425" y="581.6969696969696" type="curve"/>
      <point x="349.24242424242425" y="581.6969696969696"/>
      <point x="362.0" y="589.6666666666667"/>
      <point x="362.0" y="623.7272727272727" type="curve" smooth="yes"/>
      <point x="362.0" y="680.0909090909091"/>
      <point x="322.3030303030303" y="724.0"/>
      <point x="242.33333333333334" y="724.0" type="curve" smooth="yes"/>
      <point x="123.18181818181819" y="724.0"/>
      <point x="55.242424242424235" y="625.3333333333333"/>
      <point x="55.242424242424235" y="339.21212121212125" type="curve" smooth="yes"/>
      <point x="55.242424242424235" y="93.84848484848484"/>
      <point x="121.63636363636363" y="-10.0"/>
    </contour>
    <contour>
      <point x="229.27272727272728" y="20.303030303030305" type="curve" smooth="yes"/>
      <point x="144.63636363636365" y="20.303030303030305"/>
      <point x="97.96969696969697" y="114.87878787878788"/>
      <point x="95.96969696969697" y="319.1212121212121" type="curve"/>
      <point x="120.48484848484848" y="353.57575757575756"/>
      <point x="161.72727272727275" y="399.969696969697"/>
      <point x="227.06060606060603" y="399.969696969697" type="curve" smooth="yes"/>
      <point x="302.969696969697" y="399.969696969697"/>
      <point x="339.2727272727273" y="341.8787878787879"/>
      <point x="339.2727272727273" y="217.4242424242424" type="curve" smooth="yes"/>
      <point x="339.2727272727273" y="80.81818181818181"/>
      <point x="295.8787878787879" y="20.303030303030305"/>
    </contour>
  </outline>
</glyph>
<glyph name="seven" format="2">
  <advance width="428.6060606060606"/>
  <unicode hex="0037"/>
  <outline>
    <contour>
      <point x="142.0909090909091" y="0.0" type="line"/>
      <point x="178.87878787878788" y="0.0" type="line"/>
      <point x="383.3030303030303" y="690.9393939393939" type="line"/>
      <point x="383.3030303030303" y="714.0" type="line"/>
      <point x="49.93939393939393" y="714.0" type="line"/>
      <point x="45.72727272727273" y="562.7878787878788" type="line"/>
      <point x="70.3939393939394" y="562.7878787878788" type="line"/>
      <point x="73.60606060606061" y="620.030303030303" type="line" smooth="yes"/>
      <point x="76.60606060606061" y="667.4848484848485"/>
      <point x="86.24242424242424" y="675.6060606060606"/>
      <point x="119.96969696969698" y="675.6060606060606" type="curve" smooth="yes"/>
      <point x="346.30303030303025" y="675.6060606060606" type="line"/>
    </contour>
  </outline>
</glyph>
<glyph name="eight" format="2">
  <advance width="428.6060606060606"/>
  <unicode hex="0038"/>
  <outline>
    <contour>
      <point x="216.42424242424244" y="-10.0" type="curve" smooth="yes"/>
      <point x="312.3636363636364" y="-10.0"/>
      <point x="383.00000000000006" y="56.06060606060606"/>
      <point x="383.00000000000006" y="173.27272727272725" type="curve" smooth="yes"/>
      <point x="383.00000000000006" y="280.6363636363636"/>
      <point x="334.3636363636364" y="327.9090909090909"/>
      <point x="251.84848484848484" y="375.06060606060606" type="curve"/>
      <point x="321.3636363636364" y="409.48484848484844"/>
      <point x="363.939393939394" y="462.06060606060606"/>
      <point x="363.939393939394" y="556.4242424242424" type="curve" smooth="yes"/>
      <point x="363.939393939394" y="651.060606060606"/>
      <point x="309.8787878787879" y="724.0"/>
      <point x="216.90909090909093" y="724.0" type="curve" smooth="yes"/>
      <point x="117.81818181818181" y="724.0"/>
      <point x="64.60606060606061" y="648.3636363636364"/>
      <point x="64.60606060606061" y="551.1515151515152" type="curve" smooth="yes"/>
      <point x="64.60606060606061" y="466.8787878787879"/>
      <point x="113.9090909090909" y="410.3636363636363"/>
      <point x="184.15151515151516" y="374.09090909090907" type="curve"/>
      <point x="99.24242424242425" y="336.5151515151515"/>
      <point x="46.81818181818181" y="273.42424242424244"/>
      <point x="46.81818181818181" y="171.42424242424244" type="curve" smooth="yes"/>
      <point x="46.81818181818181" y="62.909090909090914"/>
      <point x="109.18181818181817" y="-10.0"/>
    </contour>
    <contour>
      <point x="216.84848484848482" y="20.090909090909093" type="curve" smooth="yes"/>
      <point x="131.15151515151513" y="20.090909090909093"/>
      <point x="86.27272727272728" y="79.54545454545455"/>
      <point x="86.27272727272728" y="171.27272727272728" type="curve" smooth="yes"/>
      <point x="86.27272727272728" y="252.5757575757576"/>
      <point x="119.57575757575758" y="318.03030303030306"/>
      <point x="211.6969696969697" y="357.75757575757575" type="curve"/>
      <point x="308.8484848484848" y="306.2727272727273"/>
      <point x="342.90909090909093" y="254.33333333333334"/>
      <point x="342.90909090909093" y="169.36363636363637" type="curve" smooth="yes"/>
      <point x="342.90909090909093" y="73.18181818181817"/>
      <point x="290.66666666666663" y="20.090909090909093"/>
    </contour>
    <contour>
      <point x="223.87878787878788" y="390.75757575757575" type="curve"/>
      <point x="145.06060606060606" y="430.969696969697"/>
      <point x="104.4848484848485" y="473.1212121212121"/>
      <point x="104.4848484848485" y="558.4242424242424" type="curve" smooth="yes"/>
      <point x="104.4848484848485" y="638.4545454545455"/>
      <point x="146.3030303030303" y="693.909090909091"/>
      <point x="216.4848484848485" y="693.909090909091" type="curve" smooth="yes"/>
      <point x="294.03030303030306" y="693.909090909091"/>
      <point x="325.5454545454545" y="625.0909090909091"/>
      <point x="325.5454545454545" y="556.0" type="curve" smooth="yes"/>
      <point x="325.5454545454545" y="472.3939393939394"/>
      <point x="303.60606060606057" y="431.6969696969697"/>
    </contour>
  </outline>
</glyph>
<glyph name="nine" format="2">
  <advance width="428.6060606060606"/>
  <unicode hex="0039"/>
  <outline>
    <contour>
      <point x="178.42424242424244" y="-12.575757575757576" type="curve"/>
      <point x="309.0" y="-12.575757575757576"/>
      <point x="372.7878787878788" y="102.57575757575756"/>
      <point x="372.7878787878788" y="388.0" type="curve" smooth="yes"/>
      <point x="372.7878787878788" y="633.090909090909"/>
      <point x="296.8787878787879" y="724.0"/>
      <point x="199.90909090909093" y="724.0" type="curve" smooth="yes"/>
      <point x="101.93939393939395" y="724.0"/>
      <point x="48.030303030303024" y="635.8181818181819"/>
      <point x="48.030303030303024" y="484.0" type="curve" smooth="yes"/>
      <point x="48.030303030303024" y="351.21212121212125"/>
      <point x="110.66666666666666" y="284.1515151515151"/>
      <point x="202.45454545454544" y="284.1515151515151" type="curve" smooth="yes"/>
      <point x="274.0" y="284.1515151515151"/>
      <point x="320.1515151515151" y="334.33333333333337"/>
      <point x="332.06060606060606" y="354.8787878787879" type="curve"/>
      <point x="326.2727272727273" y="121.30303030303031"/>
      <point x="282.96969696969694" y="18.575757575757574"/>
      <point x="180.6969696969697" y="18.575757575757574" type="curve" smooth="yes"/>
      <point x="126.06060606060606" y="18.575757575757574"/>
      <point x="98.69696969696969" y="54.787878787878796"/>
      <point x="86.27272727272728" y="88.6969696969697" type="curve"/>
      <point x="77.30303030303031" y="84.84848484848484"/>
      <point x="72.81818181818181" y="75.3030303030303"/>
      <point x="72.81818181818181" y="58.18181818181818" type="curve" smooth="yes"/>
      <point x="72.81818181818181" y="23.696969696969695"/>
      <point x="109.54545454545456" y="-12.575757575757576"/>
    </contour>
    <contour>
      <point x="207.12121212121215" y="314.24242424242425" type="curve" smooth="yes"/>
      <point x="128.57575757575756" y="314.8787878787879"/>
      <point x="88.75757575757576" y="371.39393939393943"/>
      <point x="88.75757575757576" y="488.0" type="curve" smooth="yes"/>
      <point x="88.75757575757576" y="616.4545454545455"/>
      <point x="121.69696969696969" y="693.6969696969696"/>
      <point x="200.75757575757578" y="693.6969696969696" type="curve" smooth="yes"/>
      <point x="282.45454545454544" y="693.6969696969696"/>
      <point x="331.8484848484848" y="600.8787878787879"/>
      <point x="332.4848484848485" y="397.4242424242424" type="curve"/>
      <point x="308.60606060606057" y="356.24242424242425"/>
      <point x="272.1515151515152" y="314.8787878787879"/>
    </contour>
  </outline>
</glyph>
<glyph name="colon" format="2">
  <advance width="168.1818181818182"/>
  <unicode hex="003A"/>
  <outline>
    <contour>
      <point x="84.87878787878786" y="425.54545454545456" type="curve" smooth="yes"/>
      <point x="101.63636363636364" y="425.54545454545456"/>
      <point x="117.75757575757575" y="435.6060606060606"/>
      <point x="117.75757575757575" y="469.2121212121212" type="curve" smooth="yes"/>
      <point x="117.75757575757575" y="502.8181818181818"/>
      <point x="101.63636363636364" y="512.8787878787879"/>
      <point x="84.87878787878786" y="512.8787878787879" type="curve" smooth="yes"/>
      <point x="65.33333333333333" y="512.8787878787879"/>
      <point x="50.42424242424242" y="502.8181818181818"/>
      <point x="50.42424242424242" y="469.2121212121212" type="curve" smooth="yes"/>
      <point x="50.42424242424242" y="435.6060606060606"/>
      <point x="65.33333333333333" y="425.54545454545456"/>
    </contour>
    <contour>
      <point x="84.87878787878786" y="-5.424242424242424" type="curve" smooth="yes"/>
      <point x="101.63636363636364" y="-5.424242424242424"/>
      <point x="117.75757575757575" y="4.848484848484849"/>
      <point x="117.75757575757575" y="38.45454545454545" type="curve" smooth="yes"/>
      <point x="117.75757575757575" y="72.06060606060606"/>
      <point x="101.63636363636364" y="82.33333333333333"/>
      <point x="84.87878787878786" y="82.33333333333333" type="curve" smooth="yes"/>
      <point x="65.33333333333333" y="82.33333333333333"/>
      <point x="50.42424242424242" y="72.06060606060606"/>
      <point x="50.42424242424242" y="38.45454545454545" type="curve" smooth="yes"/>
      <point x="50.42424242424242" y="4.848484848484849"/>
      <point x="65.33333333333333" y="-5.424242424242424"/>
    </contour>
  </outline>
</glyph>
<glyph name="semicolon" format="2">
  <advance width="180.6969696969697"/>
  <unicode hex="003B"/>
  <outline>
    <contour>
      <point x="22.54545454545455" y="-154.0" type="line"/>
      <point x="97.7878787878788" y="-123.57575757575758"/>
      <point x="126.27272727272728" y="-56.72727272727272"/>
      <point x="126.27272727272728" y="5.515151515151516" type="curve" smooth="yes"/>
      <point x="126.27272727272728" y="61.939393939393945"/>
      <point x="102.27272727272727" y="82.33333333333333"/>
      <point x="77.0909090909091" y="82.33333333333333" type="curve" smooth="yes"/>
      <point x="58.18181818181819" y="82.33333333333333"/>
      <point x="43.48484848484848" y="69.42424242424242"/>
      <point x="43.48484848484848" y="50.60606060606061" type="curve" smooth="yes"/>
      <point x="43.48484848484848" y="14.727272727272728"/>
      <point x="89.18181818181817" y="11.0"/>
      <point x="89.18181818181817" y="-26.0" type="curve"/>
      <point x="89.18181818181817" y="-61.21212121212121"/>
      <point x="69.54545454545455" y="-107.24242424242424"/>
      <point x="22.54545454545455" y="-125.45454545454547" type="curve"/>
    </contour>
    <contour>
      <point x="84.87878787878789" y="425.54545454545456" type="curve" smooth="yes"/>
      <point x="102.63636363636363" y="425.54545454545456"/>
      <point x="117.75757575757575" y="435.6060606060606"/>
      <point x="117.75757575757575" y="469.2121212121212" type="curve" smooth="yes"/>
      <point x="117.75757575757575" y="502.8181818181818"/>
      <point x="102.63636363636363" y="512.8787878787879"/>
      <point x="84.87878787878789" y="512.8787878787879" type="curve" smooth="yes"/>
      <point x="65.33333333333331" y="512.8787878787879"/>
      <point x="50.42424242424242" y="502.8181818181818"/>
      <point x="50.42424242424242" y="469.2121212121212" type="curve" smooth="yes"/>
      <point x="50.42424242424242" y="435.6060606060606"/>
      <point x="65.33333333333331" y="425.54545454545456"/>
    </contour>
  </outline>
</glyph>
<glyph name="equal" format="2">
  <advance width="422.6363636363636"/>
  <unicode hex="003D"/>
  <outline>
    <contour>
      <point x="48.515151515151516" y="438.75757575757575" type="line"/>
      <point x="374.1212121212121" y="438.75757575757575" type="line"/>
      <point x="374.1212121212121" y="473.1212121212121" type="line"/>
      <point x="48.515151515151516" y="473.1212121212121" type="line"/>
    </contour>
    <contour>
      <point x="48.515151515151516" y="241.66666666666666" type="line"/>
      <point x="374.1212121212121" y="241.66666666666666" type="line"/>
      <point x="374.1212121212121" y="276.030303030303" type="line"/>
      <point x="48.515151515151516" y="276.030303030303" type="line"/>
    </contour>
  </outline>
</glyph>
<glyph name="greater" format="2">
  <advance width="425.0"/>
  <unicode hex="003E"/>
  <outline>
    <contour>
      <point x="48.515151515151516" y="115.72727272727273" type="line"/>
      <point x="376.4848484848485" y="343.1515151515151" type="line"/>
      <point x="376.4848484848485" y="371.8484848484849" type="line"/>
      <point x="48.515151515151516" y="600.2727272727273" type="line"/>
      <point x="48.515151515151516" y="558.1212121212121" type="line"/>
      <point x="335.72727272727275" y="357.0" type="line"/>
      <point x="48.515151515151516" y="158.0909090909091" type="line"/>
    </contour>
  </outline>
</glyph>
<glyph name="question" format="2">
  <advance width="364.7272727272727"/>
  <unicode hex="003F"/>
  <outline>
    <contour>
      <point x="152.1818181818182" y="175.9090909090909" type="line"/>
      <point x="178.63636363636365" y="175.9090909090909" type="line"/>
      <point x="182.33333333333334" y="323.0" type="line"/>
      <point x="272.8787878787879" y="369.8484848484849"/>
      <point x="318.5151515151515" y="437.57575757575756"/>
      <point x="318.5151515151515" y="550.9393939393939" type="curve" smooth="yes"/>
      <point x="318.5151515151515" y="663.1515151515151"/>
      <point x="260.1818181818182" y="724.0"/>
      <point x="172.3030303030303" y="724.0" type="curve" smooth="yes"/>
      <point x="78.96969696969697" y="724.0"/>
      <point x="37.151515151515156" y="664.5454545454545"/>
      <point x="37.151515151515156" y="612.0" type="curve" smooth="yes"/>
      <point x="37.151515151515156" y="578.4545454545455"/>
      <point x="52.18181818181819" y="565.6060606060606"/>
      <point x="69.60606060606061" y="565.6060606060606" type="curve"/>
      <point x="69.60606060606061" y="638.8181818181819"/>
      <point x="95.33333333333334" y="694.1212121212121"/>
      <point x="172.0909090909091" y="694.1212121212121" type="curve" smooth="yes"/>
      <point x="241.4848484848485" y="694.1212121212121"/>
      <point x="277.3636363636364" y="637.3333333333334"/>
      <point x="277.3636363636364" y="549.5757575757575" type="curve" smooth="yes"/>
      <point x="277.3636363636364" y="454.69696969696975"/>
      <point x="239.6969696969697" y="386.9090909090909"/>
      <point x="147.9090909090909" y="338.9090909090909" type="curve"/>
    </contour>
    <contour>
      <point x="166.0909090909091" y="-5.424242424242424" type="curve" smooth="yes"/>
      <point x="185.63636363636363" y="-5.424242424242424"/>
      <point x="201.75757575757575" y="4.8484848484848495"/>
      <point x="201.75757575757575" y="38.45454545454545" type="curve" smooth="yes"/>
      <point x="201.75757575757575" y="72.06060606060606"/>
      <point x="185.63636363636363" y="82.33333333333333"/>
      <point x="166.0909090909091" y="82.33333333333333" type="curve" smooth="yes"/>
      <point x="148.33333333333334" y="82.33333333333333"/>
      <point x="133.42424242424244" y="72.06060606060606"/>
      <point x="133.42424242424244" y="38.45454545454545" type="curve" smooth="yes"/>
      <point x="133.42424242424244" y="4.8484848484848495"/>
      <point x="148.33333333333334" y="-5.424242424242424"/>
    </contour>
  </outline>
</glyph>
<glyph name="bracketleft" format="2">
  <advance width="246.3636363636364"/>
  <unicode hex="005B"/>
  <outline>
    <contour>
      <point x="75.84848484848484" y="-128.0" type="line"/>
      <point x="217.36363636363637" y="-128.0" type="line"/>
      <point x="217.36363636363637" y="-103.54545454545453" type="line"/>
      <point x="174.6969696969697" y="-103.54545454545453" type="line" smooth="yes"/>
      <point x="127.87878787878789" y="-103.54545454545453"/>
      <point x="116.7878787878788" y="-92.96969696969697"/>
      <point x="116.7878787878788" y="-18.939393939393938" type="curve" smooth="yes"/>
      <point x="116.7878787878788" y="650.939393939394" type="line" smooth="yes"/>
      <point x="116.7878787878788" y="724.9696969696969"/>
      <point x="127.87878787878789" y="735.5454545454545"/>
      <point x="174.6969696969697" y="735.5454545454545" type="curve" smooth="yes"/>
      <point x="217.36363636363637" y="735.5454545454545" type="line"/>
      <point x="217.36363636363637" y="760.0" type="line"/>
      <point x="75.84848484848484" y="760.0" type="line"/>
    </contour>
  </outline>
</glyph>
<glyph name="backslash" format="2">
  <advance width="220.9090909090909"/>
  <unicode hex="005C"/>
  <outline>
    <contour>
      <point x="187.66666666666669" y="-121.0" type="line"/>
      <point x="220.9090909090909" y="-121.0" type="line"/>
      <point x="33.24242424242424" y="760.0" type="line"/>
      <point x="0.0" y="760.0" type="line"/>
    </contour>
  </outline>
</glyph>
<glyph name="bracketright" format="2">
  <advance width="246.3636363636364"/>
  <unicode hex="005D"/>
  <outline>
    <contour>
      <point x="27.636363636363633" y="-128.0" type="line"/>
      <point x="168.93939393939394" y="-128.0" type="line"/>
      <point x="168.93939393939394" y="760.0" type="line"/>
      <point x="27.636363636363633" y="760.0" type="line"/>
      <point x="27.636363636363633" y="735.5454545454545" type="line"/>
      <point x="70.09090909090908" y="735.5454545454545" type="line" smooth="yes"/>
      <point x="117.12121212121211" y="735.5454545454545"/>
      <point x="128.0" y="724.9696969696969"/>
      <point x="128.0" y="650.939393939394" type="curve" smooth="yes"/>
      <point x="128.0" y="-18.939393939393938" type="line" smooth="yes"/>
      <point x="128.0" y="-92.96969696969697"/>
      <point x="117.12121212121211" y="-103.54545454545453"/>
      <point x="70.09090909090908" y="-103.54545454545453" type="curve" smooth="yes"/>
      <point x="27.636363636363633" y="-103.54545454545453" type="line"/>
    </contour>
  </outline>
</glyph>
<glyph name="asciicircum" format="2">
  <advance width="424.0"/>
  <unicode hex="005E"/>
  <outline>
    <contour>
      <point x="37.878787878787875" y="270.1515151515151" type="line"/>
      <point x="74.75757575757575" y="270.1515151515151" type="line"/>
      <point x="211.0" y="656.3030303030303" type="line"/>
      <point x="349.030303030303" y="270.1515151515151" type="line"/>
      <point x="386.1212121212121" y="270.1515151515151" type="line"/>
      <point x="223.63636363636363" y="714.0" type="line"/>
      <point x="198.5757575757576" y="714.0" type="line"/>
    </contour>
  </outline>
</glyph>
<glyph name="underscore" format="2">
  <advance width="350.1818181818182"/>
  <unicode hex="005F"/>
  <outline>
    <contour>
      <point x="-4.787878787878788" y="-115.21212121212122" type="line"/>
      <point x="354.969696969697" y="-115.21212121212122" type="line"/>
      <point x="354.969696969697" y="-83.0" type="line"/>
      <point x="-4.787878787878788" y="-83.0" type="line"/>
    </contour>
  </outline>
</glyph>
<glyph name="braceleft" format="2">
  <advance width="319.72727272727275"/>
  <unicode hex="007B"/>
  <outline>
    <contour>
      <point x="241.6969696969697" y="-131.15151515151516" type="curve" smooth="yes"/>
      <point x="270.54545454545456" y="-131.15151515151516" type="line"/>
      <point x="270.54545454545456" y="-102.54545454545453" type="line"/>
      <point x="252.63636363636363" y="-102.54545454545453" type="line" smooth="yes"/>
      <point x="203.48484848484847" y="-102.54545454545453"/>
      <point x="182.54545454545456" y="-65.54545454545455"/>
      <point x="182.54545454545456" y="14.272727272727273" type="curve" smooth="yes"/>
      <point x="182.54545454545456" y="178.60606060606062" type="line" smooth="yes"/>
      <point x="182.54545454545456" y="259.7878787878788"/>
      <point x="152.1818181818182" y="303.42424242424244"/>
      <point x="101.06060606060606" y="313.8484848484849" type="curve"/>
      <point x="101.06060606060606" y="315.6363636363636" type="line"/>
      <point x="152.1818181818182" y="325.8484848484848"/>
      <point x="182.54545454545456" y="371.06060606060606"/>
      <point x="182.54545454545456" y="452.030303030303" type="curve" smooth="yes"/>
      <point x="182.54545454545456" y="613.5757575757575" type="line" smooth="yes"/>
      <point x="182.54545454545456" y="694.6060606060606"/>
      <point x="203.48484848484847" y="731.3939393939394"/>
      <point x="252.63636363636363" y="731.3939393939394" type="curve" smooth="yes"/>
      <point x="270.54545454545456" y="731.3939393939394" type="line"/>
      <point x="270.54545454545456" y="760.0" type="line"/>
      <point x="240.12121212121212" y="760.0" type="line" smooth="yes"/>
      <point x="175.5151515151515" y="760.0"/>
      <point x="142.1818181818182" y="705.6363636363636"/>
      <point x="142.1818181818182" y="620.1515151515151" type="curve" smooth="yes"/>
      <point x="142.1818181818182" y="455.60606060606057" type="line" smooth="yes"/>
      <point x="142.1818181818182" y="356.4848484848485"/>
      <point x="102.18181818181819" y="334.2727272727273"/>
      <point x="48.39393939393939" y="328.33333333333337" type="curve"/>
      <point x="48.39393939393939" y="300.93939393939394" type="line"/>
      <point x="102.18181818181819" y="294.78787878787875"/>
      <point x="142.1818181818182" y="274.3636363636364"/>
      <point x="142.1818181818182" y="174.8181818181818" type="curve" smooth="yes"/>
      <point x="142.1818181818182" y="9.696969696969697" type="line" smooth="yes"/>
      <point x="142.1818181818182" y="-76.15151515151514"/>
      <point x="174.72727272727272" y="-131.15151515151516"/>
    </contour>
  </outline>
</glyph>
<glyph name="bar" format="2">
  <advance width="427.030303030303"/>
  <unicode hex="007C"/>
  <outline>
    <contour>
      <point x="197.36363636363637" y="-240.0" type="line"/>
      <point x="230.24242424242425" y="-240.0" type="line"/>
      <point x="230.24242424242425" y="760.0" type="line"/>
      <point x="197.36363636363637" y="760.0" type="line"/>
    </contour>
  </outline>
</glyph>
<glyph name="braceright" format="2">
  <advance width="282.69696969696975"/>
  <unicode hex="007D"/>
  <outline>
    <contour>
      <point x="49.18181818181817" y="-131.15151515151516" type="line"/>
      <point x="78.24242424242424" y="-131.15151515151516" type="line" smooth="yes"/>
      <point x="145.21212121212122" y="-131.15151515151516"/>
      <point x="177.54545454545456" y="-76.15151515151514"/>
      <point x="177.54545454545456" y="9.696969696969697" type="curve" smooth="yes"/>
      <point x="177.54545454545456" y="174.8181818181818" type="line" smooth="yes"/>
      <point x="177.54545454545456" y="274.3636363636364"/>
      <point x="217.96969696969694" y="294.78787878787875"/>
      <point x="271.33333333333337" y="300.93939393939394" type="curve"/>
      <point x="271.33333333333337" y="328.33333333333337" type="line"/>
      <point x="217.96969696969694" y="334.2727272727273"/>
      <point x="177.54545454545456" y="356.4848484848485"/>
      <point x="177.54545454545456" y="455.60606060606057" type="curve" smooth="yes"/>
      <point x="177.54545454545456" y="620.1515151515151" type="line" smooth="yes"/>
      <point x="177.54545454545456" y="705.6363636363636"/>
      <point x="144.42424242424244" y="760.0"/>
      <point x="79.81818181818181" y="760.0" type="curve" smooth="yes"/>
      <point x="49.18181818181817" y="760.0" type="line"/>
      <point x="49.18181818181817" y="731.3939393939394" type="line"/>
      <point x="67.3030303030303" y="731.3939393939394" type="line" smooth="yes"/>
      <point x="116.66666666666666" y="731.3939393939394"/>
      <point x="137.1818181818182" y="694.6060606060606"/>
      <point x="137.1818181818182" y="613.5757575757575" type="curve" smooth="yes"/>
      <point x="137.1818181818182" y="452.030303030303" type="line" smooth="yes"/>
      <point x="137.1818181818182" y="371.06060606060606"/>
      <point x="167.75757575757575" y="325.8484848484848"/>
      <point x="219.09090909090907" y="315.6363636363636" type="curve"/>
      <point x="219.09090909090907" y="313.8484848484849" type="line"/>
      <point x="167.33333333333331" y="303.42424242424244"/>
      <point x="137.1818181818182" y="259.7878787878788"/>
      <point x="137.1818181818182" y="178.60606060606062" type="curve" smooth="yes"/>
      <point x="137.1818181818182" y="14.272727272727273" type="line" smooth="yes"/>
      <point x="137.1818181818182" y="-65.54545454545455"/>
      <point x="116.66666666666666" y="-102.54545454545453"/>
      <point x="67.30303030303031" y="-102.54545454545453" type="curve" smooth="yes"/>
      <point x="49.18181818181817" y="-102.54545454545453" type="line"/>
    </contour>
  </outline>
</glyph>
<glyph name="asciitilde" format="2">
  <advance width="425.0"/>
  <unicode hex="007E"/>
  <outline>
    <contour>
      <point x="43.3939393939394" y="275.5151515151515" type="curve"/>
      <point x="76.6969696969697" y="275.5151515151515" type="line"/>
      <point x="86.06060606060606" y="353.3636363636363"/>
      <point x="96.6969696969697" y="404.75757575757575"/>
      <point x="134.0" y="404.75757575757575" type="curve" smooth="yes"/>
      <point x="155.0" y="404.75757575757575"/>
      <point x="168.42424242424244" y="388.9090909090909"/>
      <point x="202.15151515151516" y="342.8787878787879" type="curve" smooth="yes"/>
      <point x="238.1212121212121" y="293.75757575757575"/>
      <point x="259.5454545454545" y="276.3030303030303"/>
      <point x="291.9090909090909" y="276.3030303030303" type="curve" smooth="yes"/>
      <point x="359.75757575757575" y="276.3030303030303"/>
      <point x="374.6666666666667" y="366.72727272727275"/>
      <point x="382.24242424242425" y="436.90909090909093" type="curve"/>
      <point x="348.7272727272727" y="436.90909090909093" type="line"/>
      <point x="339.5757575757576" y="359.06060606060606"/>
      <point x="328.3636363636364" y="309.24242424242425"/>
      <point x="291.2727272727273" y="309.24242424242425" type="curve" smooth="yes"/>
      <point x="270.06060606060606" y="309.24242424242425"/>
      <point x="256.06060606060606" y="323.72727272727275"/>
      <point x="223.1212121212121" y="369.3333333333333" type="curve" smooth="yes"/>
      <point x="189.27272727272728" y="415.6363636363636"/>
      <point x="167.4242424242424" y="437.6969696969697"/>
      <point x="133.36363636363637" y="437.6969696969697" type="curve" smooth="yes"/>
      <point x="64.66666666666667" y="437.6969696969697"/>
      <point x="50.96969696969697" y="346.1212121212121"/>
    </contour>
  </outline>
</glyph>
<glyph name="multiply" format="2">
  <advance width="424.99999999999994"/>
  <unicode hex="00D7"/>
  <outline>
    <contour>
      <point x="79.12121212121212" y="150.21212121212122" type="line"/>
      <point x="218.15151515151516" y="334.4848484848485" type="line"/>
      <point x="357.1818181818182" y="150.21212121212122" type="line"/>
      <point x="384.42424242424244" y="171.8181818181818" type="line"/>
      <point x="239.96969696969697" y="361.93939393939394" type="line"/>
      <point x="384.42424242424244" y="553.4242424242425" type="line"/>
      <point x="357.96969696969694" y="574.2424242424242" type="line"/>
      <point x="218.15151515151516" y="390.3939393939394" type="line"/>
      <point x="78.54545454545455" y="574.4545454545455" type="line"/>
      <point x="51.87878787878788" y="553.6363636363637" type="line"/>
      <point x="196.54545454545453" y="361.93939393939394" type="line"/>
      <point x="51.878787878787875" y="171.6060606060606" type="line"/>
    </contour>
  </outline>
</glyph>
<glyph name="divide" format="2">
  <advance width="425.0"/>
  <unicode hex="00F7"/>
  <outline>
    <contour>
      <point x="48.515151515151516" y="340.8181818181818" type="line"/>
      <point x="376.4848484848485" y="340.8181818181818" type="line"/>
      <point x="376.4848484848485" y="374.969696969697" type="line"/>
      <point x="48.515151515151516" y="374.969696969697" type="line"/>
    </contour>
    <contour>
      <point x="213.0" y="128.1818181818182" type="curve" smooth="yes"/>
      <point x="231.48484848484847" y="128.1818181818182"/>
      <point x="244.969696969697" y="137.45454545454544"/>
      <point x="244.969696969697" y="168.0" type="curve" smooth="yes"/>
      <point x="244.969696969697" y="200.33333333333334"/>
      <point x="231.48484848484847" y="209.3939393939394"/>
      <point x="213.0" y="209.3939393939394" type="curve" smooth="yes"/>
      <point x="193.5151515151515" y="209.3939393939394"/>
      <point x="181.6060606060606" y="200.33333333333334"/>
      <point x="181.6060606060606" y="168.0" type="curve" smooth="yes"/>
      <point x="181.6060606060606" y="137.45454545454544"/>
      <point x="193.5151515151515" y="128.1818181818182"/>
    </contour>
    <contour>
      <point x="213.0" y="508.75757575757575" type="curve" smooth="yes"/>
      <point x="231.48484848484847" y="508.75757575757575"/>
      <point x="244.969696969697" y="518.030303030303"/>
      <point x="244.969696969697" y="548.5757575757575" type="curve" smooth="yes"/>
      <point x="244.969696969697" y="580.9090909090909"/>
      <point x="231.48484848484847" y="589.969696969697"/>
      <point x="213.0" y="589.969696969697" type="curve" smooth="yes"/>
      <point x="193.5151515151515" y="589.969696969697"/>
      <point x="181.6060606060606" y="580.9090909090909"/>
      <point x="181.6060606060606" y="548.5757575757575" type="curve" smooth="yes"/>
      <point x="181.6060606060606" y="518.030303030303"/>
      <point x="193.5151515151515" y="508.75757575757575"/>
    </contour>
  </outline>
</glyph>
<glyph name="udatta-deva" format="2">
  <unicode hex="0951"/>
  <anchor x="-299.0" y="-238.96969696969697" name="_vedic"/>
  <outline>
    <contour>
      <point x="-313.39393939393943" y="706.0" type="line"/>
      <point x="-284.3939393939394" y="706.0" type="line"/>
      <point x="-284.3939393939394" y="911.7878787878788" type="line"/>
      <point x="-313.39393939393943" y="911.7878787878788" type="line"/>
    </contour>
  </outline>
</glyph>
<glyph name="anudatta-deva" format="2">
  <unicode hex="0952"/>
  <anchor x="-299.0" y="348.4848484848485" name="_vedic"/>
  <outline>
    <contour>
      <point x="-452.1818181818182" y="-130.6060606060606" type="line"/>
      <point x="-145.6060606060606" y="-130.6060606060606" type="line"/>
      <point x="-145.6060606060606" y="-103.81818181818181" type="line"/>
      <point x="-452.1818181818182" y="-103.81818181818181" type="line"/>
    </contour>
  </outline>
</glyph>
<glyph name="dbldanda-deva" format="2">
  <advance width="449.81818181818187"/>
  <unicode hex="0965"/>
  <outline>
    <contour>
      <point x="375.00000000000006" y="-12.757575757575758" type="line"/>
      <point x="378.00000000000006" y="-11.757575757575758" type="line"/>
      <point x="378.00000000000006" y="592.8787878787879" type="line"/>
      <point x="351.42424242424244" y="614.1212121212121" type="line"/>
      <point x="348.42424242424244" y="614.1212121212121" type="line"/>
      <point x="348.42424242424244" y="3.4242424242424243" type="line"/>
    </contour>
    <contour>
      <point x="262.3333333333333" y="-12.757575757575758" type="line"/>
      <point x="265.3333333333333" y="-11.757575757575758" type="line"/>
      <point x="265.3333333333333" y="592.8787878787879" type="line"/>
      <point x="238.75757575757575" y="614.1212121212121" type="line"/>
      <point x="235.75757575757575" y="614.1212121212121" type="line"/>
      <point x="235.75757575757575" y="3.4242424242424243" type="line"/>
    </contour>
  </outline>
</glyph>
<glyph name="anji-beng" format="2">
  <advance width="376.06060606060606"/>
  <unicode hex="0980"/>
  <anchor x="208.1818181818182" y="595.2121212121212" name="top"/>
  <outline>
    <contour>
      <point x="305.4848484848485" y="17.333333333333332" type="curve" smooth="yes"/>
      <point x="328.3030303030303" y="17.333333333333332"/>
      <point x="344.1515151515151" y="34.878787878787875"/>
      <point x="344.1515151515151" y="59.84848484848485" type="curve" smooth="yes"/>
      <point x="344.1515151515151" y="86.18181818181817"/>
      <point x="329.03030303030306" y="103.51515151515152"/>
      <point x="307.4848484848485" y="103.51515151515152" type="curve" smooth="yes"/>
      <point x="286.3636363636364" y="103.51515151515152"/>
      <point x="278.3030303030303" y="89.81818181818181"/>
      <point x="276.3030303030303" y="72.06060606060606" type="curve"/>
      <point x="288.21212121212125" y="70.48484848484848" type="line"/>
      <point x="288.21212121212125" y="501.75757575757575" type="line" smooth="yes"/>
      <point x="288.21212121212125" y="572.6060606060605"/>
      <point x="257.8787878787879" y="625.1515151515151"/>
      <point x="193.4848484848485" y="625.1515151515151" type="curve" smooth="yes"/>
      <point x="114.15151515151516" y="625.1515151515151"/>
      <point x="49.666666666666664" y="544.0909090909091"/>
      <point x="49.666666666666664" y="434.45454545454544" type="curve" smooth="yes"/>
      <point x="49.666666666666664" y="340.51515151515156"/>
      <point x="94.54545454545453" y="279.42424242424244"/>
      <point x="155.1818181818182" y="279.42424242424244" type="curve" smooth="yes"/>
      <point x="192.3030303030303" y="279.42424242424244"/>
      <point x="211.4242424242424" y="303.1212121212121"/>
      <point x="211.4242424242424" y="339.45454545454544" type="curve" smooth="yes"/>
      <point x="211.4242424242424" y="371.4848484848485"/>
      <point x="193.87878787878788" y="393.33333333333337"/>
      <point x="166.81818181818184" y="393.33333333333337" type="curve" smooth="yes"/>
      <point x="140.9090909090909" y="393.33333333333337"/>
      <point x="123.42424242424241" y="372.27272727272725"/>
      <point x="123.42424242424241" y="342.51515151515156" type="curve" smooth="yes"/>
      <point x="123.42424242424241" y="324.42424242424244"/>
      <point x="129.57575757575756" y="311.0"/>
      <point x="134.93939393939397" y="303.4242424242424" type="curve"/>
      <point x="155.6969696969697" y="318.4848484848485" type="line"/>
      <point x="149.27272727272728" y="315.2727272727273"/>
      <point x="143.63636363636363" y="314.2727272727273"/>
      <point x="138.0" y="314.2727272727273" type="curve" smooth="yes"/>
      <point x="107.27272727272728" y="314.2727272727273"/>
      <point x="79.24242424242424" y="356.72727272727275"/>
      <point x="79.24242424242424" y="421.8484848484849" type="curve" smooth="yes"/>
      <point x="79.24242424242424" y="523.1212121212121"/>
      <point x="141.15151515151513" y="593.3030303030303"/>
      <point x="202.24242424242425" y="593.3030303030303" type="curve" smooth="yes"/>
      <point x="241.33333333333331" y="593.3030303030303"/>
      <point x="260.06060606060606" y="560.6363636363636"/>
      <point x="260.06060606060606" y="499.5757575757576" type="curve" smooth="yes"/>
      <point x="260.06060606060606" y="74.15151515151516" type="line" smooth="yes"/>
      <point x="260.06060606060606" y="39.21212121212121"/>
      <point x="279.3939393939394" y="17.333333333333332"/>
    </contour>
  </outline>
</glyph>
<glyph name="candrabindu-beng" format="2">
  <unicode hex="0981"/>
  <anchor x="0.0" y="622.0" name="_top"/>
  <outline>
    <contour>
      <point x="-10.848484848484848" y="733.6666666666666" type="curve" smooth="yes"/>
      <point x="53.484848484848484" y="733.6666666666666"/>
      <point x="78.18181818181819" y="786.6363636363636"/>
      <point x="85.81818181818181" y="870.1818181818181" type="curve"/>
      <point x="65.84848484848486" y="876.8181818181819" type="line"/>
      <point x="57.42424242424242" y="802.2424242424242"/>
      <point x="36.484848484848484" y="766.060606060606"/>
      <point x="-10.484848484848488" y="766.060606060606" type="curve" smooth="yes"/>
      <point x="-56.75757575757576" y="766.060606060606"/>
      <point x="-81.33333333333333" y="804.6060606060606"/>
      <point x="-95.9090909090909" y="876.8181818181819" type="curve"/>
      <point x="-115.87878787878789" y="870.1818181818181" type="line"/>
      <point x="-103.0909090909091" y="786.6363636363636"/>
      <point x="-70.03030303030303" y="733.6666666666666"/>
    </contour>
    <contour>
      <point x="-12.060606060606062" y="836.2727272727273" type="curve" smooth="yes"/>
      <point x="7.424242424242425" y="836.2727272727273"/>
      <point x="20.848484848484848" y="852.1212121212121"/>
      <point x="20.848484848484848" y="875.6060606060606" type="curve" smooth="yes"/>
      <point x="20.848484848484848" y="899.3030303030304"/>
      <point x="7.424242424242424" y="914.3636363636364"/>
      <point x="-12.060606060606062" y="914.3636363636364" type="curve" smooth="yes"/>
      <point x="-32.54545454545455" y="914.3636363636364"/>
      <point x="-45.3939393939394" y="899.3030303030303"/>
      <point x="-45.3939393939394" y="875.6060606060606" type="curve" smooth="yes"/>
      <point x="-45.3939393939394" y="852.1212121212121"/>
      <point x="-32.54545454545455" y="836.2727272727273"/>
    </contour>
  </outline>
</glyph>
<glyph name="anusvara-beng" format="2">
  <advance width="286.24242424242425"/>
  <unicode hex="0982"/>
  <anchor x="-142.5757575757576" y="0.0" name="vedic"/>
  <outline>
    <contour>
      <point x="140.0909090909091" y="376.8181818181818" type="curve" smooth="yes"/>
      <point x="193.7878787878788" y="376.8181818181818"/>
      <point x="232.84848484848487" y="430.2424242424242"/>
      <point x="232.84848484848487" y="509.60606060606057" type="curve" smooth="yes"/>
      <point x="232.84848484848487" y="576.4545454545454"/>
      <point x="205.15151515151513" y="626.939393939394"/>
      <point x="147.87878787878788" y="626.939393939394" type="curve" smooth="yes"/>
      <point x="92.24242424242425" y="626.939393939394"/>
      <point x="54.18181818181818" y="572.7272727272727"/>
      <point x="54.18181818181818" y="498.3030303030303" type="curve" smooth="yes"/>
      <point x="54.18181818181818" y="430.45454545454544"/>
      <point x="84.66666666666667" y="376.8181818181818"/>
    </contour>
    <contour>
      <point x="135.1818181818182" y="406.1212121212121" type="curve" smooth="yes"/>
      <point x="104.00000000000001" y="406.1212121212121"/>
      <point x="83.12121212121212" y="438.6666666666667"/>
      <point x="83.12121212121212" y="487.0" type="curve" smooth="yes"/>
      <point x="83.12121212121212" y="543.0909090909091"/>
      <point x="111.3939393939394" y="596.5757575757576"/>
      <point x="152.90909090909093" y="596.5757575757576" type="curve" smooth="yes"/>
      <point x="184.09090909090907" y="596.5757575757576"/>
      <point x="205.6969696969697" y="566.5454545454546"/>
      <point x="205.6969696969697" y="519.9696969696969" type="curve" smooth="yes"/>
      <point x="205.6969696969697" y="461.3030303030303"/>
      <point x="176.06060606060606" y="406.1212121212121"/>
    </contour>
    <contour>
      <point x="238.93939393939394" y="-26.96969696969697" type="curve"/>
      <point x="256.1212121212121" y="-15.90909090909091" type="line"/>
      <point x="215.4848484848485" y="105.2121212121212"/>
      <point x="149.9090909090909" y="210.2121212121212"/>
      <point x="80.48484848484848" y="286.2727272727273" type="curve"/>
      <point x="56.54545454545455" y="248.75757575757575" type="line"/>
      <point x="127.54545454545453" y="186.33333333333334"/>
      <point x="191.5757575757576" y="78.57575757575758"/>
    </contour>
  </outline>
</glyph>
<glyph name="visarga-beng" format="2">
  <advance width="287.030303030303"/>
  <unicode hex="0983"/>
  <anchor x="-142.5757575757576" y="0.0" name="vedic"/>
  <outline>
    <contour>
      <point x="140.0909090909091" y="376.8181818181818" type="curve" smooth="yes"/>
      <point x="193.78787878787878" y="376.8181818181818"/>
      <point x="232.84848484848487" y="430.24242424242425"/>
      <point x="232.84848484848487" y="509.60606060606057" type="curve" smooth="yes"/>
      <point x="232.84848484848487" y="576.4545454545455"/>
      <point x="205.15151515151513" y="626.9393939393939"/>
      <point x="147.87878787878788" y="626.9393939393939" type="curve" smooth="yes"/>
      <point x="92.24242424242425" y="626.9393939393939"/>
      <point x="54.18181818181818" y="572.7272727272727"/>
      <point x="54.18181818181818" y="498.3030303030303" type="curve" smooth="yes"/>
      <point x="54.18181818181818" y="430.45454545454544"/>
      <point x="84.66666666666667" y="376.8181818181818"/>
    </contour>
    <contour>
      <point x="135.1818181818182" y="406.1212121212121" type="curve" smooth="yes"/>
      <point x="104.00000000000001" y="406.1212121212121"/>
      <point x="83.12121212121212" y="438.6666666666667"/>
      <point x="83.12121212121212" y="487.0" type="curve" smooth="yes"/>
      <point x="83.12121212121212" y="543.0909090909091"/>
      <point x="111.3939393939394" y="596.5757575757576"/>
      <point x="152.9090909090909" y="596.5757575757576" type="curve" smooth="yes"/>
      <point x="184.0909090909091" y="596.5757575757576"/>
      <point x="205.69696969696972" y="566.5454545454546"/>
      <point x="205.69696969696972" y="519.969696969697" type="curve" smooth="yes"/>
      <point x="205.69696969696972" y="461.3030303030303"/>
      <point x="176.06060606060603" y="406.1212121212121"/>
    </contour>
    <contour>
      <point x="140.0909090909091" y="5.0606060606060606" type="curve" smooth="yes"/>
      <point x="193.78787878787878" y="5.0606060606060606"/>
      <point x="232.84848484848487" y="58.484848484848484"/>
      <point x="232.84848484848487" y="137.84848484848484" type="curve" smooth="yes"/>
      <point x="232.84848484848487" y="204.69696969696972"/>
      <point x="205.15151515151513" y="255.18181818181816"/>
      <point x="147.87878787878788" y="255.18181818181816" type="curve" smooth="yes"/>
      <point x="92.24242424242425" y="255.18181818181816"/>
      <point x="54.18181818181818" y="200.96969696969697"/>
      <point x="54.18181818181818" y="126.54545454545453" type="curve" smooth="yes"/>
      <point x="54.18181818181818" y="58.696969696969695"/>
      <point x="84.66666666666667" y="5.0606060606060606"/>
    </contour>
    <contour>
      <point x="135.1818181818182" y="34.36363636363637" type="curve" smooth="yes"/>
      <point x="104.00000000000001" y="34.36363636363637"/>
      <point x="83.12121212121212" y="66.9090909090909"/>
      <point x="83.12121212121212" y="115.24242424242425" type="curve" smooth="yes"/>
      <point x="83.12121212121212" y="171.33333333333331"/>
      <point x="111.3939393939394" y="224.8181818181818"/>
      <point x="152.9090909090909" y="224.8181818181818" type="curve" smooth="yes"/>
      <point x="184.0909090909091" y="224.8181818181818"/>
      <point x="205.69696969696972" y="194.78787878787878"/>
      <point x="205.69696969696972" y="148.21212121212122" type="curve" smooth="yes"/>
      <point x="205.69696969696972" y="89.54545454545455"/>
      <point x="176.06060606060603" y="34.36363636363637"/>
    </contour>
  </outline>
</glyph>
<glyph name="aa-beng" format="2">
  <advance width="704.0606060606061"/>
  <unicode hex="0986"/>
  <anchor x="478.8484848484849" y="-10.242424242424242" name="bottom"/>
  <anchor x="480.42424242424244" y="54.24242424242424" name="bottom.rakaar"/>
  <anchor x="480.42424242424244" y="7.272727272727273" name="bottom.rvocalic"/>
  <anchor x="471.1515151515152" y="1.2727272727272734" name="bottom.virama"/>
  <anchor x="632.969696969697" y="595.2121212121212" name="top"/>
  <anchor x="632.969696969697" y="543.5757575757576" name="topright"/>
  <anchor x="352.03030303030306" y="0.0" name="vedic"/>
  <outline>
    <contour>
      <point x="476.3636363636363" y="-5.121212121212121" type="line"/>
      <point x="480.0" y="-4.121212121212121" type="line"/>
      <point x="480.0" y="595.2121212121212" type="line"/>
      <point x="563.2727272727273" y="595.2121212121212" type="line"/>
      <point x="547.8787878787879" y="622.0" type="line"/>
      <point x="-17.12121212121212" y="622.0" type="line"/>
      <point x="-1.9393939393939394" y="595.2121212121212" type="line"/>
      <point x="451.8484848484848" y="595.2121212121212" type="line"/>
      <point x="451.8484848484848" y="58.3030303030303" type="line"/>
      <point x="462.48484848484844" y="51.151515151515156" type="line"/>
      <point x="444.8484848484849" y="119.27272727272727"/>
      <point x="404.06060606060606" y="182.21212121212122"/>
      <point x="357.06060606060606" y="232.45454545454547" type="curve"/>
      <point x="344.6666666666667" y="201.24242424242425" type="line"/>
      <point x="393.3636363636364" y="151.42424242424244"/>
      <point x="433.5757575757575" y="87.33333333333334"/>
      <point x="457.4848484848485" y="11.484848484848484" type="curve"/>
    </contour>
    <contour>
      <point x="252.45454545454547" y="125.57575757575756" type="curve" smooth="yes"/>
      <point x="331.54545454545456" y="125.57575757575756"/>
      <point x="381.96969696969694" y="188.69696969696972"/>
      <point x="383.5454545454545" y="306.93939393939394" type="curve" smooth="yes"/>
      <point x="385.90909090909093" y="436.27272727272725"/>
      <point x="330.54545454545456" y="511.5757575757575"/>
      <point x="246.30303030303028" y="511.57575757575756" type="curve" smooth="yes"/>
      <point x="195.3939393939394" y="511.57575757575756"/>
      <point x="164.0" y="483.66666666666663"/>
      <point x="164.0" y="439.3030303030303" type="curve" smooth="yes"/>
      <point x="164.0" y="401.3636363636364"/>
      <point x="186.1818181818182" y="376.60606060606057"/>
      <point x="218.78787878787878" y="376.60606060606057" type="curve" smooth="yes"/>
      <point x="254.6060606060606" y="376.60606060606057"/>
      <point x="272.8787878787879" y="408.0"/>
      <point x="272.8787878787879" y="447.6666666666667" type="curve" smooth="yes"/>
      <point x="272.8787878787879" y="522.969696969697"/>
      <point x="235.09090909090907" y="573.939393939394"/>
      <point x="209.030303030303" y="599.060606060606" type="curve"/>
      <point x="158.24242424242425" y="598.6363636363636" type="line"/>
      <point x="216.87878787878788" y="566.8484848484849"/>
      <point x="241.36363636363635" y="522.7878787878789"/>
      <point x="247.5757575757576" y="468.57575757575756" type="curve"/>
      <point x="254.84848484848484" y="472.06060606060606"/>
      <point x="262.6969696969697" y="473.48484848484844"/>
      <point x="270.6060606060606" y="473.48484848484844" type="curve" smooth="yes"/>
      <point x="311.42424242424244" y="473.48484848484844"/>
      <point x="358.8181818181818" y="426.93939393939394"/>
      <point x="358.8181818181818" y="320.5151515151515" type="curve" smooth="yes"/>
      <point x="358.8181818181818" y="219.1818181818182"/>
      <point x="318.030303030303" y="165.57575757575756"/>
      <point x="249.51515151515153" y="165.57575757575756" type="curve" smooth="yes"/>
      <point x="160.54545454545453" y="165.57575757575756"/>
      <point x="91.39393939393939" y="259.1212121212121"/>
      <point x="50.93939393939394" y="511.030303030303" type="curve"/>
      <point x="27.90909090909091" y="506.1818181818182" type="line"/>
      <point x="68.93939393939394" y="221.45454545454544"/>
      <point x="151.0" y="125.57575757575756"/>
    </contour>
    <contour>
      <point x="628.3333333333333" y="-13.181818181818182" type="line"/>
      <point x="631.5454545454545" y="-12.181818181818182" type="line"/>
      <point x="631.5454545454545" y="595.2121212121212" type="line"/>
      <point x="721.1818181818182" y="595.2121212121212" type="line"/>
      <point x="705.7878787878788" y="622.0" type="line"/>
      <point x="630.9090909090909" y="622.0" type="line"/>
      <point x="628.2727272727273" y="661.8484848484849" type="line"/>
      <point x="606.6060606060606" y="679.0909090909091" type="line"/>
      <point x="603.3939393939395" y="678.0909090909091" type="line"/>
      <point x="603.3939393939395" y="622.2424242424242" type="line" smooth="yes"/>
      <point x="603.3939393939395" y="606.5454545454545"/>
      <point x="604.8181818181819" y="580.4545454545455"/>
      <point x="606.6666666666666" y="550.9090909090909" type="curve"/>
      <point x="611.4545454545454" y="551.1212121212121" type="line"/>
      <point x="601.2424242424242" y="609.3939393939394"/>
      <point x="572.9090909090909" y="622.0"/>
      <point x="550.4242424242425" y="622.0" type="curve" smooth="yes"/>
      <point x="513.7575757575758" y="622.0" type="line"/>
      <point x="529.1515151515151" y="595.2121212121212" type="line"/>
      <point x="548.5454545454545" y="595.2121212121212" type="line" smooth="yes"/>
      <point x="578.2727272727274" y="595.2121212121212"/>
      <point x="598.1818181818182" y="566.969696969697"/>
      <point x="603.3939393939395" y="505.09090909090907" type="curve"/>
      <point x="603.3939393939395" y="3.0" type="line"/>
    </contour>
  </outline>
</glyph>
<glyph name="i-beng" format="2">
  <advance width="340.45454545454544"/>
  <unicode hex="0987"/>
  <anchor x="258.0" y="77.18181818181817" name="bottom"/>
  <anchor x="364.9090909090909" y="-91.72727272727273" name="bottom.rakaar"/>
  <anchor x="296.7575757575758" y="97.87878787878788" name="bottom.rvocalic"/>
  <anchor x="228.66666666666666" y="90.0" name="bottom.virama"/>
  <anchor x="258.3939393939394" y="624.0909090909091" name="top"/>
  <anchor x="202.42424242424244" y="633.2424242424242" name="topright"/>
  <anchor x="170.12121212121212" y="0.0" name="vedic"/>
  <outline>
    <contour>
      <point x="265.9393939393939" y="616.7272727272727" type="curve"/>
      <point x="289.3939393939394" y="616.7272727272727" type="line"/>
      <point x="284.030303030303" y="728.5454545454545"/>
      <point x="257.4848484848485" y="774.5757575757576"/>
      <point x="190.78787878787878" y="774.5757575757576" type="curve" smooth="yes"/>
      <point x="151.4242424242424" y="774.5757575757576"/>
      <point x="126.84848484848484" y="763.2121212121211"/>
      <point x="82.96969696969697" y="763.2121212121211" type="curve" smooth="yes"/>
      <point x="30.87878787878788" y="763.2121212121211"/>
      <point x="7.454545454545457" y="788.6666666666667"/>
      <point x="7.454545454545457" y="863.1212121212121" type="curve" smooth="yes"/>
      <point x="7.454545454545457" y="874.7575757575758"/>
      <point x="8.454545454545457" y="890.7575757575758"/>
      <point x="9.666666666666664" y="900.9696969696969" type="curve"/>
      <point x="-12.151515151515152" y="903.3939393939394" type="line"/>
      <point x="-13.575757575757574" y="888.9090909090909"/>
      <point x="-14.575757575757578" y="870.8484848484849"/>
      <point x="-14.575757575757578" y="856.6363636363636" type="curve" smooth="yes"/>
      <point x="-14.575757575757578" y="766.3030303030304"/>
      <point x="19.848484848484848" y="730.1212121212121"/>
      <point x="83.60606060606061" y="730.1212121212121" type="curve" smooth="yes"/>
      <point x="132.1818181818182" y="730.1212121212121"/>
      <point x="150.3939393939394" y="741.6969696969697"/>
      <point x="193.48484848484847" y="741.6969696969697" type="curve" smooth="yes"/>
      <point x="249.8181818181818" y="741.6969696969697"/>
      <point x="261.78787878787875" y="695.0909090909091"/>
    </contour>
    <component base="ha-beng" xOffset="1.5757575757575757"/>
  </outline>
</glyph>
<glyph name="ii-beng" format="2">
  <advance width="442.7878787878788"/>
  <unicode hex="0988"/>
  <anchor x="384.030303030303" y="-27.757575757575758" name="bottom"/>
  <anchor x="384.24242424242425" y="70.0" name="bottom.rakaar"/>
  <anchor x="373.3939393939394" y="13.848484848484848" name="bottom.rvocalic"/>
  <anchor x="377.54545454545456" y="0.0" name="bottom.virama"/>
  <anchor x="255.03030303030303" y="624.0909090909091" name="top"/>
  <anchor x="221.39393939393943" y="633.030303030303" name="topright"/>
  <anchor x="221.0" y="0.0" name="vedic"/>
  <outline>
    <contour>
      <point x="364.2727272727273" y="-0.1212121212121211" type="curve"/>
      <point x="386.51515151515156" y="7.9393939393939394" type="line"/>
      <point x="371.09090909090907" y="70.3030303030303"/>
      <point x="357.3636363636364" y="129.51515151515153"/>
      <point x="357.3636363636364" y="220.24242424242422" type="curve" smooth="yes"/>
      <point x="357.3636363636364" y="313.8484848484848"/>
      <point x="374.1515151515152" y="391.27272727272725"/>
      <point x="398.3333333333333" y="440.06060606060606" type="curve"/>
      <point x="359.6666666666667" y="478.060606060606" type="line"/>
      <point x="320.27272727272725" y="450.6363636363637"/>
      <point x="269.0" y="386.1818181818182"/>
      <point x="238.84848484848482" y="297.6969696969697" type="curve"/>
      <point x="245.27272727272728" y="296.1818181818182" type="line"/>
      <point x="247.4848484848485" y="309.969696969697"/>
      <point x="249.27272727272728" y="335.8484848484849"/>
      <point x="249.27272727272728" y="356.8787878787879" type="curve" smooth="yes"/>
      <point x="249.27272727272728" y="456.27272727272725"/>
      <point x="203.8181818181818" y="508.7878787878788"/>
      <point x="126.24242424242425" y="508.7878787878788" type="curve" smooth="yes"/>
      <point x="78.0" y="508.7878787878788"/>
      <point x="51.30303030303031" y="483.6666666666667"/>
      <point x="51.3030303030303" y="441.4848484848485" type="curve" smooth="yes"/>
      <point x="51.3030303030303" y="407.09090909090907"/>
      <point x="70.21212121212122" y="387.6969696969697"/>
      <point x="97.03030303030302" y="387.6969696969697" type="curve" smooth="yes"/>
      <point x="129.2121212121212" y="387.6969696969697"/>
      <point x="147.33333333333334" y="417.75757575757575"/>
      <point x="147.33333333333334" y="458.2121212121212" type="curve" smooth="yes"/>
      <point x="147.33333333333334" y="501.2121212121212"/>
      <point x="123.84848484848484" y="561.3333333333334"/>
      <point x="87.03030303030303" y="599.8484848484849" type="curve"/>
      <point x="39.57575757575758" y="599.8484848484849" type="line"/>
      <point x="78.15151515151514" y="573.969696969697"/>
      <point x="107.12121212121211" y="535.969696969697"/>
      <point x="119.60606060606061" y="482.1818181818182" type="curve"/>
      <point x="101.84848484848484" y="456.27272727272725" type="line"/>
      <point x="116.54545454545455" y="467.3939393939394"/>
      <point x="130.66666666666669" y="473.45454545454544"/>
      <point x="148.36363636363637" y="473.45454545454544" type="curve" smooth="yes"/>
      <point x="194.36363636363637" y="473.45454545454544"/>
      <point x="224.8181818181818" y="428.93939393939394"/>
      <point x="224.8181818181818" y="351.0909090909091" type="curve" smooth="yes"/>
      <point x="224.8181818181818" y="309.4242424242424"/>
      <point x="219.60606060606062" y="270.93939393939394"/>
      <point x="205.60606060606062" y="237.78787878787878" type="curve" smooth="yes"/>
      <point x="190.39393939393943" y="202.0"/>
      <point x="171.54545454545453" y="178.12121212121212"/>
      <point x="142.1818181818182" y="178.12121212121212" type="curve" smooth="yes"/>
      <point x="107.87878787878788" y="178.12121212121212"/>
      <point x="81.87878787878788" y="228.12121212121212"/>
      <point x="66.60606060606061" y="267.09090909090907" type="curve"/>
      <point x="46.42424242424243" y="256.8181818181818" type="line"/>
      <point x="67.81818181818181" y="196.93939393939394"/>
      <point x="99.0" y="141.66666666666669"/>
      <point x="147.15151515151516" y="141.66666666666669" type="curve" smooth="yes"/>
      <point x="199.93939393939394" y="141.66666666666669"/>
      <point x="222.48484848484847" y="191.06060606060606"/>
      <point x="252.24242424242425" y="259.18181818181813" type="curve" smooth="yes"/>
      <point x="278.93939393939394" y="320.6060606060606"/>
      <point x="308.54545454545456" y="386.030303030303"/>
      <point x="370.1515151515151" y="440.54545454545456" type="curve"/>
      <point x="364.1515151515151" y="445.3636363636363" type="line"/>
      <point x="344.5151515151515" y="408.57575757575756"/>
      <point x="328.7878787878788" y="319.72727272727275"/>
      <point x="328.7878787878788" y="233.96969696969697" type="curve" smooth="yes"/>
      <point x="328.7878787878788" y="148.0909090909091"/>
      <point x="343.21212121212125" y="74.45454545454545"/>
    </contour>
    <contour>
      <point x="-1.9393939393939394" y="595.2121212121212" type="line"/>
      <point x="459.90909090909093" y="595.2121212121212" type="line"/>
      <point x="444.72727272727275" y="622.0" type="line"/>
      <point x="-17.12121212121212" y="622.0" type="line"/>
    </contour>
    <contour>
      <point x="342.1212121212121" y="616.7272727272727" type="curve"/>
      <point x="365.3636363636364" y="616.7272727272727" type="line"/>
      <point x="358.7272727272727" y="727.969696969697"/>
      <point x="332.3939393939394" y="776.6363636363636"/>
      <point x="259.0" y="776.6363636363636" type="curve" smooth="yes"/>
      <point x="212.2727272727273" y="776.6363636363636"/>
      <point x="186.5757575757576" y="763.6969696969697"/>
      <point x="140.36363636363637" y="763.6969696969697" type="curve" smooth="yes"/>
      <point x="83.51515151515152" y="763.6969696969697"/>
      <point x="57.30303030303031" y="788.5151515151515"/>
      <point x="57.30303030303031" y="866.7272727272727" type="curve" smooth="yes"/>
      <point x="57.30303030303031" y="876.4545454545455"/>
      <point x="58.09090909090909" y="890.969696969697"/>
      <point x="59.3030303030303" y="901.1818181818181" type="curve"/>
      <point x="37.90909090909091" y="903.6060606060606" type="line"/>
      <point x="36.484848484848484" y="889.5454545454545"/>
      <point x="35.27272727272727" y="872.969696969697"/>
      <point x="35.27272727272727" y="858.3333333333334" type="curve" smooth="yes"/>
      <point x="35.27272727272727" y="766.7878787878789"/>
      <point x="71.96969696969697" y="728.909090909091"/>
      <point x="139.84848484848484" y="728.909090909091" type="curve" smooth="yes"/>
      <point x="189.69696969696972" y="728.909090909091"/>
      <point x="215.7878787878788" y="742.0606060606061"/>
      <point x="266.969696969697" y="742.0606060606061" type="curve" smooth="yes"/>
      <point x="324.0" y="742.0606060606061"/>
      <point x="336.90909090909093" y="694.8787878787879"/>
    </contour>
  </outline>
</glyph>
<glyph name="u-beng" format="2">
  <advance width="444.51515151515156"/>
  <unicode hex="0989"/>
  <anchor x="322.03030303030306" y="38.72727272727273" name="bottom"/>
  <anchor x="357.0909090909091" y="-21.96969696969697" name="bottom.rakaar"/>
  <anchor x="301.7272727272727" y="79.4848484848485" name="bottom.rvocalic"/>
  <anchor x="272.3333333333333" y="26.818181818181817" name="bottom.virama"/>
  <anchor x="247.87878787878788" y="621.7272727272726" name="top"/>
  <anchor x="210.96969696969697" y="631.6666666666666" name="topright"/>
  <anchor x="222.15151515151516" y="0.0" name="vedic"/>
  <anchor x="234.0" y="-22.60606060606061" name="nukta"/>
  <outline>
    <contour>
      <point x="351.3636363636364" y="616.7272727272727" type="curve"/>
      <point x="374.6060606060606" y="616.7272727272727" type="line"/>
      <point x="368.6060606060606" y="727.5454545454545"/>
      <point x="341.0" y="775.7878787878788"/>
      <point x="269.0909090909091" y="775.7878787878788" type="curve" smooth="yes"/>
      <point x="222.78787878787875" y="775.7878787878788"/>
      <point x="197.7272727272727" y="762.8484848484849"/>
      <point x="152.57575757575756" y="762.8484848484849" type="curve" smooth="yes"/>
      <point x="96.36363636363637" y="762.8484848484849"/>
      <point x="70.78787878787878" y="789.5757575757575"/>
      <point x="70.78787878787878" y="862.9090909090909" type="curve" smooth="yes"/>
      <point x="70.78787878787878" y="873.6969696969697"/>
      <point x="71.7878787878788" y="889.6969696969696"/>
      <point x="73.0" y="900.9696969696969" type="curve"/>
      <point x="50.75757575757576" y="903.3939393939394" type="line"/>
      <point x="49.333333333333336" y="888.6969696969697"/>
      <point x="48.333333333333336" y="872.1212121212121"/>
      <point x="48.333333333333336" y="856.2121212121212" type="curve" smooth="yes"/>
      <point x="48.333333333333336" y="766.5757575757576"/>
      <point x="84.81818181818183" y="729.3333333333334"/>
      <point x="152.4848484848485" y="729.3333333333334" type="curve" smooth="yes"/>
      <point x="201.4848484848485" y="729.3333333333334"/>
      <point x="224.81818181818184" y="742.4848484848485"/>
      <point x="275.57575757575756" y="742.4848484848485" type="curve" smooth="yes"/>
      <point x="332.6060606060606" y="742.4848484848485"/>
      <point x="345.93939393939394" y="694.8787878787879"/>
    </contour>
    <component base="dda-beng"/>
  </outline>
</glyph>
<glyph name="uu-beng" format="2">
  <advance width="485.81818181818187"/>
  <unicode hex="098A"/>
  <anchor x="367.7878787878788" y="38.72727272727273" name="bottom"/>
  <anchor x="402.8484848484849" y="-21.757575757575758" name="bottom.rakaar"/>
  <anchor x="346.6969696969697" y="79.27272727272728" name="bottom.rvocalic"/>
  <anchor x="316.8787878787879" y="26.606060606060606" name="bottom.virama"/>
  <anchor x="279.78787878787875" y="621.7272727272727" name="top"/>
  <anchor x="260.0" y="633.030303030303" name="topright"/>
  <anchor x="242.9090909090909" y="0.0" name="vedic"/>
  <outline>
    <contour>
      <point x="303.75757575757575" y="76.78787878787878" type="curve" smooth="yes"/>
      <point x="401.00000000000006" y="76.78787878787878"/>
      <point x="455.5757575757576" y="150.66666666666666"/>
      <point x="455.5757575757576" y="273.8181818181818" type="curve" smooth="yes"/>
      <point x="455.5757575757576" y="358.0"/>
      <point x="427.09090909090907" y="415.3333333333333"/>
      <point x="396.27272727272725" y="448.5151515151515" type="curve"/>
      <point x="368.33333333333337" y="383.30303030303025"/>
      <point x="324.1212121212121" y="328.5757575757576"/>
      <point x="284.60606060606057" y="328.5757575757576" type="curve" smooth="yes"/>
      <point x="263.7272727272727" y="328.5757575757576"/>
      <point x="253.15151515151516" y="344.0909090909091"/>
      <point x="253.15151515151516" y="369.1818181818182" type="curve" smooth="yes"/>
      <point x="253.15151515151516" y="595.2121212121212" type="line"/>
      <point x="502.939393939394" y="595.2121212121212" type="line"/>
      <point x="486.5454545454546" y="622.0" type="line"/>
      <point x="-17.12121212121212" y="622.0" type="line"/>
      <point x="-1.7272727272727275" y="595.2121212121212" type="line"/>
      <point x="225.00000000000003" y="595.2121212121212" type="line"/>
      <point x="225.00000000000003" y="367.969696969697" type="line" smooth="yes"/>
      <point x="225.00000000000003" y="337.75757575757575"/>
      <point x="234.36363636363635" y="320.06060606060606"/>
      <point x="247.84848484848484" y="308.93939393939394" type="curve" smooth="yes"/>
      <point x="260.1212121212121" y="298.24242424242425"/>
      <point x="273.8181818181818" y="294.1818181818182"/>
      <point x="289.72727272727275" y="294.1818181818182" type="curve" smooth="yes"/>
      <point x="330.8484848484849" y="294.1818181818182"/>
      <point x="377.90909090909093" y="333.09090909090907"/>
      <point x="413.8484848484848" y="407.969696969697" type="curve"/>
      <point x="393.54545454545456" y="401.09090909090907" type="line"/>
      <point x="411.5454545454545" y="380.72727272727275"/>
      <point x="428.48484848484844" y="342.6969696969697"/>
      <point x="428.48484848484844" y="280.78787878787875" type="curve" smooth="yes"/>
      <point x="428.48484848484844" y="168.0"/>
      <point x="378.1818181818182" y="114.51515151515152"/>
      <point x="303.81818181818187" y="114.51515151515152" type="curve" smooth="yes"/>
      <point x="199.1212121212121" y="114.51515151515153"/>
      <point x="153.66666666666669" y="284.1212121212121"/>
      <point x="117.18181818181819" y="498.8484848484848" type="curve"/>
      <point x="95.36363636363637" y="493.1515151515151" type="line"/>
      <point x="120.99999999999999" y="325.1212121212121"/>
      <point x="152.93939393939394" y="189.4848484848485"/>
      <point x="221.4848484848485" y="112.45454545454545" type="curve"/>
      <point x="237.8181818181818" y="119.12121212121212" type="line"/>
      <point x="145.84848484848484" y="146.1818181818182"/>
      <point x="83.96969696969697" y="277.4242424242424"/>
      <point x="43.84848484848485" y="498.8484848484848" type="curve"/>
      <point x="22.03030303030303" y="493.1515151515151" type="line"/>
      <point x="68.3030303030303" y="220.87878787878788"/>
      <point x="150.75757575757575" y="76.78787878787878"/>
    </contour>
    <contour>
      <point x="400.12121212121207" y="616.7272727272727" type="curve"/>
      <point x="423.1515151515152" y="616.7272727272727" type="line"/>
      <point x="416.5151515151515" y="727.969696969697"/>
      <point x="367.42424242424244" y="777.4848484848485"/>
      <point x="292.030303030303" y="777.4848484848485" type="curve" smooth="yes"/>
      <point x="246.6969696969697" y="777.4848484848485"/>
      <point x="198.51515151515153" y="762.8484848484849"/>
      <point x="148.06060606060606" y="762.8484848484849" type="curve" smooth="yes"/>
      <point x="91.84848484848484" y="762.8484848484849"/>
      <point x="62.33333333333333" y="789.5757575757575"/>
      <point x="62.33333333333333" y="862.9090909090909" type="curve" smooth="yes"/>
      <point x="62.33333333333333" y="873.6969696969697"/>
      <point x="63.333333333333336" y="889.6969696969696"/>
      <point x="64.54545454545455" y="900.9696969696969" type="curve"/>
      <point x="42.3030303030303" y="903.3939393939394" type="line"/>
      <point x="40.87878787878788" y="888.6969696969697"/>
      <point x="39.87878787878788" y="872.1212121212121"/>
      <point x="39.87878787878788" y="856.2121212121212" type="curve" smooth="yes"/>
      <point x="39.87878787878788" y="766.5757575757575"/>
      <point x="80.3030303030303" y="729.3333333333334"/>
      <point x="147.96969696969697" y="729.3333333333334" type="curve" smooth="yes"/>
      <point x="201.42424242424244" y="729.3333333333334"/>
      <point x="248.0909090909091" y="744.1818181818182"/>
      <point x="298.93939393939394" y="744.1818181818182" type="curve" smooth="yes"/>
      <point x="359.2424242424242" y="744.1818181818182"/>
      <point x="394.48484848484844" y="694.8787878787879"/>
    </contour>
  </outline>
</glyph>
<glyph name="rVocalic-beng" format="2">
  <advance width="493.69696969696963"/>
  <unicode hex="098B"/>
  <anchor x="314.27272727272725" y="-10.242424242424242" name="bottom"/>
  <anchor x="315.8484848484849" y="54.24242424242424" name="bottom.rakaar"/>
  <anchor x="252.63636363636363" y="145.8181818181818" name="bottom.rvocalic"/>
  <anchor x="305.57575757575756" y="1.2727272727272734" name="bottom.virama"/>
  <anchor x="315.8484848484849" y="595.2121212121212" name="top"/>
  <anchor x="317.8484848484849" y="595.2121212121212" name="topright"/>
  <anchor x="246.84848484848482" y="0.0" name="vedic"/>
  <outline>
    <contour>
      <point x="313.7878787878788" y="-5.121212121212121" type="line"/>
      <point x="317.42424242424244" y="-4.121212121212121" type="line"/>
      <point x="317.42424242424244" y="639.2727272727273" type="line"/>
      <point x="292.4848484848485" y="659.0909090909091" type="line"/>
      <point x="289.2727272727273" y="658.0909090909091" type="line"/>
      <point x="289.2727272727273" y="496.4848484848485" type="line"/>
      <point x="296.06060606060606" y="512.8181818181818" type="line"/>
      <point x="206.36363636363635" y="468.96969696969694"/>
      <point x="111.63636363636364" y="402.93939393939394"/>
      <point x="37.303030303030305" y="338.8484848484848" type="curve"/>
      <point x="62.15151515151514" y="293.3030303030303" type="line"/>
      <point x="157.84848484848487" y="246.33333333333331"/>
      <point x="252.84848484848484" y="145.8181818181818"/>
      <point x="294.9090909090909" y="11.484848484848484" type="curve"/>
    </contour>
    <contour>
      <point x="289.2727272727273" y="58.303030303030305" type="line"/>
      <point x="299.9090909090909" y="51.151515151515156" type="line"/>
      <point x="268.4848484848485" y="174.21212121212122"/>
      <point x="160.57575757575756" y="280.3636363636363"/>
      <point x="73.2121212121212" y="328.4848484848485" type="curve"/>
      <point x="72.90909090909092" y="317.42424242424244" type="line"/>
      <point x="140.0909090909091" y="381.48484848484844"/>
      <point x="234.6969696969697" y="441.0909090909091"/>
      <point x="294.9090909090909" y="470.8787878787879" type="curve"/>
      <point x="289.2727272727273" y="484.7878787878788" type="line"/>
    </contour>
    <contour>
      <point x="68.3939393939394" y="470.75757575757575" type="curve" smooth="yes"/>
      <point x="122.45454545454545" y="470.75757575757575"/>
      <point x="182.12121212121212" y="513.2727272727273"/>
      <point x="210.8181818181818" y="587.7575757575758" type="curve"/>
      <point x="193.12121212121212" y="583.8181818181818" type="line"/>
      <point x="213.33333333333337" y="564.1212121212121"/>
      <point x="233.1212121212121" y="527.8181818181819"/>
      <point x="257.7878787878788" y="473.93939393939394" type="curve"/>
      <point x="274.8181818181818" y="482.93939393939394" type="line"/>
      <point x="247.66666666666669" y="555.4848484848485"/>
      <point x="221.8181818181818" y="598.3939393939394"/>
      <point x="194.57575757575756" y="623.7878787878789" type="curve"/>
      <point x="162.93939393939394" y="546.0909090909091"/>
      <point x="114.12121212121212" y="505.09090909090907"/>
      <point x="69.45454545454545" y="505.09090909090907" type="curve" smooth="yes"/>
      <point x="63.606060606060616" y="505.09090909090907"/>
      <point x="55.121212121212125" y="506.5151515151515"/>
      <point x="50.90909090909092" y="508.93939393939394" type="curve"/>
      <point x="71.0909090909091" y="491.75757575757575" type="line"/>
      <point x="81.15151515151516" y="503.8181818181818"/>
      <point x="84.57575757575758" y="513.3030303030303"/>
      <point x="84.57575757575758" y="530.4242424242424" type="curve" smooth="yes"/>
      <point x="84.57575757575758" y="554.3939393939394"/>
      <point x="71.66666666666666" y="573.0909090909091"/>
      <point x="45.69696969696971" y="573.0909090909091" type="curve" smooth="yes"/>
      <point x="20.515151515151516" y="573.0909090909091"/>
      <point x="3.606060606060609" y="554.969696969697"/>
      <point x="3.606060606060609" y="526.5151515151515" type="curve" smooth="yes"/>
      <point x="3.606060606060609" y="490.7272727272727"/>
      <point x="32.27272727272727" y="470.75757575757575"/>
    </contour>
    <contour>
      <point x="417.54545454545456" y="94.87878787878788" type="line"/>
      <point x="421.1818181818182" y="95.87878787878788" type="line"/>
      <point x="421.1818181818182" y="595.2121212121212" type="line"/>
      <point x="510.81818181818176" y="595.2121212121212" type="line"/>
      <point x="495.42424242424244" y="622.0" type="line"/>
      <point x="420.54545454545456" y="622.0" type="line"/>
      <point x="417.9090909090909" y="661.8484848484849" type="line"/>
      <point x="396.2424242424242" y="679.0909090909091" type="line"/>
      <point x="393.030303030303" y="678.0909090909091" type="line"/>
      <point x="393.030303030303" y="158.30303030303028" type="line"/>
      <point x="403.6666666666667" y="151.15151515151516" type="line"/>
      <point x="387.03030303030306" y="214.9090909090909"/>
      <point x="350.6060606060606" y="274.2727272727273"/>
      <point x="307.1818181818182" y="322.1515151515151" type="curve"/>
      <point x="304.969696969697" y="280.81818181818187" type="line"/>
      <point x="345.3939393939394" y="234.36363636363637"/>
      <point x="378.18181818181824" y="177.27272727272728"/>
      <point x="398.66666666666663" y="111.48484848484848" type="curve"/>
    </contour>
  </outline>
</glyph>
<glyph name="lVocalic-beng" format="2">
  <advance width="361.3636363636363"/>
  <unicode hex="098C"/>
  <anchor x="254.4848484848485" y="595.2121212121212" name="top"/>
  <anchor x="180.1818181818182" y="0.0" name="vedic"/>
  <outline>
    <contour>
      <point x="212.90909090909088" y="45.57575757575758" type="line"/>
      <point x="273.09090909090907" y="64.42424242424242"/>
      <point x="335.90909090909093" y="138.9090909090909"/>
      <point x="335.90909090909093" y="268.2424242424242" type="curve" smooth="yes"/>
      <point x="335.90909090909093" y="400.30303030303025"/>
      <point x="270.0909090909091" y="433.39393939393943"/>
      <point x="195.54545454545456" y="459.72727272727275" type="curve" smooth="yes"/>
      <point x="136.27272727272728" y="480.5151515151515"/>
      <point x="83.39393939393939" y="500.45454545454544"/>
      <point x="83.39393939393939" y="591.5757575757575" type="curve" smooth="yes"/>
      <point x="83.39393939393939" y="631.6060606060606"/>
      <point x="93.96969696969697" y="659.3939393939394"/>
      <point x="103.96969696969698" y="684.6060606060606" type="curve"/>
      <point x="81.72727272727272" y="693.8787878787879" type="line"/>
      <point x="67.3030303030303" y="659.2424242424242"/>
      <point x="57.666666666666664" y="622.7575757575758"/>
      <point x="57.666666666666664" y="586.4242424242424" type="curve" smooth="yes"/>
      <point x="57.666666666666664" y="476.4848484848485"/>
      <point x="116.6060606060606" y="449.1515151515151"/>
      <point x="183.39393939393938" y="427.0909090909091" type="curve" smooth="yes"/>
      <point x="251.42424242424244" y="403.8787878787879"/>
      <point x="310.6060606060606" y="381.45454545454544"/>
      <point x="310.6060606060606" y="260.27272727272725" type="curve" smooth="yes"/>
      <point x="310.6060606060606" y="166.63636363636363"/>
      <point x="269.78787878787875" y="100.30303030303031"/>
      <point x="228.7878787878788" y="86.87878787878788" type="curve"/>
      <point x="242.60606060606057" y="78.9090909090909" type="line"/>
      <point x="247.54545454545453" y="200.57575757575756"/>
      <point x="220.72727272727272" y="287.42424242424244"/>
      <point x="141.9090909090909" y="287.42424242424244" type="curve" smooth="yes"/>
      <point x="81.51515151515152" y="287.42424242424244"/>
      <point x="50.75757575757575" y="232.0909090909091"/>
      <point x="50.75757575757575" y="172.78787878787878" type="curve" smooth="yes"/>
      <point x="50.75757575757575" y="103.6969696969697"/>
      <point x="83.45454545454545" y="65.15151515151516"/>
      <point x="119.63636363636364" y="65.15151515151516" type="curve" smooth="yes"/>
      <point x="148.6060606060606" y="65.15151515151516"/>
      <point x="161.0909090909091" y="87.33333333333333"/>
      <point x="161.0909090909091" y="112.87878787878788" type="curve" smooth="yes"/>
      <point x="161.0909090909091" y="139.84848484848484"/>
      <point x="144.3939393939394" y="157.75757575757575"/>
      <point x="122.63636363636363" y="157.75757575757575" type="curve" smooth="yes"/>
      <point x="102.15151515151516" y="157.75757575757575"/>
      <point x="86.81818181818181" y="140.27272727272728"/>
      <point x="87.60606060606061" y="113.84848484848484" type="curve"/>
      <point x="102.12121212121211" y="113.27272727272728" type="line"/>
      <point x="90.27272727272727" y="119.9090909090909"/>
      <point x="78.06060606060606" y="137.54545454545456"/>
      <point x="78.06060606060606" y="175.6969696969697" type="curve" smooth="yes"/>
      <point x="78.06060606060606" y="233.96969696969697"/>
      <point x="110.09090909090908" y="256.5151515151515"/>
      <point x="139.5757575757576" y="256.5151515151515" type="curve" smooth="yes"/>
      <point x="198.57575757575756" y="256.5151515151515"/>
      <point x="213.06060606060606" y="185.21212121212122"/>
      <point x="213.06060606060606" y="102.93939393939394" type="curve" smooth="yes"/>
      <point x="213.06060606060606" y="81.7878787878788"/>
      <point x="212.27272727272728" y="65.57575757575758"/>
      <point x="209.4848484848485" y="48.78787878787878" type="curve"/>
    </contour>
  </outline>
</glyph>
<glyph name="e-beng" format="2">
  <advance width="482.96969696969694"/>
  <unicode hex="098F"/>
  <anchor x="410.1515151515152" y="-14.969696969696969" name="bottom"/>
  <anchor x="410.1515151515152" y="2.212121212121212" name="bottom.rvocalic"/>
  <anchor x="400.0909090909091" y="1.2727272727272734" name="bottom.virama"/>
  <anchor x="345.1818181818182" y="595.2121212121212" name="top"/>
  <anchor x="347.3939393939394" y="595.2121212121212" name="topright"/>
  <anchor x="241.4848484848485" y="0.0" name="vedic"/>
  <outline>
    <contour>
      <point x="407.2424242424243" y="-8.272727272727273" type="line"/>
      <point x="410.8787878787879" y="-7.272727272727273" type="line"/>
      <point x="410.8787878787879" y="537.4242424242424" type="line" smooth="yes"/>
      <point x="410.8787878787879" y="600.6060606060606"/>
      <point x="386.90909090909093" y="630.4242424242425"/>
      <point x="344.72727272727275" y="630.4242424242425" type="curve" smooth="yes"/>
      <point x="262.6969696969697" y="630.4242424242425"/>
      <point x="176.4848484848485" y="495.42424242424244"/>
      <point x="176.4848484848485" y="381.69696969696975" type="curve" smooth="yes"/>
      <point x="176.4848484848485" y="319.09090909090907"/>
      <point x="207.81818181818184" y="294.8484848484848"/>
      <point x="237.27272727272725" y="294.42424242424244" type="curve" smooth="yes"/>
      <point x="273.3636363636364" y="294.0"/>
      <point x="292.42424242424244" y="320.1818181818182"/>
      <point x="292.42424242424244" y="352.57575757575756" type="curve" smooth="yes"/>
      <point x="292.42424242424244" y="387.06060606060606"/>
      <point x="272.2121212121212" y="408.3030303030303"/>
      <point x="244.030303030303" y="408.3030303030303" type="curve" smooth="yes"/>
      <point x="227.45454545454547" y="408.3030303030303"/>
      <point x="211.03030303030303" y="399.5151515151515"/>
      <point x="205.1818181818182" y="378.3030303030303" type="curve"/>
      <point x="213.78787878787878" y="378.8787878787879" type="line"/>
      <point x="213.0" y="492.69696969696975"/>
      <point x="291.8484848484848" y="598.8484848484849"/>
      <point x="345.72727272727275" y="598.8484848484849" type="curve" smooth="yes"/>
      <point x="373.57575757575756" y="598.8484848484849"/>
      <point x="382.7272727272727" y="577.6666666666666"/>
      <point x="382.7272727272727" y="523.3333333333334" type="curve" smooth="yes"/>
      <point x="382.7272727272727" y="173.1818181818182" type="line" smooth="yes"/>
      <point x="382.7272727272727" y="139.45454545454547"/>
      <point x="383.1515151515151" y="94.78787878787878"/>
      <point x="385.5757575757576" y="62.939393939393945" type="curve"/>
      <point x="362.57575757575756" y="116.7878787878788"/>
      <point x="324.72727272727275" y="131.2121212121212"/>
      <point x="290.45454545454544" y="131.2121212121212" type="curve" smooth="yes"/>
      <point x="251.03030303030303" y="131.2121212121212"/>
      <point x="218.57575757575756" y="118.33333333333333"/>
      <point x="170.57575757575756" y="118.33333333333333" type="curve" smooth="yes"/>
      <point x="107.75757575757576" y="118.33333333333333"/>
      <point x="71.9090909090909" y="162.0909090909091"/>
      <point x="71.9090909090909" y="256.1212121212121" type="curve" smooth="yes"/>
      <point x="71.9090909090909" y="295.3939393939394"/>
      <point x="77.6969696969697" y="327.75757575757575"/>
      <point x="83.48484848484848" y="349.75757575757575" type="curve"/>
      <point x="59.81818181818181" y="354.969696969697" type="line"/>
      <point x="52.03030303030303" y="326.90909090909093"/>
      <point x="46.81818181818181" y="286.4848484848485"/>
      <point x="46.81818181818181" y="246.27272727272728" type="curve" smooth="yes"/>
      <point x="46.81818181818181" y="119.39393939393939"/>
      <point x="105.06060606060605" y="80.24242424242425"/>
      <point x="172.12121212121212" y="80.24242424242425" type="curve" smooth="yes"/>
      <point x="225.4848484848485" y="80.24242424242425"/>
      <point x="250.48484848484847" y="93.96969696969697"/>
      <point x="298.4242424242424" y="93.96969696969697" type="curve" smooth="yes"/>
      <point x="335.7575757575758" y="93.96969696969697"/>
      <point x="363.8484848484849" y="78.18181818181819"/>
      <point x="388.42424242424244" y="8.484848484848486" type="curve"/>
    </contour>
  </outline>
</glyph>
<glyph name="ai-beng" format="2">
  <advance width="553.8181818181818"/>
  <unicode hex="0990"/>
  <anchor x="360.4545454545455" y="601.5757575757576" name="top"/>
  <anchor x="335.1818181818182" y="613.030303030303" name="topright"/>
  <anchor x="276.90909090909093" y="0.0" name="vedic"/>
  <anchor x="410.1515151515152" y="-14.969696969696969" name="bottom"/>
  <anchor x="410.1515151515152" y="2.212121212121212" name="bottom.rvocalic"/>
  <anchor x="400.0909090909091" y="1.2727272727272734" name="bottom.virama"/>
  <outline>
    <contour>
      <point x="407.81818181818176" y="348.969696969697" type="line"/>
      <point x="454.8181818181818" y="406.8484848484849"/>
      <point x="490.939393939394" y="472.54545454545456"/>
      <point x="490.939393939394" y="566.2727272727273" type="curve" smooth="yes"/>
      <point x="490.939393939394" y="698.4242424242424"/>
      <point x="416.8484848484849" y="735.3030303030303"/>
      <point x="316.2121212121212" y="749.1515151515152" type="curve" smooth="yes"/>
      <point x="237.15151515151516" y="760.0"/>
      <point x="172.0" y="770.4242424242424"/>
      <point x="172.0" y="865.8787878787879" type="curve" smooth="yes"/>
      <point x="172.0" y="899.8181818181818"/>
      <point x="181.36363636363637" y="928.2424242424242"/>
      <point x="189.57575757575756" y="949.8787878787879" type="curve"/>
      <point x="166.96969696969697" y="958.3636363636364" type="line"/>
      <point x="156.90909090909088" y="933.030303030303"/>
      <point x="146.6969696969697" y="900.6969696969697"/>
      <point x="146.6969696969697" y="860.2727272727273" type="curve" smooth="yes"/>
      <point x="146.6969696969697" y="749.6666666666666"/>
      <point x="214.09090909090912" y="726.2424242424242"/>
      <point x="307.93939393939394" y="715.9696969696969" type="curve" smooth="yes"/>
      <point x="396.21212121212125" y="706.6969696969697"/>
      <point x="464.9090909090909" y="677.9393939393939"/>
      <point x="464.9090909090909" y="564.8787878787879" type="curve" smooth="yes"/>
      <point x="464.9090909090909" y="485.93939393939394"/>
      <point x="439.48484848484844" y="433.42424242424244"/>
      <point x="397.90909090909093" y="382.1818181818182" type="curve"/>
    </contour>
    <component base="e-beng"/>
  </outline>
</glyph>
<glyph name="o-beng" format="2">
  <advance width="518.6060606060606"/>
  <unicode hex="0993"/>
  <anchor x="381.030303030303" y="40.57575757575758" name="bottom"/>
  <anchor x="416.0909090909091" y="-19.909090909090907" name="bottom.rakaar"/>
  <anchor x="360.1515151515152" y="81.12121212121212" name="bottom.rvocalic"/>
  <anchor x="330.54545454545456" y="28.454545454545453" name="bottom.virama"/>
  <anchor x="328.3939393939394" y="595.2121212121212" name="top"/>
  <anchor x="328.030303030303" y="595.2121212121212" name="topright"/>
  <anchor x="258.9090909090909" y="0.0" name="vedic"/>
  <outline>
    <contour>
      <point x="324.42424242424244" y="78.63636363636364" type="curve" smooth="yes"/>
      <point x="414.09090909090907" y="78.63636363636364"/>
      <point x="465.5151515151515" y="142.8181818181818"/>
      <point x="465.5151515151515" y="249.12121212121212" type="curve" smooth="yes"/>
      <point x="465.5151515151515" y="355.54545454545456"/>
      <point x="397.8181818181818" y="409.6969696969697"/>
      <point x="356.6363636363636" y="409.6969696969697" type="curve" smooth="yes"/>
      <point x="332.09090909090907" y="409.6969696969697"/>
      <point x="313.8181818181818" y="392.3636363636364"/>
      <point x="313.8181818181818" y="361.3939393939394" type="curve" smooth="yes"/>
      <point x="313.8181818181818" y="331.21212121212125"/>
      <point x="331.8787878787879" y="311.0909090909091"/>
      <point x="357.8484848484849" y="311.0909090909091" type="curve" smooth="yes"/>
      <point x="399.51515151515156" y="311.0909090909091"/>
      <point x="450.8787878787879" y="388.2727272727273"/>
      <point x="450.8787878787879" y="486.0" type="curve" smooth="yes"/>
      <point x="450.8787878787879" y="570.8484848484848"/>
      <point x="408.6060606060606" y="619.1818181818181"/>
      <point x="340.0" y="619.1818181818181" type="curve" smooth="yes"/>
      <point x="243.78787878787878" y="619.1818181818181"/>
      <point x="165.33333333333331" y="510.8787878787879"/>
      <point x="165.33333333333331" y="420.7878787878788" type="curve" smooth="yes"/>
      <point x="165.33333333333331" y="372.3333333333333"/>
      <point x="188.0909090909091" y="349.78787878787875"/>
      <point x="215.27272727272725" y="349.78787878787875" type="curve" smooth="yes"/>
      <point x="241.8181818181818" y="349.78787878787875"/>
      <point x="259.93939393939394" y="369.2727272727273"/>
      <point x="259.93939393939394" y="403.5151515151515" type="curve" smooth="yes"/>
      <point x="259.93939393939394" y="431.42424242424244"/>
      <point x="244.66666666666666" y="452.90909090909093"/>
      <point x="220.03030303030303" y="452.90909090909093" type="curve" smooth="yes"/>
      <point x="207.18181818181816" y="452.90909090909093"/>
      <point x="192.54545454545453" y="446.3333333333333"/>
      <point x="184.54545454545456" y="421.5151515151515" type="curve"/>
      <point x="203.4242424242424" y="413.45454545454544" type="line"/>
      <point x="207.4242424242424" y="527.7575757575758"/>
      <point x="281.3333333333333" y="590.4545454545454"/>
      <point x="345.6060606060606" y="590.4545454545454" type="curve" smooth="yes"/>
      <point x="396.00000000000006" y="590.4545454545454"/>
      <point x="421.66666666666674" y="551.3636363636364"/>
      <point x="421.66666666666674" y="491.969696969697" type="curve" smooth="yes"/>
      <point x="421.66666666666674" y="438.45454545454544"/>
      <point x="401.8787878787879" y="395.7878787878788"/>
      <point x="373.18181818181813" y="377.3939393939394" type="curve"/>
      <point x="383.24242424242425" y="359.060606060606" type="line"/>
      <point x="408.8787878787879" y="358.27272727272725"/>
      <point x="438.21212121212113" y="315.0909090909091"/>
      <point x="438.21212121212113" y="254.0909090909091" type="curve" smooth="yes"/>
      <point x="438.21212121212113" y="159.36363636363637"/>
      <point x="391.75757575757575" y="116.36363636363636"/>
      <point x="325.8484848484849" y="116.36363636363636" type="curve" smooth="yes"/>
      <point x="204.0606060606061" y="116.36363636363636"/>
      <point x="114.75757575757576" y="246.0909090909091"/>
      <point x="57.90909090909091" y="523.3636363636364" type="curve"/>
      <point x="34.45454545454545" y="517.5151515151515" type="line"/>
      <point x="93.81818181818181" y="203.1818181818182"/>
      <point x="202.03030303030303" y="78.63636363636364"/>
    </contour>
  </outline>
</glyph>
<glyph name="au-beng" format="2">
  <advance width="558.0606060606061"/>
  <unicode hex="0994"/>
  <anchor x="510.0" y="40.57575757575758" name="bottom"/>
  <anchor x="558.0" y="-19.909090909090907" name="bottom.rakaar"/>
  <anchor x="478.90909090909093" y="81.12121212121212" name="bottom.rvocalic"/>
  <anchor x="440.969696969697" y="28.454545454545453" name="bottom.virama"/>
  <anchor x="518.969696969697" y="601.5757575757576" name="top"/>
  <anchor x="472.42424242424244" y="613.030303030303" name="topright"/>
  <anchor x="279.03030303030306" y="0.0" name="vedic"/>
  <outline>
    <contour>
      <point x="412.06060606060606" y="348.969696969697" type="line"/>
      <point x="459.060606060606" y="406.8484848484849"/>
      <point x="495.1818181818182" y="472.54545454545456"/>
      <point x="495.1818181818182" y="566.2727272727273" type="curve" smooth="yes"/>
      <point x="495.1818181818182" y="698.6363636363636"/>
      <point x="421.09090909090907" y="735.3030303030304"/>
      <point x="320.4545454545455" y="749.1515151515152" type="curve" smooth="yes"/>
      <point x="241.39393939393938" y="760.0"/>
      <point x="176.24242424242425" y="770.4242424242424"/>
      <point x="176.24242424242425" y="865.8787878787879" type="curve" smooth="yes"/>
      <point x="176.24242424242425" y="899.8181818181818"/>
      <point x="185.6060606060606" y="928.2424242424242"/>
      <point x="193.8181818181818" y="949.8787878787879" type="curve"/>
      <point x="171.21212121212122" y="958.3636363636364" type="line"/>
      <point x="161.15151515151516" y="933.030303030303"/>
      <point x="150.93939393939394" y="900.6969696969697"/>
      <point x="150.93939393939394" y="860.2727272727273" type="curve" smooth="yes"/>
      <point x="150.93939393939394" y="749.6666666666666"/>
      <point x="218.33333333333331" y="726.2424242424242"/>
      <point x="312.1818181818182" y="715.9696969696969" type="curve" smooth="yes"/>
      <point x="400.45454545454544" y="706.6969696969696"/>
      <point x="469.1515151515151" y="677.9393939393939"/>
      <point x="469.1515151515151" y="564.8787878787879" type="curve" smooth="yes"/>
      <point x="469.1515151515151" y="485.93939393939394"/>
      <point x="443.7272727272727" y="433.42424242424244"/>
      <point x="402.1515151515152" y="382.1818181818182" type="curve"/>
    </contour>
    <component base="o-beng"/>
  </outline>
</glyph>
<glyph name="ka-beng" format="2">
  <advance width="521.6060606060606"/>
  <unicode hex="0995"/>
  <anchor x="305.3030303030303" y="15.030303030303031" name="bottom"/>
  <anchor x="309.60606060606057" y="30.60606060606061" name="bottom.rakaar"/>
  <anchor x="312.45454545454544" y="6.424242424242425" name="bottom.rvocalic"/>
  <anchor x="307.3939393939394" y="26.484848484848484" name="bottom.virama"/>
  <anchor x="151.87878787878788" y="93.75757575757575" name="nukta"/>
  <anchor x="315.06060606060606" y="595.2121212121212" name="top"/>
  <anchor x="310.75757575757575" y="595.2121212121212" name="topright"/>
  <anchor x="260.6969696969697" y="0.0" name="vedic"/>
  <outline>
    <contour>
      <point x="308.81818181818187" y="-5.121212121212121" type="line"/>
      <point x="312.45454545454544" y="-4.121212121212121" type="line"/>
      <point x="312.45454545454544" y="487.72727272727275" type="line"/>
      <point x="300.24242424242425" y="474.54545454545456" type="line"/>
      <point x="302.6666666666667" y="475.54545454545456"/>
      <point x="306.6666666666667" y="476.54545454545456"/>
      <point x="311.24242424242425" y="476.54545454545456" type="curve" smooth="yes"/>
      <point x="377.3333333333333" y="476.54545454545456"/>
      <point x="460.8484848484848" y="408.48484848484844"/>
      <point x="460.8484848484848" y="302.8181818181818" type="curve" smooth="yes"/>
      <point x="460.8484848484848" y="280.5151515151515"/>
      <point x="455.4848484848485" y="271.5151515151515"/>
      <point x="449.4848484848485" y="262.09090909090907" type="curve"/>
      <point x="458.24242424242425" y="264.969696969697" type="line"/>
      <point x="454.60606060606057" y="293.1515151515152"/>
      <point x="437.18181818181813" y="307.78787878787875"/>
      <point x="415.8484848484849" y="307.78787878787875" type="curve" smooth="yes"/>
      <point x="388.5151515151515" y="307.78787878787875"/>
      <point x="373.03030303030306" y="287.24242424242425"/>
      <point x="373.03030303030306" y="258.6969696969697" type="curve" smooth="yes"/>
      <point x="373.03030303030306" y="227.63636363636363"/>
      <point x="392.2424242424243" y="205.3939393939394"/>
      <point x="422.27272727272725" y="205.3939393939394" type="curve" smooth="yes"/>
      <point x="454.1515151515151" y="205.3939393939394"/>
      <point x="485.8787878787879" y="236.54545454545453"/>
      <point x="485.8787878787879" y="301.8181818181818" type="curve" smooth="yes"/>
      <point x="485.8787878787879" y="426.6363636363636"/>
      <point x="390.8181818181818" y="507.2121212121212"/>
      <point x="303.81818181818187" y="515.6363636363636" type="curve"/>
      <point x="312.45454545454544" y="500.7878787878788" type="line"/>
      <point x="312.45454545454544" y="595.2121212121212" type="line"/>
      <point x="538.7272727272727" y="595.2121212121212" type="line"/>
      <point x="522.5454545454545" y="622.0" type="line"/>
      <point x="-17.12121212121212" y="622.0" type="line"/>
      <point x="-1.7272727272727275" y="595.2121212121212" type="line"/>
      <point x="284.3030303030303" y="595.2121212121212" type="line"/>
      <point x="284.3030303030303" y="501.57575757575756" type="line"/>
      <point x="291.0909090909091" y="516.8484848484849" type="line"/>
      <point x="202.1818181818182" y="473.0"/>
      <point x="107.93939393939394" y="406.75757575757575"/>
      <point x="32.33333333333333" y="338.8484848484848" type="curve"/>
      <point x="57.18181818181819" y="293.3030303030303" type="line"/>
      <point x="152.87878787878788" y="246.33333333333334"/>
      <point x="247.87878787878788" y="145.8181818181818"/>
      <point x="289.93939393939394" y="11.484848484848484" type="curve"/>
    </contour>
    <contour>
      <point x="284.3030303030303" y="58.303030303030305" type="line"/>
      <point x="294.93939393939394" y="51.151515151515156" type="line"/>
      <point x="263.5151515151515" y="174.21212121212122"/>
      <point x="155.6060606060606" y="280.3636363636364"/>
      <point x="68.24242424242425" y="328.4848484848485" type="curve"/>
      <point x="67.93939393939394" y="317.42424242424244" type="line"/>
      <point x="136.39393939393938" y="386.0909090909091"/>
      <point x="229.5151515151515" y="443.8484848484849"/>
      <point x="289.93939393939394" y="474.4848484848485" type="curve"/>
      <point x="284.3030303030303" y="489.030303030303" type="line"/>
    </contour>
  </outline>
</glyph>
<glyph name="kha-beng" format="2">
  <advance width="417.6666666666667"/>
  <unicode hex="0996"/>
  <anchor x="337.7878787878788" y="15.030303030303031" name="bottom"/>
  <anchor x="343.57575757575756" y="30.606060606060606" name="bottom.rakaar"/>
  <anchor x="345.1515151515151" y="7.272727272727273" name="bottom.rvocalic"/>
  <anchor x="339.03030303030306" y="26.484848484848484" name="bottom.virama"/>
  <anchor x="342.8181818181818" y="548.1818181818182" name="top"/>
  <anchor x="343.5757575757576" y="563.8181818181819" name="topright"/>
  <anchor x="194.72727272727275" y="0.0" name="vedic"/>
  <outline>
    <contour>
      <point x="341.72727272727275" y="-5.121212121212121" type="line"/>
      <point x="345.1515151515151" y="-4.121212121212121" type="line"/>
      <point x="345.1515151515151" y="595.2121212121212" type="line"/>
      <point x="434.7878787878788" y="595.2121212121212" type="line"/>
      <point x="419.3939393939394" y="622.0" type="line"/>
      <point x="344.5151515151515" y="622.0" type="line"/>
      <point x="341.8787878787879" y="661.8484848484849" type="line"/>
      <point x="320.2121212121212" y="679.0909090909091" type="line"/>
      <point x="317.0" y="678.0909090909091" type="line"/>
      <point x="317.0" y="58.93939393939394" type="line"/>
      <point x="327.0" y="53.909090909090914" type="line"/>
      <point x="295.3636363636364" y="172.93939393939394"/>
      <point x="191.6969696969697" y="277.3939393939394"/>
      <point x="104.72727272727273" y="314.6969696969697" type="curve"/>
      <point x="113.24242424242424" y="303.6363636363636" type="line"/>
      <point x="205.5757575757576" y="323.6363636363636"/>
      <point x="251.72727272727272" y="378.93939393939394"/>
      <point x="251.72727272727272" y="466.6363636363636" type="curve" smooth="yes"/>
      <point x="251.72727272727272" y="548.3333333333333"/>
      <point x="220.9090909090909" y="593.3030303030304"/>
      <point x="193.30303030303028" y="623.7878787878789" type="curve"/>
      <point x="162.93939393939397" y="546.0909090909091"/>
      <point x="114.12121212121211" y="505.09090909090907"/>
      <point x="69.45454545454547" y="505.09090909090907" type="curve" smooth="yes"/>
      <point x="63.60606060606061" y="505.09090909090907"/>
      <point x="55.121212121212125" y="506.5151515151515"/>
      <point x="50.90909090909091" y="508.93939393939394" type="curve"/>
      <point x="71.0909090909091" y="491.75757575757575" type="line"/>
      <point x="81.15151515151514" y="503.8181818181818"/>
      <point x="84.57575757575758" y="513.3030303030303"/>
      <point x="84.57575757575758" y="530.4242424242424" type="curve" smooth="yes"/>
      <point x="84.57575757575758" y="554.3939393939394"/>
      <point x="71.66666666666667" y="573.0909090909091"/>
      <point x="45.696969696969695" y="573.0909090909091" type="curve" smooth="yes"/>
      <point x="20.515151515151516" y="573.0909090909091"/>
      <point x="3.606060606060609" y="554.969696969697"/>
      <point x="3.606060606060609" y="526.5151515151515" type="curve" smooth="yes"/>
      <point x="3.606060606060609" y="490.30303030303025"/>
      <point x="32.27272727272727" y="470.3333333333333"/>
      <point x="68.39393939393939" y="470.3333333333333" type="curve" smooth="yes"/>
      <point x="122.45454545454545" y="470.3333333333333"/>
      <point x="181.69696969696972" y="513.2727272727274"/>
      <point x="210.39393939393938" y="587.7575757575758" type="curve"/>
      <point x="190.0606060606061" y="580.6060606060605" type="line"/>
      <point x="206.84848484848487" y="561.9696969696969"/>
      <point x="223.78787878787878" y="527.1515151515151"/>
      <point x="223.78787878787878" y="474.3939393939394" type="curve" smooth="yes"/>
      <point x="223.78787878787878" y="379.3030303030303"/>
      <point x="151.93939393939394" y="344.4242424242424"/>
      <point x="70.0909090909091" y="334.6969696969697" type="curve"/>
      <point x="84.96969696969697" y="282.06060606060606" type="line"/>
      <point x="182.8181818181818" y="249.30303030303028"/>
      <point x="279.30303030303025" y="147.72727272727272"/>
      <point x="322.2121212121212" y="12.96969696969697" type="curve"/>
    </contour>
  </outline>
</glyph>
<glyph name="ga-beng" format="2">
  <advance width="423.06060606060606"/>
  <unicode hex="0997"/>
  <anchor x="336.6060606060606" y="55.06060606060605" name="bottom"/>
  <anchor x="348.96969696969694" y="-14.03030303030303" name="bottom.rakaar"/>
  <anchor x="350.54545454545456" y="-2.7878787878787876" name="bottom.rvocalic"/>
  <anchor x="341.0" y="5.212121212121212" name="bottom.virama"/>
  <anchor x="348.2121212121212" y="548.1818181818181" name="top"/>
  <anchor x="348.96969696969694" y="563.8181818181819" name="topright"/>
  <anchor x="211.030303030303" y="0.0" name="vedic"/>
  <outline>
    <contour>
      <point x="347.3333333333333" y="-13.181818181818182" type="line"/>
      <point x="350.54545454545456" y="-12.181818181818182" type="line"/>
      <point x="350.54545454545456" y="595.2121212121212" type="line"/>
      <point x="440.1818181818182" y="595.2121212121212" type="line"/>
      <point x="424.78787878787875" y="622.0" type="line"/>
      <point x="349.9090909090909" y="622.0" type="line"/>
      <point x="347.2727272727273" y="661.8484848484849" type="line"/>
      <point x="325.6060606060606" y="679.0909090909091" type="line"/>
      <point x="322.3939393939394" y="678.0909090909091" type="line"/>
      <point x="322.3939393939394" y="557.4242424242424" type="line" smooth="yes"/>
      <point x="322.3939393939394" y="515.6060606060606"/>
      <point x="322.8181818181818" y="476.3939393939394"/>
      <point x="325.45454545454544" y="435.0" type="curve"/>
      <point x="333.24242424242425" y="425.54545454545456" type="line"/>
      <point x="296.4848484848485" y="549.3636363636364"/>
      <point x="236.06060606060606" y="630.5757575757576"/>
      <point x="158.75757575757578" y="630.5757575757576" type="curve" smooth="yes"/>
      <point x="89.03030303030303" y="630.5757575757576"/>
      <point x="37.0" y="564.1818181818181"/>
      <point x="17.545454545454547" y="452.54545454545456" type="curve"/>
      <point x="56.84848484848485" y="430.4848484848485" type="line"/>
      <point x="76.57575757575758" y="453.75757575757575"/>
      <point x="101.0" y="469.39393939393943"/>
      <point x="132.15151515151516" y="469.39393939393943" type="curve" smooth="yes"/>
      <point x="169.81818181818184" y="469.39393939393943"/>
      <point x="189.75757575757575" y="440.5151515151515"/>
      <point x="189.75757575757575" y="402.8484848484848" type="curve" smooth="yes"/>
      <point x="189.75757575757575" y="346.75757575757575"/>
      <point x="159.72727272727272" y="303.8787878787879"/>
      <point x="103.18181818181819" y="264.57575757575756" type="curve"/>
      <point x="128.54545454545456" y="228.42424242424244" type="line"/>
      <point x="182.24242424242425" y="271.45454545454544"/>
      <point x="220.39393939393938" y="322.1515151515151"/>
      <point x="220.39393939393938" y="395.0909090909091" type="curve" smooth="yes"/>
      <point x="220.39393939393938" y="458.93939393939394"/>
      <point x="185.75757575757575" y="499.1212121212121"/>
      <point x="132.63636363636365" y="499.1212121212121" type="curve" smooth="yes"/>
      <point x="99.84848484848484" y="499.1212121212121"/>
      <point x="70.84848484848484" y="484.54545454545456"/>
      <point x="51.12121212121212" y="460.030303030303" type="curve"/>
      <point x="59.96969696969698" y="454.24242424242425" type="line"/>
      <point x="72.18181818181819" y="553.0"/>
      <point x="118.12121212121214" y="597.3939393939394"/>
      <point x="167.15151515151513" y="597.3939393939394" type="curve" smooth="yes"/>
      <point x="226.6060606060606" y="597.3939393939394"/>
      <point x="284.1212121212121" y="524.969696969697"/>
      <point x="328.39393939393943" y="372.969696969697" type="curve"/>
      <point x="322.3939393939394" y="420.78787878787875" type="line"/>
      <point x="322.3939393939394" y="3.0" type="line"/>
    </contour>
  </outline>
</glyph>
<glyph name="gha-beng" format="2">
  <advance width="384.96969696969694"/>
  <unicode hex="0998"/>
  <anchor x="305.3030303030303" y="15.030303030303031" name="bottom"/>
  <anchor x="309.60606060606057" y="30.606060606060606" name="bottom.rakaar"/>
  <anchor x="312.45454545454544" y="6.424242424242425" name="bottom.rvocalic"/>
  <anchor x="307.3939393939394" y="26.484848484848484" name="bottom.virama"/>
  <anchor x="315.06060606060606" y="595.2121212121212" name="top"/>
  <anchor x="310.75757575757575" y="595.2121212121212" name="topright"/>
  <anchor x="192.4848484848485" y="0.0" name="vedic"/>
  <outline>
    <contour>
      <point x="308.8181818181818" y="-5.121212121212121" type="line"/>
      <point x="312.45454545454544" y="-4.121212121212121" type="line"/>
      <point x="312.45454545454544" y="595.2121212121212" type="line"/>
      <point x="402.09090909090907" y="595.2121212121212" type="line"/>
      <point x="386.6969696969697" y="622.0" type="line"/>
      <point x="-17.12121212121212" y="622.0" type="line"/>
      <point x="-1.7272727272727275" y="595.2121212121212" type="line"/>
      <point x="284.3030303030303" y="595.2121212121212" type="line"/>
      <point x="284.3030303030303" y="58.303030303030305" type="line"/>
      <point x="294.93939393939394" y="51.151515151515156" type="line"/>
      <point x="263.5151515151515" y="174.21212121212122"/>
      <point x="155.6060606060606" y="272.4848484848485"/>
      <point x="68.24242424242424" y="307.21212121212125" type="curve"/>
      <point x="70.03030303030303" y="293.96969696969694" type="line"/>
      <point x="127.18181818181819" y="352.0"/>
      <point x="187.75757575757575" y="394.5151515151515"/>
      <point x="235.030303030303" y="427.5151515151515" type="curve"/>
      <point x="217.93939393939394" y="459.75757575757575" type="line"/>
      <point x="196.72727272727275" y="438.1212121212121"/>
      <point x="175.15151515151516" y="425.39393939393943"/>
      <point x="144.9090909090909" y="425.39393939393943" type="curve" smooth="yes"/>
      <point x="108.39393939393939" y="425.39393939393943"/>
      <point x="69.42424242424242" y="448.969696969697"/>
      <point x="69.42424242424242" y="504.09090909090907" type="curve" smooth="yes"/>
      <point x="69.42424242424242" y="568.7878787878789"/>
      <point x="123.84848484848486" y="593.6363636363636"/>
      <point x="165.0909090909091" y="599.6969696969697" type="curve"/>
      <point x="128.66666666666669" y="618.5757575757576" type="line"/>
      <point x="74.57575757575758" y="605.4848484848485"/>
      <point x="34.39393939393939" y="570.1212121212121"/>
      <point x="34.39393939393939" y="504.8484848484849" type="curve" smooth="yes"/>
      <point x="34.39393939393939" y="440.6363636363636"/>
      <point x="82.6060606060606" y="400.69696969696975"/>
      <point x="144.6969696969697" y="399.7878787878788" type="curve"/>
      <point x="144.06060606060606" y="408.7878787878788" type="line"/>
      <point x="105.90909090909092" y="379.9090909090909"/>
      <point x="70.54545454545455" y="349.6060606060606"/>
      <point x="36.39393939393939" y="316.7272727272727" type="curve"/>
      <point x="57.18181818181817" y="272.03030303030306" type="line"/>
      <point x="152.87878787878788" y="238.45454545454547"/>
      <point x="247.87878787878785" y="145.8181818181818"/>
      <point x="289.93939393939394" y="11.484848484848484" type="curve"/>
    </contour>
  </outline>
</glyph>
<glyph name="nga-beng" format="2">
  <advance width="418.57575757575756"/>
  <unicode hex="0999"/>
  <anchor x="283.93939393939394" y="31.87878787878788" name="bottom"/>
  <anchor x="349.969696969697" y="-48.36363636363636" name="bottom.rakaar"/>
  <anchor x="291.8484848484848" y="47.57575757575758" name="bottom.rvocalic"/>
  <anchor x="267.93939393939394" y="0.0" name="bottom.virama"/>
  <anchor x="225.6060606060606" y="595.2121212121212" name="top"/>
  <anchor x="224.06060606060603" y="595.2121212121212" name="topright"/>
  <anchor x="209.1818181818182" y="0.0" name="vedic"/>
  <outline>
    <contour>
      <point x="254.030303030303" y="50.18181818181818" type="curve" smooth="yes"/>
      <point x="344.3636363636364" y="50.18181818181818"/>
      <point x="398.2727272727273" y="120.60606060606061"/>
      <point x="398.2727272727273" y="242.5757575757576" type="curve" smooth="yes"/>
      <point x="398.2727272727273" y="320.0"/>
      <point x="375.0" y="377.9090909090909"/>
      <point x="349.969696969697" y="412.3636363636364" type="curve"/>
      <point x="320.66666666666663" y="344.45454545454544"/>
      <point x="272.8181818181818" y="283.1515151515151"/>
      <point x="229.60606060606062" y="283.1515151515151" type="curve" smooth="yes"/>
      <point x="208.8787878787879" y="283.1515151515151"/>
      <point x="198.09090909090907" y="298.45454545454544"/>
      <point x="198.09090909090907" y="325.1212121212121" type="curve" smooth="yes"/>
      <point x="198.09090909090907" y="489.57575757575756" type="line" smooth="yes"/>
      <point x="198.09090909090907" y="566.5151515151515"/>
      <point x="218.6060606060606" y="602.8484848484848"/>
      <point x="252.3939393939394" y="602.8484848484848" type="curve" smooth="yes"/>
      <point x="279.1212121212121" y="602.8484848484848"/>
      <point x="298.6363636363636" y="577.7575757575758"/>
      <point x="298.6363636363636" y="529.8484848484849" type="curve" smooth="yes"/>
      <point x="298.6363636363636" y="483.7272727272727"/>
      <point x="282.9090909090909" y="446.06060606060606"/>
      <point x="235.6060606060606" y="446.06060606060606" type="curve" smooth="yes"/>
      <point x="169.69696969696972" y="446.06060606060606"/>
      <point x="135.24242424242425" y="501.1515151515151"/>
      <point x="102.81818181818181" y="620.5757575757576" type="curve"/>
      <point x="81.78787878787878" y="611.4545454545455" type="line"/>
      <point x="106.96969696969697" y="514.4848484848485"/>
      <point x="147.12121212121212" y="414.6363636363636"/>
      <point x="236.39393939393938" y="414.6363636363636" type="curve" smooth="yes"/>
      <point x="304.09090909090907" y="414.6363636363636"/>
      <point x="326.1515151515151" y="472.8484848484849"/>
      <point x="326.1515151515152" y="525.1515151515152" type="curve" smooth="yes"/>
      <point x="326.1515151515151" y="584.7878787878788"/>
      <point x="300.8787878787879" y="632.7878787878788"/>
      <point x="251.75757575757575" y="632.7878787878788" type="curve" smooth="yes"/>
      <point x="200.21212121212125" y="632.7878787878788"/>
      <point x="169.93939393939394" y="584.0909090909091"/>
      <point x="169.93939393939394" y="499.96969696969694" type="curve" smooth="yes"/>
      <point x="169.93939393939394" y="323.54545454545456" type="line" smooth="yes"/>
      <point x="169.93939393939394" y="297.0"/>
      <point x="177.84848484848484" y="277.72727272727275"/>
      <point x="190.27272727272725" y="265.3030303030303" type="curve" smooth="yes"/>
      <point x="201.1818181818182" y="254.39393939393938"/>
      <point x="216.0909090909091" y="248.54545454545456"/>
      <point x="232.78787878787878" y="248.54545454545456" type="curve" smooth="yes"/>
      <point x="281.21212121212125" y="248.54545454545456"/>
      <point x="329.90909090909093" y="298.4848484848485"/>
      <point x="362.21212121212125" y="366.42424242424244" type="curve"/>
      <point x="346.030303030303" y="362.78787878787875" type="line"/>
      <point x="359.24242424242425" y="341.3636363636363"/>
      <point x="371.39393939393943" y="301.3333333333333"/>
      <point x="371.39393939393943" y="244.27272727272728" type="curve" smooth="yes"/>
      <point x="371.39393939393943" y="136.21212121212122"/>
      <point x="321.8181818181818" y="88.69696969696969"/>
      <point x="253.18181818181822" y="88.69696969696969" type="curve" smooth="yes"/>
      <point x="126.36363636363636" y="88.69696969696969"/>
      <point x="80.18181818181819" y="243.12121212121212"/>
      <point x="44.84848484848485" y="496.7272727272727" type="curve"/>
      <point x="22.03030303030303" y="492.09090909090907" type="line"/>
      <point x="59.878787878787875" y="185.3939393939394"/>
      <point x="121.27272727272727" y="50.18181818181818"/>
    </contour>
  </outline>
</glyph>
<glyph name="ca-beng" format="2">
  <advance width="358.030303030303"/>
  <unicode hex="099A"/>
  <anchor x="224.06060606060606" y="43.39393939393939" name="bottom"/>
  <anchor x="266.9090909090909" y="0.0" name="bottom.rakaar"/>
  <anchor x="216.45454545454547" y="49.63636363636364" name="bottom.rvocalic"/>
  <anchor x="180.7878787878788" y="35.21212121212121" name="bottom.virama"/>
  <anchor x="98.54545454545453" y="595.2121212121212" name="top"/>
  <anchor x="100.33333333333333" y="595.2121212121212" name="topright"/>
  <anchor x="178.9090909090909" y="0.0" name="vedic"/>
  <outline>
    <contour>
      <point x="151.66666666666669" y="45.96969696969697" type="curve" smooth="yes"/>
      <point x="244.75757575757578" y="45.96969696969697"/>
      <point x="312.8484848484848" y="217.15151515151513"/>
      <point x="312.8484848484849" y="348.0" type="curve" smooth="yes"/>
      <point x="312.8484848484849" y="372.24242424242425"/>
      <point x="294.6666666666667" y="388.6363636363636"/>
      <point x="286.6969696969697" y="393.54545454545456" type="curve"/>
      <point x="216.24242424242425" y="404.9090909090909"/>
      <point x="136.0909090909091" y="463.24242424242425"/>
      <point x="94.30303030303031" y="563.7878787878788" type="curve"/>
      <point x="90.93939393939394" y="529.8181818181818" type="line"/>
      <point x="125.39393939393938" y="430.57575757575756"/>
      <point x="211.45454545454544" y="369.7878787878788"/>
      <point x="290.2121212121212" y="356.21212121212125" type="curve"/>
      <point x="279.0909090909091" y="369.1212121212121" type="line"/>
      <point x="280.1818181818182" y="221.60606060606062"/>
      <point x="213.15151515151513" y="78.81818181818181"/>
      <point x="147.12121212121212" y="78.81818181818181" type="curve" smooth="yes"/>
      <point x="120.39393939393939" y="78.81818181818181"/>
      <point x="100.66666666666666" y="102.27272727272727"/>
      <point x="100.66666666666666" y="140.63636363636365" type="curve" smooth="yes"/>
      <point x="100.66666666666666" y="595.2121212121212" type="line"/>
      <point x="375.1515151515151" y="595.2121212121212" type="line"/>
      <point x="358.96969696969694" y="622.0" type="line"/>
      <point x="-17.12121212121212" y="622.0" type="line"/>
      <point x="-0.7272727272727266" y="595.2121212121212" type="line"/>
      <point x="72.51515151515152" y="595.2121212121212" type="line"/>
      <point x="72.51515151515152" y="139.84848484848487" type="line" smooth="yes"/>
      <point x="72.51515151515152" y="82.24242424242425"/>
      <point x="105.9090909090909" y="45.96969696969697"/>
    </contour>
  </outline>
</glyph>
<glyph name="cha-beng" format="2">
  <advance width="386.3636363636364"/>
  <unicode hex="099B"/>
  <anchor x="232.75757575757575" y="92.75757575757575" name="bottom"/>
  <anchor x="314.66666666666663" y="-99.57575757575758" name="bottom.rakaar"/>
  <anchor x="265.42424242424244" y="93.54545454545453" name="bottom.rvocalic"/>
  <anchor x="212.30303030303028" y="81.72727272727272" name="bottom.virama"/>
  <anchor x="90.0909090909091" y="595.2121212121212" name="top"/>
  <anchor x="91.87878787878788" y="595.2121212121212" name="topright"/>
  <anchor x="193.1818181818182" y="0.0" name="vedic"/>
  <outline>
    <contour>
      <point x="364.3030303030303" y="-47.75757575757576" type="curve"/>
      <point x="379.8484848484849" y="-30.515151515151516" type="line"/>
      <point x="328.8181818181818" y="48.333333333333336"/>
      <point x="242.4545454545455" y="154.72727272727272"/>
      <point x="139.33333333333331" y="199.63636363636365" type="curve"/>
      <point x="132.27272727272728" y="188.66666666666666" type="line"/>
      <point x="151.84848484848482" y="183.8181818181818"/>
      <point x="164.3939393939394" y="182.81818181818184"/>
      <point x="181.66666666666666" y="182.81818181818184" type="curve" smooth="yes"/>
      <point x="265.51515151515156" y="182.81818181818184"/>
      <point x="334.06060606060606" y="241.6060606060606"/>
      <point x="334.06060606060606" y="352.3939393939394" type="curve" smooth="yes"/>
      <point x="334.06060606060606" y="453.24242424242425"/>
      <point x="282.6666666666667" y="504.6060606060606"/>
      <point x="210.12121212121215" y="504.6060606060606" type="curve" smooth="yes"/>
      <point x="156.06060606060606" y="504.6060606060606"/>
      <point x="111.69696969696969" y="530.6969696969697"/>
      <point x="88.84848484848484" y="595.2121212121212" type="curve"/>
      <point x="85.06060606060606" y="573.2727272727273" type="line"/>
      <point x="104.9090909090909" y="508.969696969697"/>
      <point x="146.1818181818182" y="474.6969696969697"/>
      <point x="210.87878787878785" y="472.9090909090909" type="curve"/>
      <point x="200.54545454545456" y="487.57575757575756" type="line"/>
      <point x="200.9090909090909" y="389.6363636363636"/>
      <point x="166.03030303030303" y="312.3030303030303"/>
      <point x="125.7878787878788" y="312.3030303030303" type="curve" smooth="yes"/>
      <point x="104.63636363636364" y="312.3030303030303"/>
      <point x="93.06060606060606" y="327.8787878787879"/>
      <point x="93.06060606060606" y="356.1818181818182" type="curve" smooth="yes"/>
      <point x="93.06060606060606" y="595.2121212121212" type="line"/>
      <point x="403.4848484848485" y="595.2121212121212" type="line"/>
      <point x="387.87878787878793" y="622.0" type="line"/>
      <point x="-17.12121212121212" y="622.0" type="line"/>
      <point x="-1.7272727272727275" y="595.2121212121212" type="line"/>
      <point x="64.9090909090909" y="595.2121212121212" type="line"/>
      <point x="64.9090909090909" y="355.6060606060606" type="line" smooth="yes"/>
      <point x="64.9090909090909" y="309.1212121212121"/>
      <point x="92.24242424242425" y="279.45454545454544"/>
      <point x="129.33333333333334" y="279.45454545454544" type="curve" smooth="yes"/>
      <point x="186.33333333333331" y="279.45454545454544"/>
      <point x="232.6060606060606" y="364.96969696969694"/>
      <point x="235.57575757575756" y="489.06060606060606" type="curve"/>
      <point x="222.33333333333334" y="475.45454545454544" type="line"/>
      <point x="267.0" y="471.3030303030303"/>
      <point x="304.8484848484848" y="443.5151515151515"/>
      <point x="304.8484848484848" y="359.66666666666663" type="curve" smooth="yes"/>
      <point x="304.8484848484848" y="257.0"/>
      <point x="243.54545454545453" y="216.78787878787878"/>
      <point x="173.36363636363635" y="216.78787878787878" type="curve" smooth="yes"/>
      <point x="134.0909090909091" y="216.78787878787878"/>
      <point x="102.81818181818183" y="226.57575757575756"/>
      <point x="80.18181818181817" y="241.78787878787878" type="curve"/>
      <point x="94.66666666666666" y="179.87878787878788" type="line"/>
      <point x="204.45454545454547" y="146.21212121212122"/>
      <point x="288.1818181818182" y="59.272727272727266"/>
    </contour>
  </outline>
</glyph>
<glyph name="ja-beng" format="2">
  <advance width="557.2121212121211"/>
  <unicode hex="099C"/>
  <anchor x="478.3939393939394" y="85.42424242424242" name="bottom"/>
  <anchor x="490.969696969697" y="80.24242424242424" name="bottom.rakaar"/>
  <anchor x="492.3333333333333" y="21.878787878787875" name="bottom.rvocalic"/>
  <anchor x="483.4848484848485" y="10.242424242424242" name="bottom.virama"/>
  <anchor x="304.4545454545455" y="595.2121212121212" name="top"/>
  <anchor x="307.03030303030306" y="595.2121212121212" name="topright"/>
  <anchor x="278.6060606060606" y="0.0" name="vedic"/>
  <outline>
    <contour>
      <point x="246.54545454545453" y="75.12121212121212" type="curve" smooth="yes"/>
      <point x="333.57575757575756" y="75.12121212121212"/>
      <point x="378.1515151515151" y="147.66666666666669"/>
      <point x="378.1515151515151" y="248.78787878787878" type="curve" smooth="yes"/>
      <point x="378.1515151515151" y="310.54545454545456"/>
      <point x="362.24242424242425" y="365.3939393939394"/>
      <point x="324.969696969697" y="415.1818181818182" type="curve"/>
      <point x="296.3030303030303" y="343.57575757575756"/>
      <point x="265.60606060606057" y="317.3939393939394"/>
      <point x="229.75757575757575" y="317.3939393939394" type="curve" smooth="yes"/>
      <point x="195.24242424242425" y="317.3939393939394"/>
      <point x="172.66666666666666" y="348.06060606060606"/>
      <point x="172.66666666666666" y="401.45454545454544" type="curve" smooth="yes"/>
      <point x="172.66666666666666" y="500.1818181818182"/>
      <point x="254.69696969696972" y="572.8484848484849"/>
      <point x="314.4848484848485" y="595.2121212121212" type="curve"/>
      <point x="574.3333333333333" y="595.2121212121212" type="line"/>
      <point x="558.939393939394" y="622.0" type="line"/>
      <point x="-17.12121212121212" y="622.0" type="line"/>
      <point x="-1.7272727272727275" y="595.2121212121212" type="line"/>
      <point x="278.1515151515151" y="595.2121212121212" type="line"/>
      <point x="269.3636363636364" y="605.0606060606061" type="line"/>
      <point x="214.72727272727272" y="580.2424242424242"/>
      <point x="142.45454545454547" y="507.0909090909091"/>
      <point x="142.45454545454547" y="405.42424242424244" type="curve" smooth="yes"/>
      <point x="142.45454545454547" y="325.4545454545455"/>
      <point x="183.06060606060603" y="281.7878787878788"/>
      <point x="234.24242424242425" y="281.7878787878788" type="curve" smooth="yes"/>
      <point x="284.8787878787879" y="281.7878787878788"/>
      <point x="321.0" y="326.93939393939394"/>
      <point x="342.8484848484848" y="379.1515151515151" type="curve"/>
      <point x="322.030303030303" y="372.72727272727275" type="line"/>
      <point x="339.54545454545456" y="340.6969696969697"/>
      <point x="351.69696969696975" y="309.75757575757575"/>
      <point x="351.69696969696975" y="256.2121212121212" type="curve" smooth="yes"/>
      <point x="351.69696969696975" y="162.36363636363635"/>
      <point x="310.96969696969694" y="113.06060606060606"/>
      <point x="244.33333333333331" y="113.06060606060606" type="curve" smooth="yes"/>
      <point x="139.75757575757575" y="113.06060606060606"/>
      <point x="74.33333333333333" y="246.36363636363635"/>
      <point x="51.63636363636364" y="495.45454545454544" type="curve"/>
      <point x="28.393939393939394" y="491.8181818181818" type="line"/>
      <point x="55.87878787878788" y="181.21212121212122"/>
      <point x="138.45454545454547" y="75.12121212121212"/>
    </contour>
    <contour>
      <point x="470.09090909090907" y="10.121212121212121" type="curve"/>
      <point x="492.3333333333333" y="18.18181818181818" type="line"/>
      <point x="476.9090909090909" y="80.54545454545453"/>
      <point x="463.1818181818182" y="139.75757575757575"/>
      <point x="463.1818181818182" y="233.63636363636365" type="curve" smooth="yes"/>
      <point x="463.1818181818182" y="335.90909090909093"/>
      <point x="483.9090909090909" y="401.5151515151515"/>
      <point x="510.9393939393939" y="442.4848484848485" type="curve"/>
      <point x="491.21212121212125" y="477.3939393939394" type="line"/>
      <point x="410.30303030303037" y="481.3939393939394"/>
      <point x="358.6666666666667" y="513.5454545454545"/>
      <point x="325.0909090909091" y="610.4545454545455" type="curve"/>
      <point x="302.54545454545456" y="598.2424242424242" type="line"/>
      <point x="338.54545454545456" y="490.969696969697"/>
      <point x="406.45454545454544" y="448.90909090909093"/>
      <point x="478.6060606060606" y="443.3636363636364" type="curve"/>
      <point x="475.4848484848485" y="455.6060606060606" type="line"/>
      <point x="455.8484848484849" y="418.8181818181818"/>
      <point x="434.60606060606057" y="343.3636363636364"/>
      <point x="434.60606060606057" y="247.36363636363637" type="curve" smooth="yes"/>
      <point x="434.60606060606057" y="158.33333333333331"/>
      <point x="449.030303030303" y="84.6969696969697"/>
    </contour>
  </outline>
</glyph>
<glyph name="jha-beng" format="2">
  <advance width="488.72727272727275"/>
  <unicode hex="099D"/>
  <anchor x="305.3030303030303" y="15.030303030303031" name="bottom"/>
  <anchor x="309.60606060606057" y="30.606060606060606" name="bottom.rakaar"/>
  <anchor x="312.45454545454544" y="6.424242424242425" name="bottom.rvocalic"/>
  <anchor x="307.3939393939394" y="26.484848484848484" name="bottom.virama"/>
  <anchor x="315.060606060606" y="595.2121212121212" name="top"/>
  <anchor x="349.24242424242425" y="595.2121212121212" name="topleft"/>
  <anchor x="310.75757575757575" y="595.2121212121212" name="topright"/>
  <anchor x="243.96969696969694" y="0.0" name="vedic"/>
  <outline>
    <contour>
      <point x="308.81818181818187" y="-5.121212121212121" type="line"/>
      <point x="312.45454545454544" y="-4.121212121212121" type="line"/>
      <point x="312.45454545454544" y="622.0" type="line"/>
      <point x="-17.12121212121212" y="622.0" type="line"/>
      <point x="-1.7272727272727275" y="595.2121212121212" type="line"/>
      <point x="284.3030303030303" y="595.2121212121212" type="line"/>
      <point x="284.3030303030303" y="501.57575757575756" type="line"/>
      <point x="291.0909090909091" y="516.8484848484849" type="line"/>
      <point x="201.39393939393938" y="473.0"/>
      <point x="107.93939393939394" y="406.75757575757575"/>
      <point x="32.33333333333333" y="338.8484848484848" type="curve"/>
      <point x="57.18181818181819" y="293.3030303030303" type="line"/>
      <point x="152.87878787878788" y="246.33333333333334"/>
      <point x="247.87878787878788" y="145.8181818181818"/>
      <point x="289.93939393939394" y="11.484848484848484" type="curve"/>
    </contour>
    <contour>
      <point x="284.3030303030303" y="58.303030303030305" type="line"/>
      <point x="294.93939393939394" y="51.151515151515156" type="line"/>
      <point x="263.5151515151515" y="174.21212121212122"/>
      <point x="155.6060606060606" y="280.3636363636364"/>
      <point x="68.24242424242425" y="328.4848484848485" type="curve"/>
      <point x="67.93939393939394" y="317.42424242424244" type="line"/>
      <point x="136.39393939393938" y="385.3030303030303"/>
      <point x="229.5151515151515" y="443.8484848484849"/>
      <point x="289.93939393939394" y="474.4848484848485" type="curve"/>
      <point x="284.3030303030303" y="489.030303030303" type="line"/>
    </contour>
    <contour>
      <point x="412.57575757575756" y="94.87878787878788" type="line"/>
      <point x="416.2121212121212" y="95.87878787878788" type="line"/>
      <point x="416.2121212121212" y="595.2121212121212" type="line"/>
      <point x="505.8484848484849" y="595.2121212121212" type="line"/>
      <point x="490.45454545454544" y="622.0" type="line"/>
      <point x="415.57575757575756" y="622.0" type="line"/>
      <point x="412.939393939394" y="661.8484848484849" type="line"/>
      <point x="391.2727272727273" y="679.0909090909091" type="line"/>
      <point x="388.0606060606061" y="678.0909090909091" type="line"/>
      <point x="388.0606060606061" y="158.30303030303028" type="line"/>
      <point x="398.6969696969697" y="151.15151515151516" type="line"/>
      <point x="382.06060606060606" y="214.9090909090909"/>
      <point x="345.6363636363637" y="274.2727272727273"/>
      <point x="302.2121212121212" y="322.1515151515151" type="curve"/>
      <point x="300.0" y="280.81818181818187" type="line"/>
      <point x="340.42424242424244" y="234.36363636363637"/>
      <point x="373.21212121212125" y="177.27272727272728"/>
      <point x="393.69696969696975" y="111.48484848484848" type="curve"/>
    </contour>
  </outline>
</glyph>
<glyph name="nya-beng" format="2">
  <advance width="661.3333333333333"/>
  <unicode hex="099E"/>
  <anchor x="403.7272727272727" y="11.878787878787879" name="bottom"/>
  <anchor x="408.030303030303" y="27.454545454545457" name="bottom.rakaar"/>
  <anchor x="410.8787878787879" y="3.2727272727272734" name="bottom.rvocalic"/>
  <anchor x="405.8181818181818" y="23.333333333333332" name="bottom.virama"/>
  <anchor x="355.06060606060606" y="595.2121212121212" name="top"/>
  <anchor x="364.1515151515152" y="595.2121212121212" name="topright"/>
  <anchor x="330.6666666666667" y="0.0" name="vedic"/>
  <outline>
    <contour>
      <point x="525.939393939394" y="85.24242424242424" type="curve" smooth="yes"/>
      <point x="581.0606060606061" y="85.24242424242424"/>
      <point x="607.3939393939394" y="139.63636363636365"/>
      <point x="607.3939393939394" y="214.8181818181818" type="curve" smooth="yes"/>
      <point x="607.3939393939394" y="276.6363636363636"/>
      <point x="586.3030303030303" y="321.3333333333333"/>
      <point x="562.5454545454545" y="345.93939393939394" type="curve"/>
      <point x="566.2424242424242" y="328.57575757575756" type="line"/>
      <point x="586.6666666666666" y="357.42424242424244"/>
      <point x="605.6060606060606" y="406.6969696969697"/>
      <point x="605.6060606060606" y="473.3030303030303" type="curve" smooth="yes"/>
      <point x="605.6060606060606" y="538.7575757575758"/>
      <point x="579.2727272727273" y="595.7272727272727"/>
      <point x="530.9393939393939" y="595.7272727272727" type="curve" smooth="yes"/>
      <point x="458.03030303030306" y="595.7272727272727"/>
      <point x="404.96969696969694" y="449.2121212121212"/>
      <point x="398.96969696969694" y="378.7272727272727" type="curve"/>
      <point x="398.96969696969694" y="299.57575757575756" type="line"/>
      <point x="410.1818181818182" y="187.93939393939394"/>
      <point x="461.0909090909091" y="85.24242424242424"/>
    </contour>
    <contour>
      <point x="523.5151515151515" y="122.9090909090909" type="curve" smooth="yes"/>
      <point x="464.3636363636363" y="122.9090909090909"/>
      <point x="415.1515151515151" y="244.0"/>
      <point x="415.1515151515151" y="333.5454545454545" type="curve" smooth="yes"/>
      <point x="415.1515151515151" y="408.6666666666667"/>
      <point x="468.8181818181818" y="558.9090909090909"/>
      <point x="530.8787878787879" y="558.9090909090909" type="curve" smooth="yes"/>
      <point x="562.2424242424242" y="558.9090909090909"/>
      <point x="579.6666666666666" y="524.1515151515151"/>
      <point x="579.6666666666666" y="478.6363636363636" type="curve" smooth="yes"/>
      <point x="579.6666666666666" y="421.75757575757575"/>
      <point x="561.6060606060606" y="375.93939393939394"/>
      <point x="533.6060606060606" y="352.6363636363636" type="curve"/>
      <point x="555.2727272727273" y="351.09090909090907" type="line"/>
      <point x="540.4848484848484" y="373.6363636363636"/>
      <point x="524.2121212121212" y="380.06060606060606"/>
      <point x="509.7272727272727" y="380.06060606060606" type="curve" smooth="yes"/>
      <point x="486.60606060606057" y="380.06060606060606"/>
      <point x="469.54545454545456" y="363.5151515151515"/>
      <point x="469.54545454545456" y="334.75757575757575" type="curve" smooth="yes"/>
      <point x="469.54545454545456" y="304.1515151515151"/>
      <point x="487.2424242424242" y="289.60606060606057"/>
      <point x="511.1515151515152" y="289.60606060606057" type="curve" smooth="yes"/>
      <point x="530.6969696969697" y="289.60606060606057"/>
      <point x="546.7575757575758" y="300.3030303030303"/>
      <point x="561.3939393939394" y="322.78787878787875" type="curve"/>
      <point x="541.8484848484849" y="331.06060606060606" type="line"/>
      <point x="562.3636363636364" y="310.9090909090909"/>
      <point x="582.7272727272727" y="280.4848484848485"/>
      <point x="582.7272727272727" y="219.78787878787878" type="curve" smooth="yes"/>
      <point x="582.7272727272727" y="156.1212121212121"/>
      <point x="560.7272727272727" y="122.9090909090909"/>
    </contour>
    <component base="e-beng"/>
  </outline>
</glyph>
<glyph name="tta-beng" format="2">
  <advance width="359.21212121212125"/>
  <unicode hex="099F"/>
  <anchor x="226.1818181818182" y="54.42424242424242" name="bottom"/>
  <anchor x="269.030303030303" y="11.03030303030303" name="bottom.rakaar"/>
  <anchor x="218.5757575757576" y="60.66666666666667" name="bottom.rvocalic"/>
  <anchor x="182.90909090909093" y="46.24242424242424" name="bottom.virama"/>
  <anchor x="170.84848484848484" y="634.9090909090909" name="top"/>
  <anchor x="137.87878787878788" y="652.3030303030304" name="topright"/>
  <anchor x="179.60606060606062" y="0.0" name="vedic"/>
  <anchor x="157.87878787878788" y="-40.484848484848484" name="nukta"/>
  <outline>
    <contour>
      <point x="274.1212121212121" y="616.7272727272727" type="curve"/>
      <point x="297.57575757575756" y="616.7272727272727" type="line"/>
      <point x="292.2121212121212" y="728.5454545454545"/>
      <point x="265.6666666666667" y="774.5757575757576"/>
      <point x="198.96969696969697" y="774.5757575757576" type="curve" smooth="yes"/>
      <point x="159.60606060606062" y="774.5757575757576"/>
      <point x="135.03030303030306" y="763.2121212121212"/>
      <point x="91.15151515151514" y="763.2121212121212" type="curve" smooth="yes"/>
      <point x="39.06060606060606" y="763.2121212121212"/>
      <point x="15.636363636363637" y="788.6666666666666"/>
      <point x="15.636363636363637" y="863.1212121212121" type="curve" smooth="yes"/>
      <point x="15.636363636363637" y="874.7575757575758"/>
      <point x="16.636363636363637" y="890.7575757575758"/>
      <point x="17.848484848484848" y="900.9696969696969" type="curve"/>
      <point x="-3.9696969696969653" y="903.3939393939394" type="line"/>
      <point x="-5.3939393939393945" y="888.9090909090909"/>
      <point x="-6.3939393939393945" y="870.8484848484849"/>
      <point x="-6.3939393939393945" y="856.6363636363637" type="curve" smooth="yes"/>
      <point x="-6.3939393939393945" y="766.3030303030304"/>
      <point x="28.03030303030303" y="730.1212121212121"/>
      <point x="91.78787878787878" y="730.1212121212121" type="curve" smooth="yes"/>
      <point x="140.36363636363637" y="730.1212121212121"/>
      <point x="158.57575757575756" y="741.6969696969697"/>
      <point x="201.66666666666666" y="741.6969696969697" type="curve" smooth="yes"/>
      <point x="258.0" y="741.6969696969697"/>
      <point x="269.969696969697" y="695.0909090909091"/>
    </contour>
    <component base="ddha-beng"/>
  </outline>
</glyph>
<glyph name="ttha-beng" format="2">
  <advance width="381.90909090909093"/>
  <unicode hex="09A0"/>
  <anchor x="224.1818181818182" y="3.9393939393939394" name="bottom"/>
  <anchor x="317.1818181818182" y="-23.60606060606061" name="bottom.rakaar"/>
  <anchor x="246.0" y="17.333333333333332" name="bottom.rvocalic"/>
  <anchor x="227.18181818181816" y="0.0" name="bottom.virama"/>
  <anchor x="296.30303030303025" y="555.3030303030303" name="top"/>
  <anchor x="306.5454545454545" y="616.3636363636364" name="topleft"/>
  <anchor x="216.24242424242425" y="595.2121212121212" name="topright"/>
  <anchor x="190.84848484848487" y="0.0" name="vedic"/>
  <outline>
    <contour>
      <point x="195.7878787878788" y="17.606060606060606" type="curve" smooth="yes"/>
      <point x="279.96969696969694" y="17.606060606060606"/>
      <point x="332.3030303030303" y="91.39393939393939"/>
      <point x="332.3030303030303" y="213.0909090909091" type="curve" smooth="yes"/>
      <point x="332.3030303030303" y="340.48484848484844"/>
      <point x="279.8181818181818" y="463.969696969697"/>
      <point x="200.0909090909091" y="595.2121212121212" type="curve"/>
      <point x="399.03030303030306" y="595.2121212121212" type="line"/>
      <point x="383.8484848484849" y="622.0" type="line"/>
      <point x="177.78787878787878" y="622.0" type="line"/>
      <point x="152.5757575757576" y="667.0909090909091"/>
      <point x="122.90909090909092" y="718.5454545454545"/>
      <point x="122.90909090909092" y="771.1515151515151" type="curve" smooth="yes"/>
      <point x="122.90909090909092" y="811.5151515151515"/>
      <point x="140.75757575757578" y="844.030303030303"/>
      <point x="178.12121212121212" y="873.4545454545455" type="curve"/>
      <point x="154.4242424242424" y="901.7878787878788" type="line"/>
      <point x="115.5151515151515" y="872.3939393939394"/>
      <point x="92.57575757575759" y="835.3333333333334"/>
      <point x="92.57575757575759" y="783.0909090909091" type="curve" smooth="yes"/>
      <point x="92.57575757575759" y="728.1818181818182"/>
      <point x="119.84848484848484" y="677.8181818181819"/>
      <point x="150.63636363636365" y="622.0" type="curve"/>
      <point x="-17.12121212121212" y="622.0" type="line"/>
      <point x="-1.7272727272727275" y="595.2121212121212" type="line"/>
      <point x="159.03030303030303" y="595.2121212121212" type="line"/>
      <point x="172.1818181818182" y="564.939393939394"/>
      <point x="181.33333333333334" y="500.3636363636364"/>
      <point x="181.33333333333334" y="454.42424242424244" type="curve" smooth="yes"/>
      <point x="181.33333333333334" y="337.4848484848485"/>
      <point x="146.78787878787878" y="269.0"/>
      <point x="35.12121212121212" y="240.15151515151516" type="curve"/>
      <point x="51.6969696969697" y="87.3939393939394"/>
      <point x="112.24242424242424" y="17.606060606060606"/>
    </contour>
    <contour>
      <point x="194.0909090909091" y="50.24242424242425" type="curve" smooth="yes"/>
      <point x="123.3939393939394" y="50.24242424242425"/>
      <point x="78.0909090909091" y="125.24242424242425"/>
      <point x="71.36363636363636" y="228.5151515151515" type="curve"/>
      <point x="63.72727272727272" y="207.75757575757575" type="line"/>
      <point x="157.24242424242425" y="234.45454545454547"/>
      <point x="208.6969696969697" y="299.60606060606057"/>
      <point x="208.6969696969697" y="428.6969696969697" type="curve" smooth="yes"/>
      <point x="208.6969696969697" y="491.42424242424244"/>
      <point x="195.06060606060603" y="552.4242424242424"/>
      <point x="177.57575757575756" y="603.1212121212121" type="curve"/>
      <point x="173.93939393939394" y="599.969696969697" type="line"/>
      <point x="240.48484848484847" y="483.7878787878788"/>
      <point x="299.1212121212121" y="362.3636363636364"/>
      <point x="299.1212121212121" y="224.15151515151516" type="curve" smooth="yes"/>
      <point x="299.1212121212121" y="97.15151515151516"/>
      <point x="248.30303030303028" y="50.24242424242425"/>
    </contour>
  </outline>
</glyph>
<glyph name="dda-beng" format="2">
  <advance width="444.51515151515156"/>
  <unicode hex="09A1"/>
  <anchor x="292.66666666666663" y="58.42424242424242" name="bottom"/>
  <anchor x="363.6060606060606" y="-21.757575757575758" name="bottom.rakaar"/>
  <anchor x="304.33333333333337" y="76.93939393939394" name="bottom.rvocalic"/>
  <anchor x="278.4242424242424" y="26.606060606060606" name="bottom.virama"/>
  <anchor x="234.0" y="-22.60606060606061" name="nukta"/>
  <anchor x="209.72727272727272" y="595.2121212121212" name="top"/>
  <anchor x="211.72727272727272" y="595.2121212121212" name="topright"/>
  <anchor x="222.15151515151516" y="0.0" name="vedic"/>
  <outline>
    <contour>
      <point x="263.3030303030303" y="76.78787878787878" type="curve" smooth="yes"/>
      <point x="359.6969696969697" y="76.78787878787878"/>
      <point x="414.27272727272725" y="150.66666666666666"/>
      <point x="414.27272727272725" y="273.8181818181818" type="curve" smooth="yes"/>
      <point x="414.27272727272725" y="358.0"/>
      <point x="385.78787878787875" y="415.3333333333333"/>
      <point x="354.969696969697" y="448.5151515151515" type="curve"/>
      <point x="327.030303030303" y="383.30303030303025"/>
      <point x="282.8181818181818" y="328.5757575757576"/>
      <point x="243.3030303030303" y="328.5757575757576" type="curve" smooth="yes"/>
      <point x="222.42424242424244" y="328.5757575757576"/>
      <point x="211.84848484848482" y="344.0909090909091"/>
      <point x="211.84848484848482" y="369.1818181818182" type="curve" smooth="yes"/>
      <point x="211.84848484848482" y="595.2121212121212" type="line"/>
      <point x="461.6363636363637" y="595.2121212121212" type="line"/>
      <point x="445.24242424242425" y="622.0" type="line"/>
      <point x="-17.12121212121212" y="622.0" type="line"/>
      <point x="-1.7272727272727275" y="595.2121212121212" type="line"/>
      <point x="183.6969696969697" y="595.2121212121212" type="line"/>
      <point x="183.6969696969697" y="367.969696969697" type="line" smooth="yes"/>
      <point x="183.6969696969697" y="337.75757575757575"/>
      <point x="193.06060606060606" y="320.06060606060606"/>
      <point x="206.54545454545456" y="308.93939393939394" type="curve" smooth="yes"/>
      <point x="218.8181818181818" y="298.24242424242425"/>
      <point x="232.51515151515153" y="294.1818181818182"/>
      <point x="248.42424242424244" y="294.1818181818182" type="curve" smooth="yes"/>
      <point x="289.54545454545456" y="294.1818181818182"/>
      <point x="336.60606060606057" y="333.09090909090907"/>
      <point x="372.5454545454545" y="407.969696969697" type="curve"/>
      <point x="352.24242424242425" y="401.0909090909091" type="line"/>
      <point x="370.2424242424242" y="380.72727272727275"/>
      <point x="387.1818181818182" y="342.6969696969697"/>
      <point x="387.1818181818182" y="280.78787878787875" type="curve" smooth="yes"/>
      <point x="387.1818181818182" y="168.0"/>
      <point x="336.6666666666667" y="114.51515151515152"/>
      <point x="262.51515151515156" y="114.51515151515152" type="curve" smooth="yes"/>
      <point x="143.30303030303028" y="114.51515151515152"/>
      <point x="82.78787878787878" y="235.54545454545453"/>
      <point x="50.15151515151515" y="505.6969696969697" type="curve"/>
      <point x="27.121212121212118" y="502.060606060606" type="line"/>
      <point x="57.18181818181818" y="208.3030303030303"/>
      <point x="129.51515151515153" y="76.78787878787878"/>
    </contour>
  </outline>
</glyph>
<glyph name="ddha-beng" format="2">
  <advance width="359.21212121212125"/>
  <unicode hex="09A2"/>
  <anchor x="231.6969696969697" y="54.42424242424242" name="bottom"/>
  <anchor x="274.5454545454545" y="11.03030303030303" name="bottom.rakaar"/>
  <anchor x="224.0909090909091" y="60.666666666666664" name="bottom.rvocalic"/>
  <anchor x="188.42424242424244" y="46.24242424242424" name="bottom.virama"/>
  <anchor x="157.87878787878788" y="-40.484848484848484" name="nukta"/>
  <anchor x="106.18181818181817" y="595.2121212121212" name="top"/>
  <anchor x="107.96969696969697" y="595.2121212121212" name="topright"/>
  <anchor x="179.60606060606062" y="0.0" name="vedic"/>
  <outline>
    <contour>
      <point x="151.3030303030303" y="57.0" type="curve" smooth="yes"/>
      <point x="249.21212121212122" y="57.0"/>
      <point x="316.75757575757575" y="219.24242424242422"/>
      <point x="316.75757575757575" y="351.6969696969697" type="curve" smooth="yes"/>
      <point x="316.75757575757575" y="403.6666666666667"/>
      <point x="293.5151515151515" y="434.93939393939394"/>
      <point x="260.5454545454545" y="434.93939393939394" type="curve" smooth="yes"/>
      <point x="226.30303030303028" y="434.93939393939394"/>
      <point x="209.54545454545453" y="406.75757575757575"/>
      <point x="209.54545454545453" y="377.7272727272727" type="curve" smooth="yes"/>
      <point x="209.54545454545453" y="345.54545454545456"/>
      <point x="228.09090909090907" y="322.3636363636364"/>
      <point x="257.3333333333333" y="322.3636363636364" type="curve" smooth="yes"/>
      <point x="274.54545454545456" y="322.3636363636364"/>
      <point x="286.6060606060606" y="332.0"/>
      <point x="294.24242424242425" y="351.93939393939394" type="curve"/>
      <point x="282.42424242424244" y="359.3939393939394" type="line"/>
      <point x="280.0" y="219.63636363636365"/>
      <point x="219.5151515151515" y="89.84848484848484"/>
      <point x="148.12121212121212" y="89.84848484848484" type="curve" smooth="yes"/>
      <point x="118.96969696969698" y="89.84848484848484"/>
      <point x="100.66666666666666" y="113.72727272727273"/>
      <point x="100.66666666666666" y="153.0909090909091" type="curve" smooth="yes"/>
      <point x="100.66666666666666" y="595.2121212121212" type="line"/>
      <point x="376.33333333333337" y="595.2121212121212" type="line"/>
      <point x="360.93939393939394" y="622.0" type="line"/>
      <point x="-17.12121212121212" y="622.0" type="line"/>
      <point x="-0.7272727272727266" y="595.2121212121212" type="line"/>
      <point x="72.51515151515152" y="595.2121212121212" type="line"/>
      <point x="72.51515151515152" y="151.09090909090907" type="line" smooth="yes"/>
      <point x="72.51515151515152" y="92.06060606060606"/>
      <point x="106.9090909090909" y="57.0"/>
    </contour>
  </outline>
</glyph>
<glyph name="nna-beng" format="2">
  <advance width="403.4848484848485"/>
  <unicode hex="09A3"/>
  <anchor x="317.03030303030306" y="55.06060606060605" name="bottom"/>
  <anchor x="329.3939393939394" y="-14.03030303030303" name="bottom.rakaar"/>
  <anchor x="330.96969696969694" y="-2.7878787878787876" name="bottom.rvocalic"/>
  <anchor x="321.42424242424244" y="5.212121212121212" name="bottom.virama"/>
  <anchor x="328.6363636363636" y="548.1818181818181" name="top"/>
  <anchor x="329.3939393939394" y="563.8181818181819" name="topright"/>
  <anchor x="201.24242424242422" y="0.0" name="vedic"/>
  <outline>
    <contour>
      <point x="327.75757575757575" y="-13.181818181818182" type="line"/>
      <point x="330.96969696969694" y="-12.181818181818182" type="line"/>
      <point x="330.96969696969694" y="595.2121212121212" type="line"/>
      <point x="420.6060606060606" y="595.2121212121212" type="line"/>
      <point x="405.2121212121212" y="622.0" type="line"/>
      <point x="330.3333333333333" y="622.0" type="line"/>
      <point x="327.6969696969697" y="661.8484848484849" type="line"/>
      <point x="306.03030303030306" y="679.0909090909091" type="line"/>
      <point x="302.8181818181818" y="678.0909090909091" type="line"/>
      <point x="302.8181818181818" y="525.060606060606" type="line" smooth="yes"/>
      <point x="302.8181818181818" y="483.2424242424242"/>
      <point x="303.24242424242425" y="444.030303030303"/>
      <point x="305.8787878787879" y="405.0" type="curve"/>
      <point x="312.0909090909091" y="402.1212121212121" type="line"/>
      <point x="275.27272727272725" y="566.3939393939394"/>
      <point x="220.7272727272727" y="627.0"/>
      <point x="150.42424242424244" y="627.0" type="curve" smooth="yes"/>
      <point x="87.24242424242425" y="627.0"/>
      <point x="37.03030303030303" y="572.030303030303"/>
      <point x="37.03030303030303" y="479.27272727272725" type="curve" smooth="yes"/>
      <point x="37.03030303030303" y="381.75757575757575"/>
      <point x="91.6969696969697" y="320.9090909090909"/>
      <point x="154.12121212121212" y="320.9090909090909" type="curve" smooth="yes"/>
      <point x="191.93939393939394" y="320.9090909090909"/>
      <point x="214.63636363636363" y="344.6666666666667"/>
      <point x="214.63636363636363" y="381.06060606060606" type="curve" smooth="yes"/>
      <point x="214.63636363636363" y="412.8787878787879"/>
      <point x="196.30303030303028" y="437.2121212121212"/>
      <point x="167.33333333333331" y="437.2121212121212" type="curve" smooth="yes"/>
      <point x="139.78787878787878" y="437.2121212121212"/>
      <point x="121.0909090909091" y="416.09090909090907"/>
      <point x="121.0909090909091" y="385.9090909090909" type="curve" smooth="yes"/>
      <point x="121.0909090909091" y="367.1818181818182"/>
      <point x="129.03030303030303" y="351.75757575757575"/>
      <point x="138.75757575757575" y="345.9090909090909" type="curve"/>
      <point x="154.63636363636363" y="358.72727272727275" type="line"/>
      <point x="148.78787878787878" y="356.72727272727275"/>
      <point x="143.15151515151513" y="356.5151515151515"/>
      <point x="137.5151515151515" y="356.5151515151515" type="curve" smooth="yes"/>
      <point x="103.78787878787878" y="356.5151515151515"/>
      <point x="65.39393939393939" y="398.60606060606057"/>
      <point x="65.39393939393939" y="473.6666666666667" type="curve" smooth="yes"/>
      <point x="65.39393939393939" y="549.2727272727273"/>
      <point x="104.48484848484847" y="590.6363636363636"/>
      <point x="155.33333333333334" y="590.6363636363636" type="curve" smooth="yes"/>
      <point x="220.06060606060606" y="590.6363636363636"/>
      <point x="265.1818181818182" y="527.5151515151515"/>
      <point x="306.4545454545455" y="351.1212121212121" type="curve"/>
      <point x="302.8181818181818" y="390.7878787878788" type="line"/>
      <point x="302.8181818181818" y="3.0" type="line"/>
    </contour>
  </outline>
</glyph>
<glyph name="ta-beng" format="2">
  <advance width="451.2121212121212"/>
  <unicode hex="09A4"/>
  <anchor x="313.1818181818182" y="67.78787878787878" name="bottom"/>
  <anchor x="376.33333333333326" y="-13.969696969696969" name="bottom.rakaar"/>
  <anchor x="320.3939393939394" y="84.93939393939394" name="bottom.rvocalic"/>
  <anchor x="290.3636363636363" y="34.39393939393939" name="bottom.virama"/>
  <anchor x="275.60606060606057" y="595.2121212121212" name="top"/>
  <anchor x="277.60606060606057" y="595.2121212121212" name="topright"/>
  <anchor x="225.2121212121212" y="0.0" name="vedic"/>
  <outline>
    <contour>
      <point x="275.5151515151515" y="84.57575757575758" type="curve" smooth="yes"/>
      <point x="349.6060606060606" y="84.57575757575758"/>
      <point x="420.18181818181813" y="136.87878787878788"/>
      <point x="420.18181818181824" y="275.3636363636364" type="curve" smooth="yes"/>
      <point x="420.1818181818182" y="401.6060606060606"/>
      <point x="362.4848484848485" y="478.8484848484848"/>
      <point x="269.30303030303025" y="478.8484848484848" type="curve" smooth="yes"/>
      <point x="216.6969696969697" y="478.8484848484848"/>
      <point x="188.87878787878788" y="449.03030303030306"/>
      <point x="188.87878787878788" y="404.24242424242425" type="curve" smooth="yes"/>
      <point x="188.87878787878788" y="367.57575757575756"/>
      <point x="211.42424242424246" y="341.1212121212121"/>
      <point x="246.51515151515153" y="341.1212121212121" type="curve" smooth="yes"/>
      <point x="281.1212121212121" y="341.1212121212121"/>
      <point x="299.0909090909091" y="367.72727272727275"/>
      <point x="299.0909090909091" y="401.1212121212121" type="curve" smooth="yes"/>
      <point x="299.0909090909091" y="424.3030303030303"/>
      <point x="289.03030303030306" y="448.0"/>
      <point x="274.6666666666667" y="455.1212121212121" type="curve"/>
      <point x="251.39393939393938" y="428.6666666666667" type="line"/>
      <point x="259.6060606060606" y="435.8181818181818"/>
      <point x="274.1818181818182" y="440.969696969697"/>
      <point x="292.3333333333333" y="440.969696969697" type="curve" smooth="yes"/>
      <point x="344.8484848484849" y="440.969696969697"/>
      <point x="392.45454545454544" y="386.2121212121212"/>
      <point x="392.45454545454544" y="284.9090909090909" type="curve" smooth="yes"/>
      <point x="392.45454545454544" y="169.24242424242425"/>
      <point x="338.6666666666667" y="122.30303030303031"/>
      <point x="273.0909090909091" y="122.30303030303031" type="curve" smooth="yes"/>
      <point x="173.03030303030306" y="122.30303030303031"/>
      <point x="99.57575757575758" y="222.33333333333331"/>
      <point x="50.93939393939394" y="508.66666666666663" type="curve"/>
      <point x="27.909090909090907" y="503.8181818181818" type="line"/>
      <point x="77.12121212121212" y="184.66666666666666"/>
      <point x="162.27272727272725" y="84.57575757575758"/>
    </contour>
    <contour>
      <point x="-1.9393939393939394" y="595.2121212121212" type="line"/>
      <point x="468.3333333333333" y="595.2121212121212" type="line"/>
      <point x="452.1515151515151" y="622.0" type="line"/>
      <point x="-17.12121212121212" y="622.0" type="line"/>
    </contour>
  </outline>
</glyph>
<glyph name="tha-beng" format="2">
  <advance width="397.7878787878788"/>
  <unicode hex="09A5"/>
  <anchor x="317.90909090909093" y="15.030303030303031" name="bottom"/>
  <anchor x="323.69696969696975" y="30.606060606060606" name="bottom.rakaar"/>
  <anchor x="325.2727272727273" y="7.272727272727273" name="bottom.rvocalic"/>
  <anchor x="319.1515151515152" y="26.484848484848484" name="bottom.virama"/>
  <anchor x="322.93939393939394" y="548.1818181818181" name="top"/>
  <anchor x="323.6969696969697" y="563.8181818181819" name="topright"/>
  <anchor x="198.3939393939394" y="0.0" name="vedic"/>
  <outline>
    <contour>
      <point x="321.8484848484849" y="-5.121212121212121" type="line"/>
      <point x="325.2727272727273" y="-4.121212121212121" type="line"/>
      <point x="325.2727272727273" y="595.2121212121212" type="line"/>
      <point x="414.90909090909093" y="595.2121212121212" type="line"/>
      <point x="399.5151515151515" y="622.0" type="line"/>
      <point x="324.6363636363637" y="622.0" type="line"/>
      <point x="322.0" y="661.8484848484849" type="line"/>
      <point x="300.3333333333333" y="679.0909090909091" type="line"/>
      <point x="297.1212121212121" y="678.0909090909091" type="line"/>
      <point x="297.1212121212121" y="58.93939393939394" type="line"/>
      <point x="307.1212121212121" y="53.909090909090914" type="line"/>
      <point x="275.4848484848485" y="172.93939393939394"/>
      <point x="171.8181818181818" y="277.3939393939394"/>
      <point x="84.84848484848486" y="314.69696969696975" type="curve"/>
      <point x="93.36363636363637" y="303.6363636363636" type="line"/>
      <point x="185.6969696969697" y="323.6363636363637"/>
      <point x="231.84848484848487" y="379.93939393939394"/>
      <point x="231.84848484848487" y="471.06060606060606" type="curve" smooth="yes"/>
      <point x="231.84848484848487" y="578.2424242424242"/>
      <point x="181.72727272727272" y="623.4242424242424"/>
      <point x="120.48484848484848" y="623.4242424242424" type="curve" smooth="yes"/>
      <point x="60.33333333333333" y="623.4242424242424"/>
      <point x="22.939393939393938" y="572.2121212121212"/>
      <point x="22.939393939393938" y="527.1212121212121" type="curve" smooth="yes"/>
      <point x="22.939393939393938" y="491.0909090909091"/>
      <point x="43.272727272727266" y="468.96969696969694"/>
      <point x="70.24242424242425" y="468.96969696969694" type="curve" smooth="yes"/>
      <point x="93.63636363636363" y="468.96969696969694"/>
      <point x="109.90909090909092" y="485.30303030303025"/>
      <point x="109.90909090909092" y="513.6363636363636" type="curve" smooth="yes"/>
      <point x="109.90909090909092" y="536.1212121212121"/>
      <point x="97.9090909090909" y="557.6969696969697"/>
      <point x="70.60606060606061" y="559.1818181818181" type="curve"/>
      <point x="72.60606060606061" y="546.1212121212121" type="line"/>
      <point x="77.81818181818181" y="569.2727272727273"/>
      <point x="94.96969696969697" y="591.939393939394"/>
      <point x="129.72727272727275" y="591.939393939394" type="curve" smooth="yes"/>
      <point x="179.69696969696972" y="591.939393939394"/>
      <point x="203.9090909090909" y="542.3333333333334"/>
      <point x="203.9090909090909" y="478.1818181818182" type="curve" smooth="yes"/>
      <point x="203.9090909090909" y="379.8787878787879"/>
      <point x="132.06060606060606" y="344.4242424242424"/>
      <point x="50.21212121212121" y="334.6969696969697" type="curve"/>
      <point x="65.0909090909091" y="282.06060606060606" type="line"/>
      <point x="162.93939393939394" y="249.30303030303028"/>
      <point x="259.42424242424244" y="147.72727272727275"/>
      <point x="302.3333333333333" y="12.96969696969697" type="curve"/>
    </contour>
  </outline>
</glyph>
<glyph name="da-beng" format="2">
  <advance width="380.6666666666667"/>
  <unicode hex="09A6"/>
  <anchor x="304.1515151515152" y="75.18181818181819" name="bottom"/>
  <anchor x="316.72727272727275" y="70.0" name="bottom.rakaar"/>
  <anchor x="318.09090909090907" y="11.636363636363637" name="bottom.rvocalic"/>
  <anchor x="309.24242424242425" y="0.0" name="bottom.virama"/>
  <anchor x="97.06060606060606" y="595.2121212121212" name="top"/>
  <anchor x="99.84848484848484" y="595.2121212121212" name="topright"/>
  <anchor x="190.33333333333334" y="0.0" name="vedic"/>
  <outline>
    <contour>
      <point x="295.8484848484849" y="-0.1212121212121211" type="curve"/>
      <point x="318.0909090909091" y="7.9393939393939394" type="line"/>
      <point x="302.6666666666667" y="70.3030303030303"/>
      <point x="288.93939393939394" y="129.5151515151515"/>
      <point x="288.93939393939394" y="220.24242424242422" type="curve" smooth="yes"/>
      <point x="288.93939393939394" y="313.8484848484848"/>
      <point x="305.72727272727275" y="391.27272727272725"/>
      <point x="329.1212121212121" y="437.6969696969697" type="curve"/>
      <point x="292.72727272727275" y="475.60606060606057" type="line"/>
      <point x="225.8181818181818" y="431.1515151515151"/>
      <point x="130.54545454545456" y="321.7878787878788"/>
      <point x="85.69696969696969" y="245.06060606060606" type="curve"/>
      <point x="99.18181818181819" y="236.57575757575756" type="line"/>
      <point x="99.18181818181819" y="595.2121212121212" type="line"/>
      <point x="397.7878787878788" y="595.2121212121212" type="line"/>
      <point x="383.1818181818182" y="622.0" type="line"/>
      <point x="-17.12121212121212" y="622.0" type="line"/>
      <point x="-0.9393939393939394" y="595.2121212121212" type="line"/>
      <point x="71.03030303030303" y="595.2121212121212" type="line"/>
      <point x="71.03030303030303" y="222.6060606060606" type="line"/>
      <point x="98.75757575757575" y="206.0" type="line"/>
      <point x="160.8181818181818" y="302.72727272727275"/>
      <point x="243.3030303030303" y="396.8484848484848"/>
      <point x="302.6363636363636" y="437.1515151515151" type="curve"/>
      <point x="295.72727272727275" y="445.3636363636363" type="line"/>
      <point x="276.09090909090907" y="408.57575757575756"/>
      <point x="260.3636363636364" y="319.72727272727275"/>
      <point x="260.3636363636364" y="233.96969696969697" type="curve" smooth="yes"/>
      <point x="260.3636363636364" y="148.0909090909091"/>
      <point x="274.7878787878788" y="74.45454545454545"/>
    </contour>
  </outline>
</glyph>
<glyph name="dha-beng" format="2">
  <advance width="379.4545454545455"/>
  <unicode hex="09A7"/>
  <anchor x="299.7878787878788" y="15.030303030303031" name="bottom"/>
  <anchor x="304.0909090909091" y="30.606060606060606" name="bottom.rakaar"/>
  <anchor x="306.93939393939394" y="6.424242424242425" name="bottom.rvocalic"/>
  <anchor x="301.8787878787879" y="26.484848484848484" name="bottom.virama"/>
  <anchor x="309.54545454545456" y="595.2121212121212" name="top"/>
  <anchor x="305.24242424242425" y="595.2121212121212" name="topright"/>
  <anchor x="189.33333333333334" y="0.0" name="vedic"/>
  <outline>
    <contour>
      <point x="303.3030303030303" y="-5.121212121212121" type="line"/>
      <point x="306.93939393939394" y="-4.121212121212121" type="line"/>
      <point x="306.93939393939394" y="595.2121212121212" type="line"/>
      <point x="396.5757575757576" y="595.2121212121212" type="line"/>
      <point x="381.1818181818182" y="622.0" type="line"/>
      <point x="278.7878787878788" y="622.0" type="line"/>
      <point x="278.7878787878788" y="501.5757575757576" type="line"/>
      <point x="285.57575757575756" y="516.8484848484849" type="line"/>
      <point x="195.8787878787879" y="473.0"/>
      <point x="102.42424242424242" y="406.75757575757575"/>
      <point x="26.818181818181813" y="338.8484848484848" type="curve"/>
      <point x="51.66666666666667" y="293.3030303030303" type="line"/>
      <point x="147.36363636363635" y="246.33333333333334"/>
      <point x="242.36363636363635" y="145.8181818181818"/>
      <point x="284.4242424242424" y="11.484848484848484" type="curve"/>
    </contour>
    <contour>
      <point x="278.7878787878788" y="58.303030303030305" type="line"/>
      <point x="289.42424242424244" y="51.151515151515156" type="line"/>
      <point x="258.0" y="174.21212121212122"/>
      <point x="150.0909090909091" y="280.3636363636364"/>
      <point x="62.72727272727273" y="328.4848484848485" type="curve"/>
      <point x="62.42424242424243" y="317.42424242424244" type="line"/>
      <point x="130.87878787878788" y="385.3030303030303"/>
      <point x="224.0" y="443.8484848484849"/>
      <point x="284.42424242424244" y="474.4848484848485" type="curve"/>
      <point x="278.7878787878788" y="489.03030303030306" type="line"/>
    </contour>
    <contour>
      <point x="154.5757575757576" y="421.969696969697" type="curve"/>
      <point x="168.27272727272728" y="440.57575757575756" type="line"/>
      <point x="128.36363636363637" y="443.0"/>
      <point x="84.24242424242425" y="471.6363636363636"/>
      <point x="84.24242424242425" y="525.1212121212121" type="curve" smooth="yes"/>
      <point x="84.24242424242425" y="577.2424242424242"/>
      <point x="115.63636363636363" y="596.2424242424242"/>
      <point x="141.57575757575756" y="596.2424242424242" type="curve" smooth="yes"/>
      <point x="148.36363636363637" y="596.2424242424242"/>
      <point x="155.15151515151516" y="593.6666666666666"/>
      <point x="161.36363636363637" y="590.6666666666666" type="curve"/>
      <point x="151.27272727272728" y="606.5454545454545" type="line"/>
      <point x="138.96969696969697" y="600.2727272727274"/>
      <point x="133.03030303030303" y="586.0606060606061"/>
      <point x="133.03030303030303" y="571.9090909090909" type="curve" smooth="yes"/>
      <point x="133.03030303030303" y="544.5757575757576"/>
      <point x="147.72727272727275" y="530.5151515151515"/>
      <point x="169.0" y="530.5151515151515" type="curve" smooth="yes"/>
      <point x="188.12121212121212" y="530.5151515151515"/>
      <point x="203.8181818181818" y="546.2121212121212"/>
      <point x="203.8181818181818" y="572.7575757575758" type="curve" smooth="yes"/>
      <point x="203.8181818181818" y="601.939393939394"/>
      <point x="186.6969696969697" y="630.2121212121212"/>
      <point x="144.5757575757576" y="630.2121212121212" type="curve" smooth="yes"/>
      <point x="97.81818181818181" y="630.2121212121212"/>
      <point x="54.24242424242425" y="594.8787878787879"/>
      <point x="54.24242424242425" y="530.0909090909091" type="curve" smooth="yes"/>
      <point x="54.24242424242425" y="455.8787878787879"/>
      <point x="116.24242424242425" y="421.969696969697"/>
    </contour>
  </outline>
</glyph>
<glyph name="na-beng" format="2">
  <advance width="364.4848484848485"/>
  <unicode hex="09A8"/>
  <anchor x="278.030303030303" y="63.12121212121212" name="bottom"/>
  <anchor x="290.3939393939394" y="30.606060606060606" name="bottom.rakaar"/>
  <anchor x="291.96969696969694" y="7.0606060606060606" name="bottom.rvocalic"/>
  <anchor x="285.8484848484848" y="26.484848484848484" name="bottom.virama"/>
  <anchor x="294.57575757575756" y="595.2121212121212" name="top"/>
  <anchor x="290.27272727272725" y="595.2121212121212" name="topright"/>
  <anchor x="182.24242424242422" y="0.0" name="vedic"/>
  <outline>
    <contour>
      <point x="288.5454545454545" y="-5.121212121212121" type="line"/>
      <point x="291.96969696969694" y="-4.121212121212121" type="line"/>
      <point x="291.96969696969694" y="595.2121212121212" type="line"/>
      <point x="381.6060606060606" y="595.2121212121212" type="line"/>
      <point x="366.2121212121212" y="622.0" type="line"/>
      <point x="-17.12121212121212" y="622.0" type="line"/>
      <point x="-1.7272727272727275" y="595.2121212121212" type="line"/>
      <point x="263.8181818181818" y="595.2121212121212" type="line"/>
      <point x="263.8181818181818" y="302.1515151515152" type="line" smooth="yes"/>
      <point x="263.8181818181818" y="251.24242424242425"/>
      <point x="266.09090909090907" y="202.39393939393938"/>
      <point x="268.3030303030303" y="156.36363636363637" type="curve"/>
      <point x="271.7272727272727" y="154.03030303030303" type="line"/>
      <point x="254.0" y="279.42424242424244"/>
      <point x="197.51515151515153" y="400.5151515151515"/>
      <point x="93.36363636363636" y="400.5151515151515" type="curve" smooth="yes"/>
      <point x="51.333333333333336" y="400.5151515151515"/>
      <point x="20.15151515151515" y="373.4848484848485"/>
      <point x="20.15151515151515" y="326.969696969697" type="curve" smooth="yes"/>
      <point x="20.15151515151515" y="286.7272727272727"/>
      <point x="43.06060606060606" y="258.6363636363637"/>
      <point x="78.15151515151516" y="258.6363636363637" type="curve" smooth="yes"/>
      <point x="111.18181818181817" y="258.6363636363637"/>
      <point x="130.66666666666666" y="284.6060606060606"/>
      <point x="130.66666666666666" y="319.0" type="curve" smooth="yes"/>
      <point x="130.66666666666666" y="342.3636363636363"/>
      <point x="123.09090909090908" y="360.69696969696975"/>
      <point x="109.66666666666667" y="369.54545454545456" type="curve"/>
      <point x="94.3939393939394" y="352.72727272727275" type="line"/>
      <point x="99.03030303030303" y="355.3636363636364"/>
      <point x="107.87878787878789" y="358.1515151515151"/>
      <point x="117.3030303030303" y="358.1515151515151" type="curve" smooth="yes"/>
      <point x="214.5151515151515" y="358.1515151515151"/>
      <point x="266.8181818181818" y="156.36363636363635"/>
      <point x="269.8787878787879" y="12.121212121212121" type="curve"/>
    </contour>
  </outline>
</glyph>
